<mxfile host="app.diagrams.net" agent="Mozilla/5.0 (Macintosh; Intel Mac OS X 10_15_7) AppleWebKit/537.36 (KHTML, like Gecko) Chrome/140.0.0.0 Safari/537.36" version="28.2.3" pages="4">
  <diagram id="qVfCg6VpFoM2Hw1LqWtF" name="VC Hexagon">
    <mxGraphModel dx="251" dy="149" grid="1" gridSize="10" guides="1" tooltips="1" connect="1" arrows="1" fold="1" page="1" pageScale="1" pageWidth="1169" pageHeight="827" background="none" math="0" shadow="0">
      <root>
        <mxCell id="0" />
        <mxCell id="1" parent="0" />
        <mxCell id="Kth7jSlBczYqb6lIQohf-1" value="" style="group" parent="1" vertex="1" connectable="0">
          <mxGeometry x="240" y="411" width="320" height="275.76" as="geometry" />
        </mxCell>
        <mxCell id="Kth7jSlBczYqb6lIQohf-2" value="" style="triangle;whiteSpace=wrap;html=1;rotation=90;fillColor=#99FF99;" parent="Kth7jSlBczYqb6lIQohf-1" vertex="1">
          <mxGeometry x="98.32" y="-16.91" width="125.45" height="161.89" as="geometry" />
        </mxCell>
        <mxCell id="Kth7jSlBczYqb6lIQohf-3" value="" style="triangle;whiteSpace=wrap;html=1;rotation=90;fillColor=#66FF66;" parent="Kth7jSlBczYqb6lIQohf-1" vertex="1">
          <mxGeometry x="111.64069554073338" y="20.865736359412903" width="95.46966475402672" height="122.58031212898119" as="geometry" />
        </mxCell>
        <mxCell id="Kth7jSlBczYqb6lIQohf-4" value="" style="triangle;whiteSpace=wrap;html=1;rotation=-90;fillColor=#66B2FF;" parent="Kth7jSlBczYqb6lIQohf-1" vertex="1">
          <mxGeometry x="177.27" y="-6.86" width="127.85" height="144.64" as="geometry" />
        </mxCell>
        <mxCell id="Kth7jSlBczYqb6lIQohf-5" value="" style="triangle;whiteSpace=wrap;html=1;rotation=-90;fillColor=#FF9999;" parent="Kth7jSlBczYqb6lIQohf-1" vertex="1">
          <mxGeometry x="16.68" y="-9.16" width="127.59" height="150.38" as="geometry" />
        </mxCell>
        <mxCell id="Kth7jSlBczYqb6lIQohf-6" value="" style="triangle;whiteSpace=wrap;html=1;rotation=-90;fillColor=#FF6666;" parent="Kth7jSlBczYqb6lIQohf-1" vertex="1">
          <mxGeometry x="51.79660967582209" y="26.681590584510552" width="95.46966475402672" height="110.94860367878591" as="geometry" />
        </mxCell>
        <mxCell id="Kth7jSlBczYqb6lIQohf-7" value="" style="triangle;whiteSpace=wrap;html=1;rotation=-90;fillColor=#3399FF;" parent="Kth7jSlBczYqb6lIQohf-1" vertex="1">
          <mxGeometry x="171.82693035854717" y="27.681590584510552" width="95.46966475402672" height="110.94860367878591" as="geometry" />
        </mxCell>
        <mxCell id="Kth7jSlBczYqb6lIQohf-9" value="" style="triangle;whiteSpace=wrap;html=1;rotation=-90;fillColor=#FF0000;" parent="Kth7jSlBczYqb6lIQohf-1" vertex="1">
          <mxGeometry x="95.27003174788102" y="66.15570315054114" width="55.9228730376023" height="71.57974430889415" as="geometry" />
        </mxCell>
        <mxCell id="Kth7jSlBczYqb6lIQohf-10" value="" style="triangle;whiteSpace=wrap;html=1;rotation=-90;fillColor=#0066CC;" parent="Kth7jSlBczYqb6lIQohf-1" vertex="1">
          <mxGeometry x="168.098738822707" y="66.15570315054114" width="55.9228730376023" height="71.57974430889415" as="geometry" />
        </mxCell>
        <mxCell id="Kth7jSlBczYqb6lIQohf-11" value="" style="triangle;whiteSpace=wrap;html=1;rotation=90;fillColor=#00CC00;" parent="Kth7jSlBczYqb6lIQohf-1" vertex="1">
          <mxGeometry x="131.88477558034543" y="66.15570315054114" width="55.9228730376023" height="71.57974430889415" as="geometry" />
        </mxCell>
        <mxCell id="Kth7jSlBczYqb6lIQohf-41" value="Designing" style="text;html=1;align=center;verticalAlign=middle;whiteSpace=wrap;rounded=0;fontSize=18;fontStyle=1" parent="Kth7jSlBczYqb6lIQohf-1" vertex="1">
          <mxGeometry x="40.66" y="70" width="78.36" height="40" as="geometry" />
        </mxCell>
        <mxCell id="Kth7jSlBczYqb6lIQohf-42" value="Deciding" style="text;html=1;align=center;verticalAlign=middle;whiteSpace=wrap;rounded=0;fontSize=18;fontStyle=1" parent="Kth7jSlBczYqb6lIQohf-1" vertex="1">
          <mxGeometry x="122.86000000000001" y="30" width="78.36" height="40" as="geometry" />
        </mxCell>
        <mxCell id="Kth7jSlBczYqb6lIQohf-43" value="Informing" style="text;html=1;align=center;verticalAlign=middle;whiteSpace=wrap;rounded=0;fontSize=18;fontStyle=1" parent="Kth7jSlBczYqb6lIQohf-1" vertex="1">
          <mxGeometry x="203.05" y="70" width="78.36" height="40" as="geometry" />
        </mxCell>
        <mxCell id="gPWZ-nNDqj9K9enbtYil-60" value="" style="group" vertex="1" connectable="0" parent="Kth7jSlBczYqb6lIQohf-1">
          <mxGeometry x="7" y="126" width="303" height="149.76000000000002" as="geometry" />
        </mxCell>
        <mxCell id="gPWZ-nNDqj9K9enbtYil-42" value="" style="triangle;whiteSpace=wrap;html=1;rotation=90;fillColor=#FFFFCC;direction=west;strokeColor=none;" vertex="1" parent="gPWZ-nNDqj9K9enbtYil-60">
          <mxGeometry x="92.01" y="-8.24" width="118.87" height="155.58" as="geometry" />
        </mxCell>
        <mxCell id="gPWZ-nNDqj9K9enbtYil-43" value="" style="triangle;whiteSpace=wrap;html=1;rotation=90;fillColor=#FFFF99;direction=west;strokeColor=none;" vertex="1" parent="gPWZ-nNDqj9K9enbtYil-60">
          <mxGeometry x="105.49482125899185" y="-17.239726720438085" width="90.18968171522346" height="133.33509650905057" as="geometry" />
        </mxCell>
        <mxCell id="gPWZ-nNDqj9K9enbtYil-44" value="" style="triangle;whiteSpace=wrap;html=1;rotation=-90;fillColor=#FFFFCC;direction=west;strokeColor=none;" vertex="1" parent="gPWZ-nNDqj9K9enbtYil-60">
          <mxGeometry x="167.08486152845313" y="-12.713949485939976" width="123.96568670005185" height="159.61281625900946" as="geometry" />
        </mxCell>
        <mxCell id="gPWZ-nNDqj9K9enbtYil-45" value="" style="triangle;whiteSpace=wrap;html=1;rotation=-90;fillColor=#FFFFCC;direction=west;strokeColor=none;" vertex="1" parent="gPWZ-nNDqj9K9enbtYil-60">
          <mxGeometry x="11.949451771495" y="-12.898866773069518" width="123.96568670005185" height="159.61281625900946" as="geometry" />
        </mxCell>
        <mxCell id="gPWZ-nNDqj9K9enbtYil-46" value="" style="triangle;whiteSpace=wrap;html=1;rotation=-90;fillColor=#FFFF99;direction=west;strokeColor=none;" vertex="1" parent="gPWZ-nNDqj9K9enbtYil-60">
          <mxGeometry x="52.0157387404936" y="-10.913609002855434" width="90.18968171522346" height="120.68286107388522" as="geometry" />
        </mxCell>
        <mxCell id="gPWZ-nNDqj9K9enbtYil-47" value="" style="triangle;whiteSpace=wrap;html=1;rotation=-90;fillColor=#FFFF99;direction=west;strokeColor=none;" vertex="1" parent="gPWZ-nNDqj9K9enbtYil-60">
          <mxGeometry x="162.24182471539822" y="-10.913609002855434" width="90.18968171522346" height="120.68286107388522" as="geometry" />
        </mxCell>
        <mxCell id="gPWZ-nNDqj9K9enbtYil-48" value="" style="triangle;whiteSpace=wrap;html=1;rotation=-90;fillColor=#FFFF00;direction=west;strokeColor=none;" vertex="1" parent="gPWZ-nNDqj9K9enbtYil-60">
          <mxGeometry x="88.3416882804552" y="-8.049105964402013" width="52.83003907950218" height="77.85991037024854" as="geometry" />
        </mxCell>
        <mxCell id="gPWZ-nNDqj9K9enbtYil-49" value="" style="triangle;whiteSpace=wrap;html=1;rotation=-90;fillColor=#FFFF00;direction=west;strokeColor=none;" vertex="1" parent="gPWZ-nNDqj9K9enbtYil-60">
          <mxGeometry x="160.9213569691778" y="-8.049105964402013" width="52.83003907950218" height="77.85991037024854" as="geometry" />
        </mxCell>
        <mxCell id="gPWZ-nNDqj9K9enbtYil-50" value="" style="triangle;whiteSpace=wrap;html=1;rotation=90;fillColor=#FFFF00;direction=west;strokeColor=none;" vertex="1" parent="gPWZ-nNDqj9K9enbtYil-60">
          <mxGeometry x="124.82083026485142" y="-9.049105964402013" width="52.83003907950218" height="77.85991037024854" as="geometry" />
        </mxCell>
        <mxCell id="Kth7jSlBczYqb6lIQohf-12" value="Details" style="text;html=1;align=center;verticalAlign=middle;whiteSpace=wrap;rounded=0;fontStyle=1" parent="Kth7jSlBczYqb6lIQohf-1" vertex="1">
          <mxGeometry x="130" y="145.74" width="60" height="30" as="geometry" />
        </mxCell>
        <mxCell id="Kth7jSlBczYqb6lIQohf-25" value="Coherence" style="text;html=1;align=center;verticalAlign=middle;whiteSpace=wrap;rounded=0;fontStyle=1" parent="Kth7jSlBczYqb6lIQohf-1" vertex="1">
          <mxGeometry x="130" y="186.04999999999995" width="60" height="30" as="geometry" />
        </mxCell>
        <mxCell id="Kth7jSlBczYqb6lIQohf-26" value="Overview" style="text;html=1;align=center;verticalAlign=middle;whiteSpace=wrap;rounded=0;fontStyle=1" parent="Kth7jSlBczYqb6lIQohf-1" vertex="1">
          <mxGeometry x="130" y="224.95" width="60" height="30" as="geometry" />
        </mxCell>
        <mxCell id="gPWZ-nNDqj9K9enbtYil-1" value="" style="shape=image;verticalLabelPosition=bottom;labelBackgroundColor=default;verticalAlign=top;aspect=fixed;imageAspect=0;image=data:image/png,iVBORw0KGgoAAAANSUhEUgAAAOgAAADACAYAAAAOVi8jAAAAAXNSR0IArs4c6QAAAIRlWElmTU0AKgAAAAgABQESAAMAAAABAAEAAAEaAAUAAAABAAAASgEbAAUAAAABAAAAUgEoAAMAAAABAAIAAIdpAAQAAAABAAAAWgAAAAAAAACQAAAAAQAAAJAAAAABAAOgAQADAAAAAQABAACgAgAEAAAAAQAAAOigAwAEAAAAAQAAAMAAAAAAl7ClOwAAAAlwSFlzAAAWJQAAFiUBSVIk8AAAQABJREFUeAHtXQdgVEXXPZve6L333qsgiCCiIEqxK4gVFfVHFBT9LKhgRbFjF0VAbCgoIL1LE5Dea2gBEkJCevvPeZuFJKRn971syIWXfXXuzJ25c8vcmbGlEFAMxRQopkCho4CN4FHocuWCDMXGxuLPP/90QcrFSZpNgR07dpiN0lJ8XpZiNwF5eHg4Rj83GtN/mIJRzz+HhJh4wGYzAXMxCmdTwNPbEx++/x6GPf4EunfvgV69ejkbRaFLz1bUVdz4hAT0bt8eEwbegmdOL0ffF25AbExcoauI4gxlTwE/Px/Mm7AAEedvwJYp/8PJUyEIDAzM/iM3fyoVt8hL0IcffRSje1yDltWrIvr7g4h6PAaVm1ZCseHtXq037kwUNsw6hds/H46okAMICQlB3bp13asQ+chtkZagK//5B6MHD8aql8cAlKTHzp3DtXO+wqiFzyDJIykf5Cr+xAoKeKR44Ju7P0WFVh+iavNuOHtiN/Z/cTf+/XeDFdkxDWeRdxJ98OabmDNqlMGcoLO6WvnyuCOgIfau2AtvFHnlwbSG5EpENtgQffw8zoW3Q80O3ZCcDJSv3QixtXrit1+ms1qLti5UZL2406ZPR62oKJTy9YOYU5ASH4cnr78e0+77DnHni+1QVzKWs9JWR/r1Q1+j+U1PIyE6xfDvJbLquj7wBt79dBKvi7bDr8gxqHrU0LAwvPz0SLxz191A0kVVVr1xmcAAfNznFsx4YxarvliKOouRXJIO+9X/Zq1HbFwnlK/flChSmVH9bYoXYmteg6++mOgS1IUl0SLHoOpRP5s4ERPvuAOenp6X0jkxEf07dYLfghBEh0bDw1Hpl75ZfMdiCvjb/LFw4nr0GPExkjg6lhakFHW8fRTGvvsp1d+zaR8VqfMix6A7du7EX19/jZ7NmyMlMSHTykph4MLz1/TGR3d+SgbNhIkz/ar4ppkU8GK9rP1pFbxK3AgPL39KzEuxe3p5otUDH+Pbb7699GERuVNkGFSqbTI9CI8NG4YfH3kUnjyXSpsZ6G7nZk3QO6kKti/ZUcykmRHJwnvixbjIWEwbNRMdBz2L5ItWSrpcJbH/rdqyG96cOBVHjwZf8DWke8nNL4oMg0q1XbduHXqUKoU61avnWFkpMTEYf+ddWPriHHp0iwwZ3Lw52rPvCx+s+eEfdLj3M3j5U3pmB7RFOwz9AE89ORwpRdBhVGRaZlxcHO7nmOcTPa+FVNicQAzty+Ou8k0xefR0smiRIUVORS/0zxPi4zHvk22oc+UNtD0z0W3TloCP613RDTvOlcBpBi8UNSgyrfLV11/HU1dcgXJBQWD0Re7qie+NurU/kuYfRXx4Bi9E7lIofsvJFPCk7fntkM/Qov+rQLIPU8/cTEmLNi4KaHrraDz00ENpbxeJ8yLBoBEREdg+Zw4e7tMHyMIxlGVtxcbhvRs47PLibwgAx0yLwUIKMCjhVARCT9VH094DHMPXOeeH/XGF2s2w7mgy5v89p0gFLxQJBu3Trx+elWpLuzI3PW66GqcUbVevNgIWncKGhZv5KJfSN10ixRfOoEAA/DH16Z/Q6paXERuZtxSTEoF+r87AWx98XqSCF9yeQRcsXoxmDEbo0qwZVdu8VeqFt5OS8ePwx7Fk7Fw2kWIpeoEuZp6k2LB7zTYc2uCPCnVb5L2fZN17evviTIkWmDXzdzNz7lJcbh8s35VTyebR9ghUUEJ+GVQk9vTAe7P/xuYbAnDNQ90Rj8zHUF1aG5dx4v7wxdvXfYCOQxfDx79M7tXbdDTjUFtCFP54rDEO7NmBEiVLpnvqbhd0ZLr3igrPvfQSBtasSeZkyF5BmJM1l0Ip+sT1vbD2lfkIDzlXpOyYwt4wFW+7felWeJW6Ef4l88ucKqUNPnQStnngQwYvfFXYi52r/LmlBFVQQhjjbft17YpV/3sBMGzPXJU3+5cohTcfOYIRp5fhgYn3IwY5D9dkn2Dx01xRIC4Fz9R6DgMm7IJfiYr8JGfPbdbpMqDeKxmznuqEQ1tWwcdHnmD3BLeVoBrDfOaZZ/D+Lbcy5MSJs1Joy7aqVROlVpzFwR2HODJakIbino3C7FwrKGHxR/PQ9s53EVShEtEXlOY2akOeHHZ5Ef83zP2HXdzOSSTpuWzlChxduQod69RBiiYIOhFSEpPwweC78fU938CWVNDG4sSMFcGkFIp57mgY5n6wBY2vfwCJcsI7A9hGml3bH4t3nMWJ48eckaJlabilint1ly6YN/ge+HnJ9iyg8ZkZ6akWTVy4ADtvL4O2/drQXUQffjE4lQKqNe8ET7zQbBRa3vYtancewLp0YofIpM4e3QLPpa/jx+k/OTXvZiXmlirulGnTcFOlyvDz9XUNc4r6DDW7r8tVmPfkb4iPKo4wckWD9GUE9IYZ65GU3AANegzkEJkTmVMZZsddtmZLLNoRjlXLlxbUh+gKEuQqTbeSoGdCQ9G+aVPsHTuO1eti8LBh1obNmOC9Hfd9NATJ/FcMzqNAVMh5jKj2NG77ZANKV2/lEkVI4dUJ0Wdx5Ms7sHDBfOdl3qSUJEGpI7oPvPraa/iZY57eGvNMs1KCS0pAHczm44Flny5FxImznPLkAlXaJRkv3InavGxIjk/G8a3HUKXZ1ShVg/N2XdX3MV3/UmVwqnRbLFq0ED0ZbeZu4DYSdN/+/Rjevz/mjExdBMyFlBYrRnESYs9x4xB2LhJx7Uti4JL+iE+hLVrMp/mmvJTY+JNx+L7BD0iMTsKQKcfIQFVdIz1Tc6nqios+hWXPX4kD+/bAw8N9/KJuIUEdE7EHDBiA3+++GylcPtPJ1solDc7m54tJ8+fhBa7K4O3ljRtm/4WDsw+hSt9qBR8FuATb5XMjQEMqzy4xmLPVzSNRolJVrvTv2vKrrQSWrojqNzyLb7/+Eg89/KhrETo59ULfnbAXwUzuqzK4YUM0qFHT5cwp+oaEhuHLuXNxQ+3a6F2jOjpUrIBlo1YxSleWb7EIzU8b9GTN7ftzH46tr4sat49HxQbtkGiS/01zSlv3fxgfT/o1P1m39JtCzaCSnvH0qI556in833XXp85WcS29UmjfPj5tKiZzNXoZ6LQB8Hvv3ojYFY7VL63hPbcy211LrFymrnpMOB2Pv2//G7UGvYXK143A+l8/hIeWg3K1OmTk0YbE2BQEdbgLTw1/LJe5LhyvFWoGlfR89P/+D89cfTXjbU2I6yFz7j15EuW4nm6bKlUMV70MpGqBJTCMs2U2jP8P0YfOFwvRPLZdP5sv1r22GuW6jEBg7VZcO8oTpbo9ghUfPgKbmNQEYAAg2vR7EL8s3ISTJ06wWt1DEyrUDHqSzBK3bRuGXN+bs+vNIejATz7G6DZtuMh1Gv2Lkw3HdewIr4QUrH55Lfxtiu80Jz8mtF0Xo7Dh2Mqj2PJJCGrc9gaSY8gqHPOs2vN+HD1yCFFnDpsjRFlKLd3ZadhEvPHWW24zZ7RQM+iQe+7Bc1wJHpF5nL2bnyZH6fnp8mUYUqMG6pYufUmjKcvFq77q0R27f9iDI4uDiSG3pOMMCy7j4Z3m8OS3Ym9naHfSK2QbK83MQOF0eiobUDh9qKIrSCDFjA6GCL0SbFg4aDbtzhcoLbkAGLUiQUI0UGPwx1j91Wj4lDBuufyPVgcsX7c1flm8Gdu2bnE5PmcgyLxWnZFyAdOY/uuvqMK9PVvUrFXAlHL3eSJVnpkrVmA01zVK4eLWGUH3BjVoiJblymL54yvgaSxmpSafPSRGJ2Dbpzuw88udF469U/Yicks4WapgLKqvQ9eHYv3L63FqeQhZL3116nnkwUjs/HonQtaehhdji7dzMa4tEzbDK45PXazm+dq8sfmtDYiLqocqN45MP95J3H4VGuJ0RCwOLJvl1Ci/bGuE0vvq4V9ixJNPGsu0ZvtuIXhY+DweajTsZb/78EPMfYwGfVpV01UEY0zvvV9/hQfqMvg+i2EcNXZP5u2dzlei919/Yd/kfWj4UBPG6WY/sTvubByWPrHskpzbGKnU7MEm6PHlNZwcHn9Rnqn8IgGfX8L+VPN1z4P0UWScpOPRRcFYPXYdOsS1RdVuVRk1rEVk+VwmAaf7nl5/CouHLkXLp1uieusqWPf6v4iPjEeLB5sh0UfqpvE60+W5AgZU0FQpxzPjUvaaUS3M04VM6b0c4OSqE9xZbgOavbQayZfM3GMemdVGT/yKteOvwu2dbkKiOo1cpJsD2mwfqxzl6jTEvkpdsXfPHjRq3Djb961+mL7LtTo3ws/G8czzz6Nf9RqcTeKqEJO0BU3BntOncJ6zHu5UZakGswI+u55MfBv3pVzy2DJEn6DDKJfg6e+JPn/0Ru8ZvXHVhC7wLuGNbV9Rsn633Wj0hvSjfRax/izO/xdhzKRxSFi1WammMXuiELXxHOJPxVFJ9TLCD2vdXBtXf9sNdQbVNZjTJikak4zzeu9QNLz97UGR4rkk3xR0mdgF3Sd1R2IAE02kd/UMDTNqAzZuTBS54RwSjtnTdhRLXuto4o3eHAGPZBsSQuOQQPwXGNXxYoZfTSNb/vQylGp6Lfxrdciarh5eCOw4BNtnf8M1cDMk4qJLzZppeN1Q3KG9ewo5FCoJqp56/4EDWMHZB+PHjDFHegYEYhy3iviMnmJwqllOHXiKVgHkbJoFvxzHhhfXo+s33cgYOXckHvRC1+5Xi/ItBT5U/fzL+WP+vQuxZ9peNLy3MUKWn8Dv1/2J5DhJQMCvnB9uXXUzAhpyF2lKlhnXzcDxFScvNKcrXuuIji91QPCfwVg16h9c8Xw7VG5ZBWcPn8XPrX9BXLh9nmzlKyuxz7OXypO8uPKxVUg4n4BGverhxNqTmNn7L9TqU5MqcAhiw+zfdHytA9q91A7JZOA5t83FwT8OGngrdaqEsO1hnBaWiMcjHkG8v11aX8gUT4RJFu/aV9ciZF0k2n7yMx18WVNVwVkVug3FmtH1ULPj9QgoVV2yPG2SLjkvXa0mkupdjynff4tBQ+6/QCOXICtAooVKgqohjX/7bUx95BEyy6V2YAHKmfmnxPfjqpVICgtFVX+KlOykZ2oKajo1uKzGg40bYcfkPQjdFMrmmDsySjbre01fK9u2HPcc8cD5k9HwjffEnDvmGcuudHunK9o/25bMEot5d86HHz3GS6iiijmr9aiKq/hciax9eR1ObzwFT19PI2ce3KdEjqCZPWcZzFmtezW0/V8bMt4pPr/oEvLw5m40jDFWGjZP5QY4PPcImjzQFG1GtTGu19GmTTyZgONzgw3m9Cvri07jrkD8ea7UFJlASeeZpQAVpojd4Vg/dj2qDXwJngGlcpS2NkrR+sP/xMYf32Da9jwZGXHhnyT2RV0ffB3vfT650DKnip+7luVCQqVNev6iRTj5zz+oW6ECe92cpVLab/N6LmaR5ffR3Dn47hou2ZkL5ryAg4H6717ZBXUCgrDozoV0Kik1HbkHB3OISU9uCEHMyRiUa1EONfpWR6O7G8K/gj9O/3cGiQfjSJOT8A70Qt/f+qDtM63R/YurUf/WeogOv2jYpdCYDN0Tioj9EfCv5I87ltyKbq9fjU6vdsyx3xEzXzO+B3qN746SdUoa9m8itYntU3YaBer8Rie0f6Ed+s240V5AR0+TSXH9qdqu+d9aePqVYUDCU7Tpc6aLbNHA2i1x7HgIQg/skulsCqQke8Cn5S149503TcGXHyQmkSL7rIk54ugMGjV8OL57+GHXz1Rhdmw+jLdduRJP1KvPeFvJnjwC7eMxHdsj7nAsDv16gD2dXZLlJhXZltH7IqlCJsOvvB9CT4Ybn53ZdAZTm03H1NbTEXPKHqQafTSKsauJ8A7iYA2HgqJTYtFsaBP0/aUPql9TnbNs7B2ZtMjY03YVtWLrClSlk/huNEq3KGOknV35StcuSZmegDj+9fCxv+lJh9D5YI6FECo2L8/OLBEBtfzhYUjszFJLMST45k+3Yt+MA6j3+AxKaqrnuaRsMu3gGneMx7yxA/mNCdoTsUgGtOn3ON7+ZDJOhZzMWyfN782AQsGgUm2/nTQJIznEUabkpWOQriBEcOhpvD9rFm6rV4+qpd3uywueFM6RGlS/PpqXKYl/R68nd2Sfhryungyb8eQMv8TQBKz432oDXY2u1eBfxs84r9q1Ch6NfBhDwx/EgH8G4KblNyGodSmqwgxVo92XmJCEAO6ZuZ3DJnPvmYeQNScZLmevQrGMVym7Qyh0RxivbHzXDxE7zhlpZ/fnYiO4KO2S6QUOqiEGA4JXHudYqw/Ct4dfsJEvVRiYxzMJ+Od/a1Ci0dUo2bg7O6DssF76zL9aPQR1eQRH1s2Gh70ol77kxDuimY30u/qZafj6ay5xk2qrOxFFgZO6WDcFTip/CUh6nj59Gu/RKXRHR45Bcpt6l4O3N8b8MZMOkt7w4fSjzORBTnkwvmHef2Mghd+ZZCx+aCml6KUpOe4kRSViesufML3Zj/imyiSc3RYG3zK+9uGPTtXgW84XJ9eE4L9PN2Pzp1sws+tMLLxlATxKeKJcy3KIj1As6zxs+mwTlj2yHHum7EPpurTvUiOsPCgNKlPSSb09H3weM3r9jlVj/mH88NocG56cMo58OsqdGJOElg80My7XMI05A+cwzVn2x5msEC4GXvToMiOfNW8bT9XWkVJuf21Iohe7Uo+HsXrqm/nqNHOLKe17SVTBK9RriY+nzsapU7LXCxdYzqDqtZ4aORI/3H+/scZQxobidHJRTdzJIZXkUyFoVLZcrhxDWeaBDFqFzqVetaohel4YzlNtzZh/lU+OGe9SPogIjkTksSiDGeveXAd3b74DtiAPJPqnoM/PveFfJQBrnluLdS+sR0DVAPSZ0cdQLXt8dTUqtq2A4MVHsfyxlXS8eKHXtJ7wr0jHFqWrDqmeEli3LOqPoFolELzwKNa/9i/qDqhNyeoDDz85dhhVRCnrVZKRRMoo7V8v2rae/vbIJslPPfMu7cMRmARUub4aOr9+BQMK/HCI4611b6pNVZvf8uO0LK2kdkzdiQO/7TfszsBGHFbJBxhpegSgZJcH8c/Ex0yxRYUzJckD7e97Gw/ee0+hU3Mtn7C9h4PF79Nr+9kDD3D87qLTIx/1m/MnbElSRJtywetZPXqgkRNWHlejPsWlP5v99DOCOpZD/2UDuJouxzNSQQ0gID7DaBbtPA3oxPGfQ6mU9FUI3ukDocaX5euW49MEPre/IQkVdiSMntREhqvRrvQjY9O74kXj0y/RC3GeSYjnerDqcb0ZjH7m4FmULM/toEoFwJPrzibwWbwn7cgEbwYk0Ab25bxaMpo/85bomYw4Lw0W2RCUwBFZRhzF+CUjdOcZRNPLXK5qaZRpWMZwQH3bYDL8Kvnh0RMPIdoWxy9s8IrxwA/NpiL6NDWCt3ZTJS+bW9PTQaY0vynsNGzYO+Fm9Bv9GbwDKuXV/5Ymrdyf+gYBC16/FzM+Ho0mTZrm/kMXvsnO3WYpgyrapUnTJph9732oW76cParFhQUGnUE/rFmLsG1b8WTbthzvyLMelnnuGIk0edcujFn3H+p83BIN72t4gfHsHzjYMO3nkjuXgiFFDLbUNxffEaPqmf45mPbi1+nf1Vc6dFcuJH1xMS2dCxxpp31mf6IvFaBweOYhzB4w15Ca5VqXJ4OeY3BGNNqMbIUu73ZlN5RgdCoL7lmAXVP2oBZjayt2f4ISKbM0HWnn/CvpHntiMyJnPov+785DXO7jQXJOPKs3iDMq7BCCJz2IZUsWZfWWqffFn5aquN9O/g4PNGmCepzalYlZ43RiyN79nMMqw1u3dh5zMpeK0729QX2Up6f1+Pv7KLEyenTFDBmPzIsn5rOzkN6/CHbGFes4GOzis4vMZr+nN8SYF9kkbVqOfDi+T/vs4j2FDNboXws9v+0BBSgk04Yu07A0rhjbEVe804nSPd4o0dH5wQZzBtZsg0rXiTmVRmZpOtLO+VdtIYALiUV4lMZ+xulSjOT8UUHfIIqSFWrjCKrhj99+LjSqrmUSNJk+7ms4rWvx8CepUmXvAS0o7Y3vaXve+90k9Pb1wZ0cWilYE8okR7Q1l588gQFzF6He0w3R6c0rDQmTyZvudYudmmbDpAb/IsFmryvRT+F8PzSagrN7z6HxqEUIqt/DuWXzTMGxj67DzRMWGLNfnJt4JqmxUB60Rra+0xsrF/+dyQvm3rJUgt5y5514ioP9HpoDZAIcDj9LB81R3EX7wunMqfyzIXdj/PCAejUR+vkRhO4I5S3JMTcHdjwJlKYJHhopvThu4kFrd/GjS3B2TzhKNeuNEk3EnM6WdDZ4NuqNzT9/yDFVE+iYmv24mtfgu0nfmoAwZxSWqLjbd+5Eyr596M+YVqfXaWZl5lzOkVOnYnznzuknYmf2bkHu0aZ9qmVLpLAX3jZmI3w5DlkkgExqqK3Gr71E4RvDsOObnfRQ+6Peo9NSYwuc3PWx7658/dP4d8ZHiAk7bgopkzns0qr/4xj5/CuIiMh5DNnVmbKEQZ/hXLyPBw0Cou2RKq4spDrFX9auQUBEBOqVLOUa6ZmmAC04dHMnJenZv09j/2zao4ZfNc0Lbn+awk2OfbBw6BIEcXX/Sj2f4BBOaSkQLgHZ3vUe+xWbfn6X4Y4uQZEhUU6w9w9E+6Ef45MPP8jwzPxLUxlUTprvpkxBDa75U4MLCpsBybQ9J/79N766tic9JyaonAyfeePKzqhVJghb/m89nStJZNKi80/e3dWvrUUkp8T5lKyEKv3GpHptXVObcjoF1GqNg7u3I3TvNjqMXIMnbaoKXqh/VX98+dsSRLOtWgmmOokS6e28ih7U1aOeMVRNl9PaxxufLliIgGPBuF9jW2YwKGvTkNqHDuKO+QvQangLlGtQ3u3tUUmyZM4n9Qn0xvz7F+KKNh1w7qo3UaJpT3qxXd+EE84dRvBHfXDb5/9xMroZBilwaNPfCNrwCX6b+Rfrj8NcZvQOaUgpJ1GGEfQ0T11wOm7cOIziprvgIlyuZk4R9MiZM/hozmxsvf12VqqG4c0BG8dF14WdxRRO53ruo63Y/BQtOK674yIt0JxCsaUEfOMPW6I/qlWsgVDfWijduEfqTB7XU9a3Ui0EdL4fwRsWcd5oH2517/piN+zaG38vnIT9+/aiXv0GrkeYCQZTJKiYRY6hu3r2xNZxr5syWwWUnsO++x6PVCyP1uXKmyY9pYPtPn8eY6ZPw3QGYkylDTr4avo830+iAHdPFrUx8sn3XS+UWOOD0xWeBU7+i1odr0WFHv9HurqeOY12yzaE5EjsfuNKDPpyW54D8TNp+znfYtHOc9VBj8Wv4IfJk3J+38lvmDbMItVgzAsvYD53xU6/cpSTS+RIjgHw244EI/xoMFqXr2gecxJ/NCV1H86SmUBmFDsOYhT7Pct5tpHuIm8qigqT0QM3OcR+tl02BG4oiUhfaj+tboPt2rEIWTmVdDVhYgPxG8A2ZPMuifI3vIjVXwy3L3rteOaqX9ZRiQo1sWRPJBYvnOcqLNmma4qTaMWqVajOFfqqlKFjyAQpkkAmGfLN13hDK/RRnTYN6JD6ZMd2vELHQlUiVQCMhkLfYpkDR3K+ZKRJ0saJBbYx5jfwE6q27FFiGw1jBFYUzzh/t8UDOPrL8wzSdyKyHJJSaGilbnci+NB+bogUZorDSAGW1438Es+/MIYb6pkzZp+WDC5lUKm2URxKGXTbbXj1lptZuSYwC5lk9vZtuKd6ddRhh2AaS7CHPxoVjUVr1uAecaUkJEFMWpXL5X3IpX0T3uesEb/UB/bHhfav6KZ5qLYJKfA96omwMk9w8aD6KhE7Wa6sVKMTQvZswLnNcw2GNacgDJqIIpPeNAYLxt4KLzM6B1alf6mySGl2K5YuWWpOMdNgcSmDSrX9+ptv8O6NN6F0Cc5dNAESKT3H/fIzhjXlvpMJF2eVuBq13F43L5yPCbKVMoH72ah7/cog9L1e0B6ZhR6kUp6xody2sojyrouUFrczGMG+yoORd5bH1ucDBP8xllE+5pWHuUKJ+h1x3qscDq+bY/QXrqal9nVp1vt+DB32BOLiXDzjKkNhXMagkp6aiD353Xdx8xVcF4dTslwNKWxUQ6dMxojGTeBHD6r+mQL02v568AAeOB2CZlTDJDXTAa91a4JHChIfYptiHWc2uTvdNxZeGJTjVFO/1324oFo0Ypo8R2+tGmZaetpt7JjafRE87SlTVkBwkESmb8PHp2Hj7xO5rKjjrgt/2a4CSpbjFoaj8NH777kQ0aVJu4xBherOwYPxEWNuvdRoL8Xt3DskYmhsDKdDncTgZpSeWUgy5yIl47Fgwecj8friRXiQawzpOjMQ0zan6jvhbAqSp3INJDJAYYUUtYppnBt6OhDhFWl3Vm2VaVYNGjcZgFPb/0HU4X/5TsaeKdPPnHIzOZkTx6lmb/3tE3iaMFiYyGGdljc9iO9mLqc33oSAl1QquYxB/92wAc1pVHdpxco1g1l8fPDE5Ml4qQ2nknHZlCz4xCmNI20imrH3yPLl+IbM5832eYn0TPOymu9TDI1p8zGlzwF6dfmtWflMk41sT2WWeMV7oOzC0ohJKYWkJnfQeM56QmZKIied95mAo7+NYcifiaVhp1/jphexYeZExERovWDXdw7abLh8l/sxcsTwbGnozIcuY9Ahd92F0X1vRMp5hkqx0hFAkZH28KNuwg0inUJWxoTO3fwfvDljpbnGPAsKTA9k+ByBDqkVJ07giiNH0NGYpJz9F2JelfdLkiP5aXvJbYa4yv47s55KtRWTeYz2QNLxGETWfYmLamn1rqwYj/e5FEEyVz04F9gQJ359me9nn1s99+TqBV7SIApU+fQr8/ua932P/359n9nIPI8+UtVLsqk5qaU3v/5OTP97DQ4fOph9QZ301CXKwWvc3m0Y53pWLUXKcFnIUzHRePzzz7mgAakkZiVhA7jNfPdGjXBHhw5caZ338ytlaf9NpQR7kLbnp9w3paAgR/pt3NHbmzX6PeN3/bJsnNy4iHb1vfPnYXMe8i4mbc85lS/v88Dr8z2QfBM92+b6HbImkRayXkDpGVUWoeWvQ0pt0jMuq53lyM7UGjzmPmnUXXKvt3H8j3tR7uoHuK5R7cyZj8x5ZtUkhK6eynWPqqL+Y5O5UFjW2cnpiVZuCKzbDrt+GYV6W/5FuXrt0+FVs1r28Uic3rse3YZ/g7I1GsgBXSDQFoZXP/MDXn/zLXz5xRcFSis3HzudQTVWtGbGDMx5glEmMaQ+pcx5TsP6deOGdE2d7RTfcjexD+fPxyoGMfimPtV9oy8kI8vGSdsvXnymNqFnfMr1WzcGB3Nd3QTs54wVB8hhxDAp49L+96IccKTj+NVLjnN9t+jYMfgy38Z61ETh+F7vCafcIzauDDiK47u/cD1fRvEZkNH+zE7dHcm8ff08HWltPJFUPpkrIKTFkpqgiT8ql6cvAxK+C2D0TAwSetKbFZ8VczJjpIuNtljKwcVGXSD2LJKveRMHJw1D4+fmIol7vYgeF2hAuiaeO8LnD/JjLulZt7M8Zca5/hrp6cogAz80ID1N7Onpme7b39Hi0/Ue+RErP+2PgR+sIQNKhKc+5yun9qxDyM6ViI86m4rD/sxwcTFPdoT2tAyUjnpwPOPrBt4L+IDSVRvh9zUH8H9bNqNFS5pwLgSnM+jd3NPzcQYI0B9NgjgKbv+txnHJRc9xcJuXxxmrOvjLL7CB6uHkf/7B0K5XcbUrb2zYvw+rOVe0BFXg3i1boHIQm7+McqqcG+gp/YeLjHlTaravUxcdatXCCQZA/LT6H3zJMMJ2ZblYld6l6ryeGyJt4Mp99bnXZ7MyZbH1bBha8bc8JfeKkBCU4cLV2sLhD6YZSLwDa9eGL7/TDmaf9uhu2Id+zP8xdjK7OS+wFdPedCYU+8+Fo23FiojimG4SgxLasXLOsEB/sSK1/HVvXm9hw9PMqE50GmUKfLckW+4kvnf9OH73OUkVQ8a/0Joz/cplN42Ojpqs7SWutB7N8rR+lyoOg0okLnIFrFDZ096+OBd6CiHzJ8K3Un3EnTwI/xrNuNJCV+5uFoXze1YyNW47WLkR6g791pCeHuwUIncuw/kDdDIxjaD6VyCo3pVGAH5S7DnEHFoNn0qNuPFvBKKPbkfp1n25y/k6+JSvw2G0WETsXY0S9drC74oHsGvRDwwBTEC52k1RqXEXY/mVjve8gKjQwyhVpR6LE09mXcaF1CrDr3RFHPpnFvxKlEHtzv2JmwRgvXgxP4fX/Y1zJw5xN7irORbsjXPH96JigyvpMS5lUEOdwjXcwvCRRwdjxYrlxoLiuSJTPl5yGoNKoq1ex2lImzahL5lQwyp2tryYK22bV7t0KS6hAdTnvMn/9bkBj02bgnncRXtor1544ccf8cbs2cZ3pBWZxIbNr7yK5tWqYdLyZXiAi1t7U7IlkQmTie+LIUNw+tw5tOeCYw8vWoSRnCzdtls3TGPc7yBeO6AJmXQnGXkyV/K7oW5dXDNzFqoGBnCt6SSEcTMkQWVO6t43+G5KTi+mtQT+XGBsAJcC/ZUdxoh/VqNF2TLYyk7FAWUZ68tNChBBpmrG31NGcAKX4eR3J5i/RrzHCDmj0h3fpPtlAa/jNw+u9MSU5R5I6EJpZEIAeLo8OC7YUXjs9ECFk1RtvTnhvCZVW2NYxfFCLn49feGxdw5STm7EoR82pvug1qDPUKJhJ+z7YrBxP/bkbux661q0/ewoDn7zfwhZ9En69+/4AJX6PonI3Rux+/0bUKpRTy5YtpJLhlaGb4Ua2PXe9fCv2hRxZw4hOZ49CqHCVUOxdMpXF9Lp8/LvZLwBWP3tyzizbz0GjG+DElWqYdbz16FkpTpIiOPwUXiI8X6JirVwxxc76A32x4I3h2Dv0inGfU8vH5SoXJcho7vQf/wKVGzc9YJGUL52Heyvex22bN6MNlqAzkVgKBnOSFvev3FUVX/i9g3a0zMjcwqH456hJjIEr17VKoaGcexsOE6ePoN35s5FrXLlsJmzXj6/d4jBhEO//w6JTPuZn39GST8/BL/3Hja/+SZtRE88xaUu93I1PUk0gS+ZI5IDyfekMuf7Xbtgeu/rGeFjn9PnKaOEoMWqjzPqZzg9zBtuuxW1KKVPUlL+eeiIwVB+TMeHHYHy65X6TTjV9HW33opXaTMLvLl3SQX+Pklpfop2dnemuZTfNNWQEg9fh6pkvJ3VnxS86cH5oprtEkaqmBV4niY78iN7+HrAd6wXzu3ngqHtXsw7cxrpscfhgj7qWG2cWR3ELQdrcAFrwcl54zmnsxUaDJ9lXAdUa4kmL60hA25CyGKOZZasiCbPr0CjEXMZxOGDwz+NQPTBTXQ42eXHud2LULplX1TpM5o47M672BO7UX/YVFTu8aiRZti6aah+y2t0BtnreMsfHxsTvL397ONZNqM+7S0wIuQgWg0cjps/WEVFoTJV+mCcPbIToQfXYd/yH+FfuhL6jp2Fdne/aDCnEHiwbI72q+t4qvBNbnwEt9xxty5dBk5j0M+/+gotaFSU8CYBKd1yA5ofKvD398NcSj1FAdUqXx5LdZ6658iaAwcoJcPJfN6IiI3lqnJj8RXt1llclaFDzZp4m8uYJKW+q9axhPajFMsO3IBpRLv2uIMSc1CD+gaetH8qUWKO4Ur2batU5X6fdYxHUVqGU2pmJtl/jPNJO7Aj6F/H/m546ku/SI1lzU3ln6spkSfwftqKTIvzknO+WIG0mswJwkkMA7QFZYL4ko+ceYNqNVuA57seKOVbAjEtXkBKUMG84Cq7R8vBiEIQGcRunUsV5Z4X3FKxrpF5m48/AqpVR/jGX0nrZFTs8RgC63VFmfa9UbnXKOOd0LU/8ddOSX+qxA2f+g2Veg3jHXuTDarDbUI6DEClPi/xNQ/4VWnKDuElBDa42vgsIea8YUo56jKt9eBXqiI6DPkfqra4EpWbdrPXN8Mxj29ZzewkodG1Q1Czw03o/NBLKFuzuZGfS/8weKF0ZZTqOBhffPoRm7xr6q7ADKqMhVPN/Pydd/AmgxIMG/DS0hh3HEXQr5wsmw4dMu43rFARpyPtDp7NnIXyzpw5eIu7WNemNK1AO1Gq7vxRI9GCqu7h0FB8tHgxbvjgfUrdU6hUwuGisdP5bKzdbqqqIR1KMnmRK3MXMgGTuQAlNYySqpZeqETjeZqXLrzNWQ3MbyLL+sCSJbQ1mRaTTuSfKKNibKjIipUzQasQSZvg3zRfZ3EqQvC4hfm4cVYKPJZz0WgzwwCZRY9zNpTZVhpnI6ohuU5PFqoAblV7ccj0lKR9P8KR2e+TFmxiqYRXce3AM+JOPG83GbxLU5NiPWkvF99ytY1XkmM0PGd/27d8PeNZclqTmJqLJorL5hRI8iZGJKNK32ftDcHxsT2JdH/9S3ECPb25xqE2QJDkjY+2t0GfoHLQqgrKT2D56sZzw6lknF38ozmpV977Ij6Z/EdqnV985qyzAjOoodpSqn18yy0sZM6N8hy9rWEMJFi4Y4eh0qogfVu1RD06cAR96BgK/uwzHHhvAl64+Wa8zbWLGCGHnxiE/kj37gjls+8eesjosXbTrtzGcEIHVv02L2dPZ8nx4zhOyRtJqfzXkUNKOrXi0pxebDH2m9n8DSKDfss8Dwk7gyQ2OH3qRY5swO0TpDFMTFWh5pEGso/TIcsmXcejL9mDe7/IhhZLGSFOdzHIzLB5cYWEZ70RGxKL2A5vX2AIp6BOSkByu8dIGjsDZExTwx0BNdsat89tmct9QalBkJRh66ca9/yrNXb0m5nny6DxxVRFMVHdk5qAQCptVpBZ7SRxY6pS1RsYnxzdOI9CIR5hhw7ixPblxj3RKzNgMVHmynvxzltvZPa4wPfsSn4+k5H03MqZI8t+mo63X36FPZo2NMgMRBLgyNmzqDHiSYOQ8VQHBVdQBe3bvAXO0XasSGk4fe1axI0fj8NcDWHj4cPo3bw5bm3XDp9Qcp3lzJi1+w8gPHWxMdYnapYsYUgupSXGaFe1KjpUqoj1p06j1pQfOMbqiZgMU87sudEXdnCYfsZ9/jF6y9QG4Hh3KzuDOZv/wyoy5wgW0v5uCt7myc28fpISYAyfheciYMGB98Iv06hCaTyRYYD3f8PJ3U+RjvR9OHBfeM+JJ0bAwBQvVKT9d9TvLrayGvmUnpnkMpV2tvJNLrQH1dVFYCdG31zpdgPg9dtzOLvpD+x47SokxcpTu4VBDGVQofsjiNy16uInWZ6l4nfgTKVaHKUz++Y0kCafqe9eyBzfSqJ5U6NtT/iWKEtVdwm+vrkcJSijpAyDScmk+T5tqtTSmva6F288VB93DxqMalwwzq5BpXmpAKfp6ZaHhMScysgTjz+BX+kYMtS+zL7ne3409tvTXuxUuw7acGikLc/7tmhheGGXj36OEiPFGPZY9syz6NW0GRbSq3uIknEQh2umP/IoShDPfG6w1LVefcz8bxPmcPypJYc9FvXrh5JUbapzG3t5amsEcnCDhF42cCCea9eWQyPlcDPty0eaNTVyxmToXLKhfYXyxrCJQXTWYk1+10bqtC/DEpiXtrSDW/NQvmSrdqtSBd9wSGUhE+CyPGjJmrW7ioCB7JR+YQBGD1JS1spHlKiefM/ocTOv08yoJCGMwZQ2bb9iq1pHaaLMughspIFnrCeCZvvj5B5fJDXmJk75UW0l8sSEFRozp5pKx60jy1EKBcqOZTdHtVHXybRBJUg9aHv6V23OTaKaGOX18i+PxiMXG8MqUcH/GV7Zko26c++ctex0qe77l4R/ZU58qMitNERLHh6MXPKv3JT7wzQy7nl4+XHz346GDSqKefiWRECNtoiKieOO3R+iTK3mHHZpyQ2FAzn65sNrrhHFQ/mRiluqSn1UaNAB3n5BHH6piDs+24JGve6hNG2Mjve/jSrNuzNVSmT1aJkCa5qIe73wGyZMmOD0eivQkifaEXvdRx/jxZsHctwzrYGQoSQqQZBGBtOA7EOquto2QfbcBaDtGBcfS08rvai0MxCdahMpDUYm3ULpOrpObXSsVIXMSJyqOaqfCoigtwjHacuO27ARZclYL1DyJvH+jb//juUMyVvavx+Zrao9jE/faaxWIDw65CSSZKe32EhXz2mrLgkOxso/Z+El5VmgliDg5Qc+njjEG3eR0dtRiv7MRjuY533oCZ5N5s0TMN2dZJ6mdVj2X/gt/2dm++QpzQwvGx0HOxSfYV4IOuuHsFaTkVK2JtWPPOY1NV0bmVIESWGgguxA7nzEOmWdaZiGtPDgTtvJ/36BaiUSUPXWd+HJZqDhpAsRRCyzwv6S6ABUOh4cp06i9iDaGlI+w/vqExQqKPsziWaqfEZeuha5+J3jub7f+cIVuPuzpRy/9DdiLlR75F/DtoyPFALu9kbcimZM4Ldhh7dj5/xvycBN0ezGexBzLgKTB9fns3MY9P1hBJYhnbIAD6Yx87nrsHrml6hVq3YWb+XtNjvp/G2epIJGceiiGTew3fLiiyhlOFzyhjzHt8WQRrdpf1MSe/GB/fhx5kx83bMnGwBrKDMgY7T/+RdsoIosx44kUQSHfeqXKoX/uHhYAK8d/JXZ5xnvBZNJr502DbuJT8ySrjPhyz+xsd9JhuQuBShN5grnLzcHw1y2lN5q9CJWXoD5e5826Oj/80TyMO44xobjTCb1ZH5tyz1ReUY5nIjug6T2I5hhcowrwScIXn+PQLNHv+JSndXTVqvrsJJxI/etgN+e33HV4xPoAMoZVWzkCUy7vx4S42O4emEpwwGVyPHShtfcg2ufn5y9/4x1Hhq8FWHTH8PiZStyRpaLN/LNoEr7eTLmFYysGdCxY9bMkotM5PqVAH9c+9pr+POaHvDPodFr074f9u7DRm7IKru0JdXVIQ0bIiB1jCzXONnxPLBwIZ7buxsNs7EtV1FKc2FGnGa+qjHxgfRqtTbiBHONKd2L8WT0xoxWOTKTrFlNVlAOBU73ddYX6qxAJ1TJoQGIDwtEzI1/UgKxJZsAtvMhCFwzjurrPwwuUHny0k3mM4NcD2rnG13Rd+RElK7JWU45gKRvbGQI9i6ehrPBuyhZ/VClRVfU63IbFSsNn2WfZx9K+0XjH8aUcUPRtp3DCMoBaTaP882g5zisclf37pgzgr1vdqptNsjz9IiNaPzCBYhjCOCL7dunk6xZpSNHqOHiJ4NK+gqyJ2+GlNiYZxw5jBlz/8YPOXxr4ErT5oxTO8oMieb+chtt2RZtac9O4mqA1BidIUUN2/MJT1RIKouQqh8guVIz6nsulp6OIlOPtK37DDXoE6jY61kVyPXACk+KDsGpSYPR750FSEq1aLJHbK9IMatA6yDlpeXExYTg4OeDsGzxQuP7gvwRg+ap+3Q09Ov69MG4vn1NYU7hPEV1ejq9uC8yiseRh5wKbqiiVD2lT4kx88ScfD+K6ulYBvN/S2mW07cX1F7VJY8L1zllMpvnzWnPPrmOiU2hbe2EtXe0oqDnLk+UiQjA6fOdkVzZROZUOalGp3QejhPrZ/OU4405ETUb2uT6EcnnXaoSkqp1xLGNHL+mnZgz2DNmOJHYfPKaUb+gSjju2wg/fPdNzqhy8UaeGFQq0rwFC9CNwQNtGzXKRfIFf8VGA//9+X9jEmNsBWbUq5xOr63fgIkM//NxOIYKXpQ8pSBef407X5d4m1O6TqqTKGDJ4xht86IvosPphOn0nOvtzsxKGx+FxLaPYt/7vXOcN5rZ5/m5J3W6Sp+RWPDuvUjgihsFJWNOeZCz6rqnPsV7n31Pn2PBtZNcM6hDco0dPRpjBt7s+u3qUymxes9urGMAfgsOg2QY2MqJVvl6Lsb4+yg3pd28CZ0pxawCSeGStHvmsIY83qRXt1TONlCWeWV0kscHtD0rBCGm7etIMWUhn8xyQ29v5ZaIKt0aZ9dOMYlJuUJEYFl6kCdg2x/vmbI8inyDJa64B99zP9qCQq4ZVNJz1PPPY2CdOlBUjRmQQufL87/8gknX9DTGJ83AKafJa6tWYTpVW1f3trkpT2fG+t68mG6in2jDUdvNK2gFQa8DHiizPRCnT9WiakvnhWLYrAIOv6R0GIbguR/SvsuVUVjgnKYwbK9c51uxe91SxEWFa3TFpZBMB2GTawdj9Jg3C7yFYa4Z9AxjYHdz9YCRDALQPicuB45LLt61E/0ZkFCTQySmADuel//9F4+zrP7y2kqcWg1sTJ9T1Q2awG5ZQ4t5CAPkgAo8qNr6jmScapw/Enu8z9KYUHc50CyF80wTWg3Fvg9u4CCkiOxqQtsMB1HFfi9jwav9iDOHDBb4Me19aimdhn2Bsa+MKVBquWbQEYwWepVrDCEm1uWCRdUVyWCFxzj/874mjDrJasyzQEVP/7G8pAoPXLrhXwxyeQnT4872isQoTTv4xzC2q/Gc8sSB9twKgBTGW3j+6onAEn44V3kYUow4VVczQ7alufAwufbViPSuhqi9y6gZqESuzZcwlOLMldiyzbiN4b9GgMOFzLjgREpK3c7XYebqfUbMQH5R5Migsj3/5lhgyPr1aFu7DunoWkKqIDaqmW/PnosXGThfhlE9uW2Q+SWCgZPT5MZyZYa5jGAyo4x5yitJ3ptjei1ncMbMEuYvFzqaMaRy3BMl/vJHeEh5JDei5Eg3HSRPOXD+y1xOJan9Yzg4eTjTdn2bUgGSuQB1jVtex8pvnoOPph25GBjvgLo3PIkhg+/KN6YcGVS25zuvvoLZIzlPLzXAPd/YcvMh8UUxhO8/bd/AuFxTcNLWfYEdUOejRxEkN1whBGq5mEPPke9b5E+u5C71NUugGiwT2vsFxrOyJcZf/wVfJROYwwdZZiv9A/qlGUcb1/xeHPnhEVOkqHQPT39u41C1PTb8MI6XridI/S69sOmUD7Zv3ZK++Lm8ypFBP+H0rhsrVYaPYlVNkJ5gKFrfDz/E8wymN2Jjc1mQ/L6mKjrEpUEXbtqI59WqrTfRsixKRXLYB4c47PIWvbrZSQBG9NsWeKEMA19DvfpzXldZ1l3hK1gKO8OUJv1xJvgQA+UPpjJplsV3ygMFHtS66y3s+Xcp43dzEf9XQKyK8e32+Kd44eWx+UopSwaVanucAeYTxozBk9f3NkeSkT9W7tuP1gyx61KjRr4KlNePbFwDdxQXfvpVge1mdEB5zWDa99mbDGUYYf1pnNy81XABpX1qnGu81COEM1U+8UXo4SB6TB9jp2Oh1/aSHGa4wYXBkq8chd3juVO3Kfm0T3Ure91z+Hfqa9C6uS4F1pkvl1D5L8wfs/74Lc+osmRQqbYTuP7P78OGcaJIlq/lGWG2HzAo4fXfZ2AslyIxQ3rKlvuc08jKc2WHGoVOBcycUpoCt4CTuwPfYG8WmH5s1NDYOKHEm84kzyA/JHT7gKVyvRqXeU5zfzelRFUktLgfIXPfovqe++/y/SZJUrr5tdi1diFO7f6PybiYRuz7ezz+AV585XXO8eCkizwIgiw5b9u2rdjB7eNb1qxFL6oJdhk7gbe52l5LSs8gzkgxAyKp7kxeuw6fS7V1cR05rTzMJ+eDYOhWzqCZyPHoNEPSKZrttdoL5cKDEJZwJZJL16b0NKHuClq4JI6NNrsNx9b9hQSttMfqcDXI1dBoxGys++FVrubgeoQBpcuiTPfHsZCReBJ+uYVLGZTcrRClu+66G1/ce7+h2uY+udyiTf+eevlIBt3PWr0ab3fV0oYmcAs7gkEMwJ8QdZ6N2AR86YtcsCuak+9w/LD218mwHZdSy390DHlGcGGucT6ICCuNlGteY6fjBsxpUIIRRtoY+KrnseftbryTzdziglHu4tesch8u+hUdWAOHVs3OZZzuxc/zeqZ10+pfdRseGDac67nH5FqKXsqg5O7ZXLTroWbNUIOTm13NnCqojYtUj+W28eM7cqaKCeF1Wj1+5sGD8OLRifiN7VFUUDc6tGPcLzFJ8HmZM144YRncGNjrc2+UqBWEqCbP80bhcwoxU9lCSrmGiGtwG1f74yJc9Em6GpIZYVSt3xgsnzgcWgXQlSCh6RNYEvUHvIS33xiXayl6yYoK2hG7TYMG2MD5nkGMLcuLOM5PASW7Nhw7iqc/m4iljPHVAmEu7xWoQvfnOkoztZJgpvh0MysQF2f1PLtnSq+gzzPkidl4PNEDE18ic9a1ofyEIJyKbI2U3h8wiwrUFj53AhaI/z1+G4QWL66AR0AFu3LjwmJ4MhQy7L8/UTV+P5oPGAEtEugqdGo1XPUFi17qje0r/uQiHmnsk0yqibyXYUUFzg38Y/okBHFt2Wu5kJcZwemKff1o8SIM5EJfNTi+ZyxjkklmnXaLY54fLlmD6Vu2oh5Xh5cSqAoR8eK5uJgHnydxW4f4DLtza2aet68Ps8tV4KmOJ6VbiIxLZnLdJR9uJ6Hp1fF8njEcUpXh5Ut8TDuBKzykBXWC3lS5hVvPkoylJC82E08GT3gRt0C4k1PtSr2hJcJXp8SC87s5EO+PmM4TGT5k0pCYkSNn/VENCFiqkK0oH7oY94ybeQkd7e848y8dbaR76KL3ccXg0UZDkMl1kfrOxKXScTuRnf+gke9J3DPknmwTv4RBI8JPIHj/32hcryYXjjbHftGKB0n0bAWpN0nWOqknWYr0DTjbUuTnIdcRYq3YufLC92Kss+zhuLLc+XM4H8mlqdPYpl6M0w0qWZoz0XwQyeU842Kj09gRXEyMEU8l6AgQ454/dzYdE4oBA4JKMuSuBGKpoZyPCCeTXVRBxdwlSpWBHxcti+CzmGhuWpSmvfow2KBEqdKG0mqkrbWSUkFLne4Pjsffi0/iyAmGYRrM66rm5cDqgl8bF/XiqvGilcGk7AhHPXMHypThqo0u90lweZmUSsbGS36BZVxQuLRJsjNnTMH+nTu4G2dLNGrU2Oj0077hOL+EQU+ePMqGdgxlStOIdVkf4kBv/03flKSW7eNxioejhdrfM+cvY7O44wpwLgt0afOUPufKr73nTW1gl6Sgb3Vk/Tzn75VoRry6J5Dn2xzvt4HOqX+0lq3mF+s3LagjSkvztM+cdS56Cm9THtQ/XY6PKFiH4eGxmDs3jM7Yu3QjU7iEQe1vnebPQR5qrGaDiHWGh5hUUR5ZNUY+cgmoMaj8e3mos3A3cHVjdgU95Kesz6MKj0t9lq7AmD5N2YENeJTnYRZ+1ZNCweSizBrEoJnkSCK+Ag8remNlXPgZmpZ2gI9X5oA6BOFW+TMhjTmZKAAW5d+dDhVVjMHJ+JbQW7QSbrU5s+tbJk7OHWomuZJ/W5mW7z7nBPiSk0FZUm+qGCwR0GxQxyT8ZoS0mF22woZPiy1V5pFdYLEr86w6Fn4TxnTyWYxMGFQpiTmtkmIO/JJi2buh9abzQZ2COgerVC7nl6jwpliRWctod5qVWzV9LmJutHWrBEHOeLNgUN2W6iHRn3MifMkFUIlpqvKswC8pqsbD2dGW4CfaIg+irdqYFZqK2pTalurYCukp/LnTGrJgUH5veLQkxeTZsgIkPdXDWVGBKq/UL+HPhkR6rRjyQQHR1NEB5uPzAn8iBpGGlDsmKTC6SxJQm5YAyhmyaX0qhCSoVVJE+Eun5sEKh5VIo7WQ3NVhxKwXSpBfQ+aTFY4ZEUT1KvyqW7Uxs0FtWdJb7SpnyIZB9bHEvzhdNqkVoMJU52FVT+dwYlhhC1tBbzNwiqZqnIFmIMsEh9q0lW1K+KvxyJ3QyYFBVT71NOpxcpegvnAuyGFjla2gkqi3U4Va0dsKf1ECSU/HsIoV5VIdymurzsGK+hQPqfzSSnMHuWBQFURSVIxqBSiLIqqVwy4adhKjWjHsRLRFBkRD0dIKx4yIKLGJpqcAABkSSURBVMaU9LZCIxIfSRPMm18jFwzKNC84jKSeWAEyqmvysIKwKq8cZXIqWKVFKA/uDmpqjpEBK8oiBhFzWKVaq+2oDakt5V5655JBmabR81npMJJTwaphHxFUuNX75p64fDnPoLhwxdHrsMeI5x9fMoP9lYbjyHNmnPaBNA9pYGJQqzo5qyKGRETVobQHlT9v9ZkHXUPSSz1ADI/zPMwGVax6wAgeyoPZIPVE5T/HI9ZlyMPCbKkbf3OFBK6aUKECFwEzJsleijKFqyikcLa5h8elM4/E4EeOcKvBCinGXsfax6d8eatUdGle8iNIelmRB2lgDunFU9NBvKO2m/chwzxIUJVKwx5yGOWBr/WZ00AVLHtUzJq3nsg5WRB+NTTXgJjtnns4T7XeMtSsuZjHUvTsuYlLZKisjkNVpnNP/PFHKB54YAfPfVKlrZ55GOdhYUCLFsswa1YoXnppH9Pdwmd+fKZvL77HCxeD8KnN5F16OC9j0nwkwawAtVWVXbwjWuQN8sigQqDCWhW8oI5BDiuremL1hK6pbLs6yy1X45LQtGkJbNzYDV9+2RzLloXju+9OEK8Hvv32FJ566iBmzw7ndgLcRfyHkzw/g/Xrw7F/fyJeeSWYzBiMHTtiwR0iMWJEDbRpE8g1pjjXNZ4ilTBnzlneP4iPPjqOyEi7Cmw8cMkfSUu1FdEs79LDOVnSEKGV+B2aV/5U+zwyqEgm5hCTWEVwh7qSvwKrBAUDVbjUFdfgF6MGBnqgWTM/3HtvVbRsGYRNmyIxdWoYHn54Bw4fPo8bb9yE3347jX37oildk7Fly3l07rwOf/0VgrVrQ3H11f/ShvXG++8H89uoC8U9diyB3/7HSdGJGDNmP5599iDP89EELqSY04loJOkp+90K1Vb41VatGseXQBP+/I9A5KN2HEitisRQlmXw68i7ysCPCgjCKXVF+F3X6Gw22ZWcfU/7MyDAhh9/PIL69QNRujT3quGqAzt2ROPpp2uidm0/PPhgLbz4Yl3Ozg9ESEg8V2VINKSjFifgojZMx06nJO3YRli+PBw33FAO990nu8x1ZbCP96mB5qOZKaMFApXLUU9WeP9FczlVpd7mv/z5/NKhalo17CKCKxrDKikutUWE169zQUwlB09kpAfV3EhKwPNo1aoczp5NpE0ZhNtvr4qvv26Mu++uQDWX28pT5IaFxVFt3YXKlf3w3HP1jO/FxHaw/+qyTBkvTJnSHD16lMO8eWF48smdfMVV/gTVjWiU+0F5e36d9VdtRPilYruyE8oqv6KrAlwKxiMFqB2pLVJfTvKw2zc8MQnU6KS2qHc+YhLOtGiE3zHscoznBW8AYiipt9ppcdWqs6hVaynOnUtAgwYBuO228lwBLpkSbxv27o3C5s2RWLGiA9dH8jQk6euv7zMyt3p1OKZNO27sNxURkUx7Npnn8uLKBk3B0aPxGDJkG668sozxrHZtNV5X1J3oIw1Ltl/BacNE8gHCnT/HTD6QZfhEZRZviAb5lIGpKV6y7Gbq/Vz+yL7ZxUO/VlTEeeLdzSOSh9mgRhjO40Dqr64LDmvXxuDMGW4qRHKWLGlDt26qZHItK3r58khK1XPo1Kk0jxKGQ2nWrHDUrStp5WEw9s03V+Q7MXzui3//jaeTyA+hoVJ5k2mnBmH16kgeYZS2/gbje3uLQZ2TdyZEUDsQ49fjISYxG4Rfnbfwu9YMybpk0qwa8SiYGchOO8Oym1ljzOKJiHGUx2Eel47FZfGRE28L5yke+3moEZsNatzHeRzi4Rz8YkwdDuDidhdAQySyKR2/eiB12K7N6pnucOHP1HtKR9870tNzx7e6Z39f3zgTlGENhYlB5KQxG4S/Jo8aPKzEL0diwWxf8Wea6md6eQa1CI0LWhVhpAqQqqnDaJ38NROE36HKiFkLDmIaMZWcQ2mZUynbHT4Xf3VP7+gb+zM7Z+tbRzr27+zv2M/t77iGOYVBXn45n6xgDpVN452qEyvwE60hvWX7Fow5lZKggAyqJKReWemwkRGuHlv5MBvUIORCV4Xo15lQkA6nIN8WpAxyaUittSooQG1AAsMq/OoU5BeRiu8ccAKDqjFI17Zy2EMVYoW946gEMahV5XfkoTD8qh7UQK0CSU4r60G4lQcnsFUqCZ2UknpOqTUyjq3ovdVzikmkXlkBDvxyTthVSCtyYS1OaTKyu/RrBUhqqQ04f+grd6URXgkJ55bfSQyqIkjFE5NawaDCr95bqrYTi6RkcwViSocWUYCRq1zhKowvSbVzSA8r8qc6d/girMAvnNIcnD+s48TWrKTUg1nlMBJjqJLEKFZIMZVf9o/wX24gqaEGaqVjRvid45jJW+2pranNS7V1fufsRAZVsSTmq7sko0o9exCh1FDkMHKumpE93rRPHWqW8FvRSaTNi1nnapTqmKyKd5V5IektJrGC5mIhqbauKb+TGVTqrQglSWoFqDhSM0QwK1Rt4RRuq7QIojYVVF41TCuHVRyTN6yobxFbnYMOJ7OSkia4IFX1qFI3rDTW1UG4pkdjwjmA1CxJcascVjlkz6mPpdLK7rdSY1Fbswq/8KpDdt6wChNLBy5gUPVkchipkbog+XTZz+zCYRO4rlfLDGv6e7JHnOtuT59+YbhSPasjlN1vBahtWaktqZ2p7MqD68BFHCQpYqXDyOFVtMpho8Yrtc+qAXPXNZiLKUtDct282It4sjoTfklP5ztmssKY/r7qVra3ax1TLmJQFUVi3yopKvxScaV+yIlgBUiLUAOyCr8ry6xmo7oVja2w/cSU0lCs8tgLvwSQ8Lu2/C5kUCWtAqggri0EEWQCwulQQazAryyp7OpprcKvPLgCxJiSHi5sPllmW7R0jLlbgV+qrerUHBPKxSWUGqKe1iopoooUk7jOiGfi2YDKLSeKVfizyVq+H0l6qExWOQGlUkozUd1aAapTaWbmOCFdzKAioLyZYlIrpIh6O/V0UoeswE+0hhSXJDeB1ELnUlAZRE+Vxwp6CqeGsCS9rcBPtEb5RQNzwIRW43AYmdPjXEo2OYzU41ntMFKPrw7DncGhEVilEWlYo+DzLPNfAxI2Yk7zym+SC0yNU2pJNA8rJnaLOUXY8zycM7GaCeUBVH71+sKdkIfvCturKoNVqqU6WmlCrh3WyJriwi/NwTzpqbyYxKAS1CJuJI8QHlaApGg4j1ALkKv8GnYRxNt/3O6vGqhVEUNSZ9UxaJUEE5Q+YkkP0nwcjjFzVWuTGFTFlaPEwSRxumEyCL8cRpKiVuCXql+LhzuCGqVzVozIX+nFlNLArHJMSaWVgJH31lwwuTtSAcWkVoB6QTGoCG1ysS8UV3lwHLrpOC/sv1YypzoHR7sxV3qphuzOKJlI6iDMB5Nbqnoi6fBWOYyEX4S2ethD6qLyoiO7KlCDNFHJIbbCB3IMSbUVrcwGdZyOeFv9mg/ZtQ4X5UZucjGJFQ1PBFdvLClqBX6iJd65c/fhrrum4okn/jC2crjIpFob96KU2L79NN58cyliY+0r+elrB9jfu/iu4769x9d9x3Hxif0ss/sX72m1P0cetCi29aC6kmNIeTQb1JEKt5xD1oAFDCqUIrrUBisagMPZIUY1u9J98Omna7ntwvfcniGeGyMd4nYO43HoUATzIhvV01is2t55eHBd22P43/8Wcv1bD2NBa/s7opmfsfC0nbFVHpVDv96pmyR58/0UYwHri5JHHZKvsYD1xfhRfeNpvOuYEWKz+Rhpp6R4cmVAK6QWs2SAyiTHkMbQlU8rwIFfdWMNWMCgKqgKLlXXKqNf41kaMjCT8DZudBTH3cnm4NFHO3JXssewdesz6NKlFs93cSOkcC4m/Ra3ZxjHDZM+5lYPCfDx8eSymh646qqJ8PUdg+nTtxg0e/LJmfD3f5X7fb7BVeZPcZX5E6hT5z0uTP0Z92hZyl3QNnLV+Vf4/SvcGe1fgwHr1ZuAO+6YwnReweDBP3PtXC/8889RlCo1znh3+PDfKTl9MHbsIiPt0qXHUdLvIT6LmoiB1xHvy2yYDurQ1EatGj+3F9gq6hO7w2FjthRTwSWFhF/EN4cE0hZDQqK5FWASundvQLwRZIhoLF06FI8/fhV3MvuJO5pVwsGDz5J5bHjssZnc5cyX76Tgrbdu4j4qXTB8+F9cXf4Atw5cze8exaBBrdC//2RKRW9K4XC0bVuTTNjCUJ2///4WTJzYDw899AdV5CQcOBBGJq5ICT6QO6X9R6bVVhK/om/fJpg58152EruxaNEevPzyIjL8I9yQqT3T/5kSXavcm63pqE04HDPm1A8RZgBHBFyG2yZfWmWIsZiSXvLoSr3T0IfZjCr8GtcT7hgergd/f7uqduaMcHpThUzmloF7uStZBe7vGUrp1Ru1a1fCLbc0oxRcx60ZmnFPFg907Vqb20FEY/LkTdi9O8zI6P33/8gduL0oET1x/rw9/2PHXovw8EhK6kS8+upiY1HrunXLcOsH+/P77mvHZ/ZAkfDweDJtKL76aiC3K6zHbQmbMv0NRtrqLLioORm6NNVdBVaYreqqWcpPYTZeo/j8I4eQ8FvjGHLkQr8WMqjQy2EkSaZxSSsifGT8C/9xHvaGyxOXgFZ+r1SpJDcuqkG7ch436a1AFfMQVdKF+O+/EdxfpRwmTVqPm25qTlV2M5myjqHeOjKTzP0cdFSvbveA//zzg9wX9BD3YzlAldTekJKSErhxb6Cxqvzrr/fhVoX+ZPTVqFjR7rWWJExKsg+ZlCzpRZW6JHFuJIMnc7e0qZSstxjofvnlfuzceZyb/e7k1odmM4k6atWJVfG+kthyDEl4mC00iDIDWMygkiiqDEnRsxmyZsalKkBS9BwP5cHVkMgt6e/htvUzKCWnUIX1oZf2em4vWJ5q641UK38j476F5s2r4MMPb+QmSMFo374KGTUFZcv6cfvBiujTpz6GDbsCAwZ8SdvRC++91wflynlQva1CiWqjDevDjXv7chvC2ZR+iVRxO9IW9aZdW4nS1oPqqidat65EFTeJ792A0aP/Nhjx4Yc7Uoq2wPPPX81O4itj57Qnn+xqbCYsSW8eqLOxcgaUA7/FrJFK8ALubuaMapN9c4LHYR5WhMGp8Qn/QR5mSXEfMogH1VeVXZJbeNVZ+NJGTSFz8NTQKtSB6SKWR9pzLzKaFyWlhl8SDIlpVweliShNx7s8NdJW+nLIib56rkaoNCUtlL5w6x0dab+VeutazYII0oDyUYtHDR7Kh9kgnFV5KA9W4E9fXm2eVAgYVJlSw9nH4wwPNSAzQfjUEHfxkBQ3Gz9RWg5ijLTlznhtVgZl8jTiIQeNFSD8jXmoMxMNrAXxp1Uusgwll52jYQ8rhl1UEZIi1XhIslyOkJY5Vf6M12bQRCqlzA2roryE3+EYsp45HRQvJAyq7MgpoMOKLKlC5BgoaxF+or2sQfTXmKPqwKr6V9uTP8QK/ESbBRSi3Dj0f0X4WAHCLylqhRS3oryFCadobqX0lAYl/PotXFCIGFSEke2hXsxs175wC6ReqaKsdxAoN5cPyLyxagKFWED4rQj9zLmGCxmDKsMafxKjWmEHpK0s5aUYXE8BMYbUWyuGNdTG1ClrWMcK/ESbAxRCBpX0FMGsctgIv9z8hbPCmLEiBGp+MiusMmuEX8MqhdesKYQM6nAYyGi3QtUUfkeEkxVSnOgvG5BTTrS2gs6OelYerGhnuavkQsigyrgIZrXTQD2rVbawaFDUQbSV7WflsEp14rdKU8td/RZSBlXmZYdaZZs48ItJC2/vqly6L2jMUcMqVklPOSM1Y8YK/ESbSyjEDKqsiUHk3bOCiGJMOaysso+IusiCaCoGsUp6yeZUB1GImz9zJyjkOZQaJEJaNT6lilQnUewwIhGcBGpy6vjU8VoRsaSOV05Iq0YKiDoPUMgZVCVRTyuHkRVSVOSRGiRVuxicQwFHxJZVpoOcUuog3KPTdQMGFSHlMJI0s4JJpYYJv1XqGFEXGZAm5BjntqJQaktWDuHlvczu0Y0Y6pAq9jgPTYkyG6SOqWKFvxjyTwHVoYY1rOholWuHY8gN5JKyS3ATBnXYDeeY5QgeZtsuDimuX7NxE2WRADGl1FtpQlbQUMM5jtkqPHUTcBMGFTUdnrconlshRYW/pjJSDPmmgBjTCuZU52BlvG++CeYuElQFFJHlrNGk6jM8rKhoK3CyqMVQAAqozhyRYW4kj1JL7D7KuJFhORkcE6utsmNSKVf84yYUEFPKf6C1mN0P3IxBxZRy2MjZUAzFFMgNBeQYsmoieG7yl/07bsagKoyyLGPfPXtElaAYzKCAVFs5htSZWxXvW/ByuiGDSorKYaNAZzfMfsHrrDiFXFHA4bOQ/em+4KYtXMMuGk/T4c7g6OXVwysQQuq7M0F0UiTU5QiipZyKVoWJOofmbsqgKrwIrwgfxeu6J6SkeOPjj39CzZo3cSOk6/HII68hMlJDSOr901ZN2nMxnZ4L9Jv2sL9n30rFC7t2HcEVVwwy9nqx39NzR1qO75SO417Gc127I8gxpGEV95aeonzamtG1G4EamGZFqCLcEby4ivsX3BBpAkaNGsI9Ul7EtGnzuWHRK8bOYydOKCBD1WPDsWPnuEq8FqnWjmR7Uvda8UF0dDw3N4pDWFgMjhw5y/1bzhvfaOvB48fDuXNZADdT6m6sTG+z+WPbtmPYseME3wnkN9E4fVpjyjacOhWBqKhE4k0xcCUlSbK7KyjvcgrJOeTGzTuV/G5eAkdPKXVGDOs+EB+fiClT/uYGSdeQSe/CwIE98eWX/8Off64ko85D1ao3Ijg4AjNmrOK+LQPIROe5sdIt3JZhBKVtbyxZsoV7qfzNjZfu5CZHA/HZZz9x75cbyLCJ+OSTP7iFxJ3cKe0U94H5ikTx5nYRb6Fdu8Fo0+Zunr/BdJehXr2bufOZP5o0uZN5eB+//LKS57dzpXr31Urs/gkxp/wU7g/uN3KbjuZiSk0bkqq7L92TwnyhTYzi41PIHPFkvmqUjFHG9g0NG9Y2st28eW1uiOSDlSu3cHOj3/DwwwO5NeB/VH+jsXr1FEreCdyT5Tvu83kdtzQMw4YN33M/l/rc32UGFixYy71W1uDaa9vBz8/X2J0sJiYan3/+O/cKfZ1bSyRg6NBXsH37b0wvFuvXbyFOD0rXA4ZE7ty5BSWue3V2F+ta0tPhm3DXMlwsjc7cXII6iuCYwpS+cIX1iiv6GxsZBQX5k1EOkDmlqpfijtrbjCw3aFAXPXt2xNdf/0om3U61ty+l4T5js6Tx47/lrmRlcc01bcngCZSCVblxUktukOTFzY+6UlWewU19d2PEiEFkfLuqeupUqJHu/PkrsG7dJjL8TZS6pbgfaV3uPfoV9ycdaDD/woXr0K9fN34XX1hJl0O+REcNq7i3YyhtIYsAg6o48oLKFnUfhUA7kw0ffjv3B11lOIfeeusz7rz9Dnc+u5E7ipXCmDH3YfHijWRkT+5qVo87kjWjjXmOu6J1x+HDJ2mHRhp7h2pLQiCZTBXLDXlvxPz56yk5fbh9YYcLDFqtWhXao4HchrAs1eSqWLt2B3dC86aUbUtpu5aMfRVx+hnp33BD59TNmJisW4Gasry26qyLDni+QnD/4kidUa8piRHpJsVJ5pb1rQwpNn/+GqqY+7mr9i0YN+5hMl4cbdDKdNzE4c47r0OnTg3RsGFVSs4K+OKL37hHaCW89NKD3Oszkft3BlGatiZTJfF+BW7gG0Mb82bakjWozsYZG/b269cZvXp1YmewEvv2HcELLzxA29Wenuh2++09ab+WpbpdnTZxd9LPzO0GnVVdGk7ScqnubD+np8WrhEKyu1n6jOX/Sp7PPTzkzXQXG0QdizQA5TeeUi+azKZzdTZS2bT9XwwPgcZKdeiZyqrGqGt1So7y6hupqLE8pFHIRte7kjAOZ5roo3T1XBFZ+l5pKS9p0+KlW4BoIObU8jQOOrhFxrPNpHY3K2IMqkYXzONwtgV3n4dixLw2uIzfZLzOWPqcnmd8v7Bdiz6yO+vyEKMWHRB/FhEb1FEpGsSXi70cj7w2bEcahek3P2XI+E3G64zly+l5xvcL27XD/1C0mNNB5SLGoCqW1Lii5clzVFbxb0YKqPlqQbmi5RhKW8oiyKAqnipMFVcMRZcCkvyytzXXU5pT0YQiyqBSdyRFpf4UQ9GkgJhSQQnSmIouFFEGVYVJiopJi3ARVczLEhzSU/OCizYU4darHlbOIs1okKeyGIoOBTQkJNW26Ix5ZlU3RZhBVWTZKGLSol+RKu3lAWqy0o7krXd3D3TONVbEGVQVqIpUhRb9ysy5uovCGwqsUEBCEW+6qVV1GZRS047EpEVj+lFqvV2mPw7HkDSjywPcJ7q8QPUhb5/C3U7w0IoFxeB+FJAsEWPKMXT5aEOXCYOqmI6VFxJ4XgzuRwExqDray2vorIjF4mbX7OTJVayuO87UyK5cl8szSU2puJeBVZZapYrFvUwkqEqsCr6MiptaycU/7k2By6c7cu96Ks79ZUqBYga9TCu+uNjuQYH/B5R6xFSzBkYyAAAAAElFTkSuQmCC;" vertex="1" parent="1">
          <mxGeometry x="20" y="270" width="232" height="192" as="geometry" />
        </mxCell>
        <mxCell id="PPjeURecZjyMbBaoV5Rf-1" value="" style="group" vertex="1" connectable="0" parent="1">
          <mxGeometry x="330" y="200" width="150" height="137.29" as="geometry" />
        </mxCell>
        <mxCell id="JGSg9MwZ06sRN_Ewh7sd-1" value="" style="group" parent="PPjeURecZjyMbBaoV5Rf-1" vertex="1" connectable="0">
          <mxGeometry width="150" height="130" as="geometry" />
        </mxCell>
        <mxCell id="JGSg9MwZ06sRN_Ewh7sd-2" value="" style="triangle;whiteSpace=wrap;html=1;rotation=90;fillColor=#99FF99;" parent="JGSg9MwZ06sRN_Ewh7sd-1" vertex="1">
          <mxGeometry x="44.17033175079369" y="-7.7910077946212" width="61.51079136690647" height="78.73771873978352" as="geometry" />
        </mxCell>
        <mxCell id="JGSg9MwZ06sRN_Ewh7sd-3" value="" style="triangle;whiteSpace=wrap;html=1;rotation=90;fillColor=#66FF66;" parent="JGSg9MwZ06sRN_Ewh7sd-1" vertex="1">
          <mxGeometry x="52.33157603471877" y="9.432868179706452" width="44.751405353450025" height="61.290156064490596" as="geometry" />
        </mxCell>
        <mxCell id="JGSg9MwZ06sRN_Ewh7sd-4" value="" style="triangle;whiteSpace=wrap;html=1;rotation=-90;fillColor=#66B2FF;" parent="JGSg9MwZ06sRN_Ewh7sd-1" vertex="1">
          <mxGeometry x="82.79206594238777" y="-5.106767383037669" width="61.51079136690647" height="73.36923791661648" as="geometry" />
        </mxCell>
        <mxCell id="JGSg9MwZ06sRN_Ewh7sd-5" value="" style="triangle;whiteSpace=wrap;html=1;rotation=-90;fillColor=#FF9999;" parent="JGSg9MwZ06sRN_Ewh7sd-1" vertex="1">
          <mxGeometry x="5.815105001019428" y="-5.191768329404479" width="61.51079136690647" height="73.36923791661648" as="geometry" />
        </mxCell>
        <mxCell id="JGSg9MwZ06sRN_Ewh7sd-6" value="" style="triangle;whiteSpace=wrap;html=1;rotation=-90;fillColor=#FF6666;" parent="JGSg9MwZ06sRN_Ewh7sd-1" vertex="1">
          <mxGeometry x="23.810910785541605" y="12.340795292255276" width="44.751405353450025" height="55.47430183939296" as="geometry" />
        </mxCell>
        <mxCell id="JGSg9MwZ06sRN_Ewh7sd-7" value="" style="triangle;whiteSpace=wrap;html=1;rotation=-90;fillColor=#3399FF;" parent="JGSg9MwZ06sRN_Ewh7sd-1" vertex="1">
          <mxGeometry x="81.48137360556899" y="12.340795292255276" width="44.751405353450025" height="55.47430183939296" as="geometry" />
        </mxCell>
        <mxCell id="JGSg9MwZ06sRN_Ewh7sd-9" value="" style="triangle;whiteSpace=wrap;html=1;rotation=-90;fillColor=#FF0000;" parent="JGSg9MwZ06sRN_Ewh7sd-1" vertex="1">
          <mxGeometry x="43.72032738181923" y="31.57785157527057" width="26.21384673637608" height="35.789872154447075" as="geometry" />
        </mxCell>
        <mxCell id="JGSg9MwZ06sRN_Ewh7sd-10" value="" style="triangle;whiteSpace=wrap;html=1;rotation=-90;fillColor=#0066CC;" parent="JGSg9MwZ06sRN_Ewh7sd-1" vertex="1">
          <mxGeometry x="79.73378382314391" y="31.57785157527057" width="26.21384673637608" height="35.789872154447075" as="geometry" />
        </mxCell>
        <mxCell id="JGSg9MwZ06sRN_Ewh7sd-11" value="" style="triangle;whiteSpace=wrap;html=1;rotation=90;fillColor=#00CC00;" parent="JGSg9MwZ06sRN_Ewh7sd-1" vertex="1">
          <mxGeometry x="61.820988553286924" y="31.57785157527057" width="26.21384673637608" height="35.789872154447075" as="geometry" />
        </mxCell>
        <mxCell id="gPWZ-nNDqj9K9enbtYil-61" value="" style="group" vertex="1" connectable="0" parent="PPjeURecZjyMbBaoV5Rf-1">
          <mxGeometry y="60" width="150" height="77.28999999999999" as="geometry" />
        </mxCell>
        <mxCell id="gPWZ-nNDqj9K9enbtYil-62" value="" style="triangle;whiteSpace=wrap;html=1;rotation=90;fillColor=#FFFFCC;direction=west;strokeColor=none;" vertex="1" parent="gPWZ-nNDqj9K9enbtYil-61">
          <mxGeometry x="46.23" y="-3.96" width="59.73" height="78.27" as="geometry" />
        </mxCell>
        <mxCell id="gPWZ-nNDqj9K9enbtYil-63" value="" style="triangle;whiteSpace=wrap;html=1;rotation=90;fillColor=#FFFF99;direction=west;strokeColor=none;" vertex="1" parent="gPWZ-nNDqj9K9enbtYil-61">
          <mxGeometry x="52.22515903910487" y="-9.005827391273627" width="44.64835728476408" height="69.65266235547418" as="geometry" />
        </mxCell>
        <mxCell id="gPWZ-nNDqj9K9enbtYil-64" value="" style="triangle;whiteSpace=wrap;html=1;rotation=-90;fillColor=#FFFFCC;direction=west;strokeColor=none;" vertex="1" parent="gPWZ-nNDqj9K9enbtYil-61">
          <mxGeometry x="82.71527798438272" y="-6.641615403102972" width="61.36915183170883" height="83.3798293890348" as="geometry" />
        </mxCell>
        <mxCell id="gPWZ-nNDqj9K9enbtYil-65" value="" style="triangle;whiteSpace=wrap;html=1;rotation=-90;fillColor=#FFFFCC;direction=west;strokeColor=none;" vertex="1" parent="gPWZ-nNDqj9K9enbtYil-61">
          <mxGeometry x="5.9155701839084145" y="-6.738213985931838" width="61.36915183170883" height="83.3798293890348" as="geometry" />
        </mxCell>
        <mxCell id="gPWZ-nNDqj9K9enbtYil-66" value="" style="triangle;whiteSpace=wrap;html=1;rotation=-90;fillColor=#FFFF99;direction=west;strokeColor=none;" vertex="1" parent="gPWZ-nNDqj9K9enbtYil-61">
          <mxGeometry x="25.750365713115638" y="-5.70113903134239" width="44.64835728476408" height="63.04328563561168" as="geometry" />
        </mxCell>
        <mxCell id="gPWZ-nNDqj9K9enbtYil-67" value="" style="triangle;whiteSpace=wrap;html=1;rotation=-90;fillColor=#FFFF99;direction=west;strokeColor=none;" vertex="1" parent="gPWZ-nNDqj9K9enbtYil-61">
          <mxGeometry x="78.17" y="-7.85" width="44.65" height="67.34" as="geometry" />
        </mxCell>
        <mxCell id="gPWZ-nNDqj9K9enbtYil-68" value="" style="triangle;whiteSpace=wrap;html=1;rotation=-90;fillColor=#FFFF00;direction=west;strokeColor=none;" vertex="1" parent="gPWZ-nNDqj9K9enbtYil-61">
          <mxGeometry x="43.733509049730294" y="-4.204756847075679" width="26.153484692822857" height="40.67308750684625" as="geometry" />
        </mxCell>
        <mxCell id="gPWZ-nNDqj9K9enbtYil-69" value="" style="triangle;whiteSpace=wrap;html=1;rotation=-90;fillColor=#FFFF00;direction=west;strokeColor=none;" vertex="1" parent="gPWZ-nNDqj9K9enbtYil-61">
          <mxGeometry x="79.66403810355335" y="-4.204756847075679" width="26.153484692822857" height="40.67308750684625" as="geometry" />
        </mxCell>
        <mxCell id="gPWZ-nNDqj9K9enbtYil-70" value="" style="triangle;whiteSpace=wrap;html=1;rotation=90;fillColor=#FFFF00;direction=west;strokeColor=none;" vertex="1" parent="gPWZ-nNDqj9K9enbtYil-61">
          <mxGeometry x="61.79249023012446" y="-4.204756847075679" width="26.153484692822857" height="40.67308750684625" as="geometry" />
        </mxCell>
      </root>
    </mxGraphModel>
  </diagram>
  <diagram name="Use cases viewpoints" id="1_CW5DcqGxAJN80kr8iA">
    <mxGraphModel dx="1234" dy="711" grid="1" gridSize="10" guides="1" tooltips="1" connect="1" arrows="1" fold="1" page="1" pageScale="1" pageWidth="827" pageHeight="1169" math="0" shadow="0">
      <root>
        <mxCell id="0" />
        <mxCell id="1" parent="0" />
        <mxCell id="K83R744B5iziX81gQ6Zg-42" value="" style="rounded=0;whiteSpace=wrap;html=1;align=left;" parent="1" vertex="1">
          <mxGeometry x="584" y="818" width="160" height="140" as="geometry" />
        </mxCell>
        <mxCell id="K83R744B5iziX81gQ6Zg-29" value="&lt;font style=&quot;&quot;&gt;&lt;span style=&quot;font-size: 15px;&quot;&gt;&lt;b&gt;&amp;nbsp;eIDAS2 Framework&amp;nbsp;Viewpoint&lt;/b&gt;&lt;/span&gt;&lt;/font&gt;" style="rounded=0;whiteSpace=wrap;html=1;align=left;" parent="1" vertex="1">
          <mxGeometry x="84" y="698" width="660" height="30" as="geometry" />
        </mxCell>
        <mxCell id="K83R744B5iziX81gQ6Zg-30" value="&amp;nbsp;Stakeholders" style="rounded=0;whiteSpace=wrap;html=1;align=left;" parent="1" vertex="1">
          <mxGeometry x="84" y="728" width="130" height="30" as="geometry" />
        </mxCell>
        <mxCell id="K83R744B5iziX81gQ6Zg-31" value="&amp;nbsp;Concerns" style="rounded=0;whiteSpace=wrap;html=1;align=left;" parent="1" vertex="1">
          <mxGeometry x="84" y="758" width="130" height="60" as="geometry" />
        </mxCell>
        <mxCell id="K83R744B5iziX81gQ6Zg-32" value="&amp;nbsp;Purpose" style="rounded=0;whiteSpace=wrap;html=1;align=left;" parent="1" vertex="1">
          <mxGeometry x="84" y="818" width="130" height="60" as="geometry" />
        </mxCell>
        <mxCell id="K83R744B5iziX81gQ6Zg-33" value="&amp;nbsp;Abstraction Level" style="rounded=0;whiteSpace=wrap;html=1;align=left;" parent="1" vertex="1">
          <mxGeometry x="84" y="878" width="130" height="80" as="geometry" />
        </mxCell>
        <mxCell id="K83R744B5iziX81gQ6Zg-35" value="&lt;ol&gt;&lt;li&gt;AMA&lt;/li&gt;&lt;/ol&gt;" style="rounded=0;whiteSpace=wrap;html=1;align=left;" parent="1" vertex="1">
          <mxGeometry x="214" y="728" width="530" height="30" as="geometry" />
        </mxCell>
        <mxCell id="K83R744B5iziX81gQ6Zg-36" value="&lt;ol&gt;&lt;li&gt;Compliance with the eIDAS2 regulation at the national level&lt;/li&gt;&lt;li&gt;eIDAS2 Portugal environmental context&lt;/li&gt;&lt;li&gt;Major Portuguese actors and roles for eIDAS2&lt;/li&gt;&lt;/ol&gt;" style="rounded=0;whiteSpace=wrap;html=1;align=left;" parent="1" vertex="1">
          <mxGeometry x="214" y="758" width="530" height="60" as="geometry" />
        </mxCell>
        <mxCell id="K83R744B5iziX81gQ6Zg-37" value="&amp;nbsp;Informing" style="rounded=0;whiteSpace=wrap;html=1;align=left;" parent="1" vertex="1">
          <mxGeometry x="214" y="818" width="370" height="60" as="geometry" />
        </mxCell>
        <mxCell id="K83R744B5iziX81gQ6Zg-38" value="&amp;nbsp;Layer&lt;span style=&quot;color: rgba(0, 0, 0, 0); font-family: monospace; font-size: 0px; text-wrap-mode: nowrap;&quot;&gt;%3CmxGraphModel%3E%3Croot%3E%3CmxCell%20id%3D%220%22%2F%3E%3CmxCell%20id%3D%221%22%20parent%3D%220%22%2F%3E%3CmxCell%20id%3D%222%22%20value%3D%22Abstraction%20Level%22%20style%3D%22rounded%3D0%3BwhiteSpace%3Dwrap%3Bhtml%3D1%3Balign%3Dleft%3B%22%20vertex%3D%221%22%20parent%3D%221%22%3E%3CmxGeometry%20x%3D%22180%22%20y%3D%22350%22%20width%3D%22130%22%20height%3D%2230%22%20as%3D%22geometry%22%2F%3E%3C%2FmxCell%3E%3C%2Froot%3E%3C%2FmxGraphModel%3E&lt;/span&gt;" style="rounded=0;whiteSpace=wrap;html=1;align=left;" parent="1" vertex="1">
          <mxGeometry x="84" y="958" width="130" height="30" as="geometry" />
        </mxCell>
        <mxCell id="K83R744B5iziX81gQ6Zg-39" value="&amp;nbsp;Aspects" style="rounded=0;whiteSpace=wrap;html=1;align=left;" parent="1" vertex="1">
          <mxGeometry x="84" y="988" width="130" height="30" as="geometry" />
        </mxCell>
        <mxCell id="K83R744B5iziX81gQ6Zg-40" value="&amp;nbsp;Business" style="rounded=0;whiteSpace=wrap;html=1;align=left;" parent="1" vertex="1">
          <mxGeometry x="214" y="958" width="530" height="30" as="geometry" />
        </mxCell>
        <mxCell id="K83R744B5iziX81gQ6Zg-41" value="&amp;nbsp;Active structure, Behavior, Passive structure" style="rounded=0;whiteSpace=wrap;html=1;align=left;" parent="1" vertex="1">
          <mxGeometry x="214" y="988" width="530" height="30" as="geometry" />
        </mxCell>
        <mxCell id="K83R744B5iziX81gQ6Zg-44" value="&lt;div&gt;&lt;span style=&quot;white-space: pre; white-space: normal;&quot;&gt;&#x9;&lt;/span&gt;&lt;/div&gt;&lt;div&gt;&amp;nbsp;Coherence&lt;/div&gt;" style="rounded=0;whiteSpace=wrap;html=1;align=left;" parent="1" vertex="1">
          <mxGeometry x="214" y="878" width="370" height="80" as="geometry" />
        </mxCell>
        <mxCell id="iHz7dQI3Pa_baAJKdj8r-1" value="" style="rounded=0;whiteSpace=wrap;html=1;align=left;" parent="1" vertex="1">
          <mxGeometry x="584" y="1148" width="160" height="140" as="geometry" />
        </mxCell>
        <mxCell id="iHz7dQI3Pa_baAJKdj8r-2" value="&lt;font style=&quot;&quot;&gt;&lt;b style=&quot;font-size: 15px;&quot;&gt;&amp;nbsp;&lt;/b&gt;&lt;span style=&quot;font-size: 15px;&quot;&gt;&lt;b&gt;AMA&lt;/b&gt;&lt;/span&gt;&lt;b style=&quot;font-size: 15px;&quot;&gt;&amp;nbsp;Viewpoint&lt;/b&gt;&lt;/font&gt;" style="rounded=0;whiteSpace=wrap;html=1;align=left;" parent="1" vertex="1">
          <mxGeometry x="84" y="1028" width="660" height="30" as="geometry" />
        </mxCell>
        <mxCell id="iHz7dQI3Pa_baAJKdj8r-3" value="&amp;nbsp;Stakeholders" style="rounded=0;whiteSpace=wrap;html=1;align=left;" parent="1" vertex="1">
          <mxGeometry x="84" y="1058" width="130" height="30" as="geometry" />
        </mxCell>
        <mxCell id="iHz7dQI3Pa_baAJKdj8r-4" value="&amp;nbsp;Concerns" style="rounded=0;whiteSpace=wrap;html=1;align=left;" parent="1" vertex="1">
          <mxGeometry x="84" y="1088" width="130" height="60" as="geometry" />
        </mxCell>
        <mxCell id="iHz7dQI3Pa_baAJKdj8r-5" value="&amp;nbsp;Purpose" style="rounded=0;whiteSpace=wrap;html=1;align=left;" parent="1" vertex="1">
          <mxGeometry x="84" y="1148" width="130" height="60" as="geometry" />
        </mxCell>
        <mxCell id="iHz7dQI3Pa_baAJKdj8r-6" value="&amp;nbsp;Abstraction Level" style="rounded=0;whiteSpace=wrap;html=1;align=left;" parent="1" vertex="1">
          <mxGeometry x="84" y="1208" width="130" height="80" as="geometry" />
        </mxCell>
        <mxCell id="iHz7dQI3Pa_baAJKdj8r-7" value="&lt;ol&gt;&lt;li&gt;AMA&lt;/li&gt;&lt;/ol&gt;" style="rounded=0;whiteSpace=wrap;html=1;align=left;" parent="1" vertex="1">
          <mxGeometry x="214" y="1058" width="530" height="30" as="geometry" />
        </mxCell>
        <mxCell id="iHz7dQI3Pa_baAJKdj8r-8" value="&lt;ol&gt;&lt;li&gt;AMA general overview and major motivations&lt;/li&gt;&lt;li&gt;Alignment of AMA’s mission with eIDAS2 and Digital Wallet adoption in Portugal&lt;/li&gt;&lt;li&gt;&lt;span style=&quot;background-color: transparent; color: light-dark(rgb(0, 0, 0), rgb(255, 255, 255));&quot;&gt;AMA&#39;s digital identity key systems (e.g., Autenticação.Gov, Chave Móvel Digital, etc.)&lt;/span&gt;&lt;/li&gt;&lt;/ol&gt;" style="rounded=0;whiteSpace=wrap;html=1;align=left;" parent="1" vertex="1">
          <mxGeometry x="214" y="1088" width="530" height="60" as="geometry" />
        </mxCell>
        <mxCell id="iHz7dQI3Pa_baAJKdj8r-9" value="&amp;nbsp;Informing" style="rounded=0;whiteSpace=wrap;html=1;align=left;" parent="1" vertex="1">
          <mxGeometry x="214" y="1148" width="370" height="60" as="geometry" />
        </mxCell>
        <mxCell id="iHz7dQI3Pa_baAJKdj8r-10" value="&amp;nbsp;Layer&lt;span style=&quot;color: rgba(0, 0, 0, 0); font-family: monospace; font-size: 0px; text-wrap-mode: nowrap;&quot;&gt;%3CmxGraphModel%3E%3Croot%3E%3CmxCell%20id%3D%220%22%2F%3E%3CmxCell%20id%3D%221%22%20parent%3D%220%22%2F%3E%3CmxCell%20id%3D%222%22%20value%3D%22Abstraction%20Level%22%20style%3D%22rounded%3D0%3BwhiteSpace%3Dwrap%3Bhtml%3D1%3Balign%3Dleft%3B%22%20vertex%3D%221%22%20parent%3D%221%22%3E%3CmxGeometry%20x%3D%22180%22%20y%3D%22350%22%20width%3D%22130%22%20height%3D%2230%22%20as%3D%22geometry%22%2F%3E%3C%2FmxCell%3E%3C%2Froot%3E%3C%2FmxGraphModel%3E&lt;/span&gt;" style="rounded=0;whiteSpace=wrap;html=1;align=left;" parent="1" vertex="1">
          <mxGeometry x="84" y="1288" width="130" height="30" as="geometry" />
        </mxCell>
        <mxCell id="iHz7dQI3Pa_baAJKdj8r-11" value="&amp;nbsp;Aspects" style="rounded=0;whiteSpace=wrap;html=1;align=left;" parent="1" vertex="1">
          <mxGeometry x="84" y="1318" width="130" height="30" as="geometry" />
        </mxCell>
        <mxCell id="iHz7dQI3Pa_baAJKdj8r-12" value="&amp;nbsp;Business, Application" style="rounded=0;whiteSpace=wrap;html=1;align=left;" parent="1" vertex="1">
          <mxGeometry x="214" y="1288" width="530" height="30" as="geometry" />
        </mxCell>
        <mxCell id="iHz7dQI3Pa_baAJKdj8r-13" value="&amp;nbsp;Active structure, Behavior, Passive structure, Motivation" style="rounded=0;whiteSpace=wrap;html=1;align=left;" parent="1" vertex="1">
          <mxGeometry x="214" y="1318" width="530" height="30" as="geometry" />
        </mxCell>
        <mxCell id="iHz7dQI3Pa_baAJKdj8r-14" value="&lt;div&gt;&lt;span style=&quot;white-space: pre; white-space: normal;&quot;&gt;&#x9;&lt;/span&gt;&lt;/div&gt;&lt;div&gt;&amp;nbsp;Overview&lt;/div&gt;" style="rounded=0;whiteSpace=wrap;html=1;align=left;" parent="1" vertex="1">
          <mxGeometry x="214" y="1208" width="370" height="80" as="geometry" />
        </mxCell>
        <mxCell id="iHz7dQI3Pa_baAJKdj8r-15" value="" style="group" parent="1" vertex="1" connectable="0">
          <mxGeometry x="589" y="1154" width="150" height="137.29" as="geometry" />
        </mxCell>
        <mxCell id="iHz7dQI3Pa_baAJKdj8r-16" value="" style="group" parent="iHz7dQI3Pa_baAJKdj8r-15" vertex="1" connectable="0">
          <mxGeometry width="150" height="130" as="geometry" />
        </mxCell>
        <mxCell id="iHz7dQI3Pa_baAJKdj8r-17" value="" style="triangle;whiteSpace=wrap;html=1;rotation=90;fillColor=#99FF99;" parent="iHz7dQI3Pa_baAJKdj8r-16" vertex="1">
          <mxGeometry x="44.17033175079369" y="-7.7910077946212" width="61.51079136690647" height="78.73771873978352" as="geometry" />
        </mxCell>
        <mxCell id="iHz7dQI3Pa_baAJKdj8r-18" value="" style="triangle;whiteSpace=wrap;html=1;rotation=90;fillColor=#66FF66;" parent="iHz7dQI3Pa_baAJKdj8r-16" vertex="1">
          <mxGeometry x="52.33157603471877" y="9.432868179706452" width="44.751405353450025" height="61.290156064490596" as="geometry" />
        </mxCell>
        <mxCell id="iHz7dQI3Pa_baAJKdj8r-19" value="" style="triangle;whiteSpace=wrap;html=1;rotation=-90;fillColor=#66B2FF;" parent="iHz7dQI3Pa_baAJKdj8r-16" vertex="1">
          <mxGeometry x="82.79206594238777" y="-5.106767383037669" width="61.51079136690647" height="73.36923791661648" as="geometry" />
        </mxCell>
        <mxCell id="iHz7dQI3Pa_baAJKdj8r-20" value="" style="triangle;whiteSpace=wrap;html=1;rotation=-90;fillColor=#FF9999;" parent="iHz7dQI3Pa_baAJKdj8r-16" vertex="1">
          <mxGeometry x="5.815105001019428" y="-5.191768329404479" width="61.51079136690647" height="73.36923791661648" as="geometry" />
        </mxCell>
        <mxCell id="iHz7dQI3Pa_baAJKdj8r-21" value="" style="triangle;whiteSpace=wrap;html=1;rotation=-90;fillColor=#FF6666;" parent="iHz7dQI3Pa_baAJKdj8r-16" vertex="1">
          <mxGeometry x="23.810910785541605" y="12.340795292255276" width="44.751405353450025" height="55.47430183939296" as="geometry" />
        </mxCell>
        <mxCell id="iHz7dQI3Pa_baAJKdj8r-22" value="" style="triangle;whiteSpace=wrap;html=1;rotation=-90;fillColor=#000000;" parent="iHz7dQI3Pa_baAJKdj8r-16" vertex="1">
          <mxGeometry x="81.48137360556899" y="12.340795292255276" width="44.751405353450025" height="55.47430183939296" as="geometry" />
        </mxCell>
        <mxCell id="iHz7dQI3Pa_baAJKdj8r-23" value="" style="triangle;whiteSpace=wrap;html=1;rotation=-90;fillColor=#FF0000;" parent="iHz7dQI3Pa_baAJKdj8r-16" vertex="1">
          <mxGeometry x="43.72032738181923" y="31.57785157527057" width="26.21384673637608" height="35.789872154447075" as="geometry" />
        </mxCell>
        <mxCell id="iHz7dQI3Pa_baAJKdj8r-24" value="" style="triangle;whiteSpace=wrap;html=1;rotation=-90;fillColor=#0066CC;" parent="iHz7dQI3Pa_baAJKdj8r-16" vertex="1">
          <mxGeometry x="79.73378382314391" y="31.57785157527057" width="26.21384673637608" height="35.789872154447075" as="geometry" />
        </mxCell>
        <mxCell id="iHz7dQI3Pa_baAJKdj8r-25" value="" style="triangle;whiteSpace=wrap;html=1;rotation=90;fillColor=#00CC00;" parent="iHz7dQI3Pa_baAJKdj8r-16" vertex="1">
          <mxGeometry x="61.820988553286924" y="31.57785157527057" width="26.21384673637608" height="35.789872154447075" as="geometry" />
        </mxCell>
        <mxCell id="iHz7dQI3Pa_baAJKdj8r-26" value="" style="group" parent="iHz7dQI3Pa_baAJKdj8r-15" vertex="1" connectable="0">
          <mxGeometry y="60" width="150" height="77.28999999999999" as="geometry" />
        </mxCell>
        <mxCell id="iHz7dQI3Pa_baAJKdj8r-27" value="" style="triangle;whiteSpace=wrap;html=1;rotation=90;fillColor=#FFFFCC;direction=west;strokeColor=none;" parent="iHz7dQI3Pa_baAJKdj8r-26" vertex="1">
          <mxGeometry x="46.23" y="-3.96" width="59.73" height="78.27" as="geometry" />
        </mxCell>
        <mxCell id="iHz7dQI3Pa_baAJKdj8r-28" value="" style="triangle;whiteSpace=wrap;html=1;rotation=90;fillColor=#FFFF99;direction=west;strokeColor=none;" parent="iHz7dQI3Pa_baAJKdj8r-26" vertex="1">
          <mxGeometry x="52.22515903910487" y="-9.005827391273627" width="44.64835728476408" height="69.65266235547418" as="geometry" />
        </mxCell>
        <mxCell id="iHz7dQI3Pa_baAJKdj8r-29" value="" style="triangle;whiteSpace=wrap;html=1;rotation=-90;fillColor=#FFFFCC;direction=west;strokeColor=none;" parent="iHz7dQI3Pa_baAJKdj8r-26" vertex="1">
          <mxGeometry x="82.71527798438272" y="-6.641615403102972" width="61.36915183170883" height="83.3798293890348" as="geometry" />
        </mxCell>
        <mxCell id="iHz7dQI3Pa_baAJKdj8r-30" value="" style="triangle;whiteSpace=wrap;html=1;rotation=-90;fillColor=#FFFFCC;direction=west;strokeColor=none;" parent="iHz7dQI3Pa_baAJKdj8r-26" vertex="1">
          <mxGeometry x="5.9155701839084145" y="-6.738213985931838" width="61.36915183170883" height="83.3798293890348" as="geometry" />
        </mxCell>
        <mxCell id="iHz7dQI3Pa_baAJKdj8r-31" value="" style="triangle;whiteSpace=wrap;html=1;rotation=-90;fillColor=#FFFF99;direction=west;strokeColor=none;" parent="iHz7dQI3Pa_baAJKdj8r-26" vertex="1">
          <mxGeometry x="25.750365713115638" y="-5.70113903134239" width="44.64835728476408" height="63.04328563561168" as="geometry" />
        </mxCell>
        <mxCell id="iHz7dQI3Pa_baAJKdj8r-32" value="" style="triangle;whiteSpace=wrap;html=1;rotation=-90;fillColor=#FFFF99;direction=west;strokeColor=none;" parent="iHz7dQI3Pa_baAJKdj8r-26" vertex="1">
          <mxGeometry x="78.17" y="-7.85" width="44.65" height="67.34" as="geometry" />
        </mxCell>
        <mxCell id="iHz7dQI3Pa_baAJKdj8r-33" value="" style="triangle;whiteSpace=wrap;html=1;rotation=-90;fillColor=#FFFF00;direction=west;strokeColor=none;" parent="iHz7dQI3Pa_baAJKdj8r-26" vertex="1">
          <mxGeometry x="43.733509049730294" y="-4.204756847075679" width="26.153484692822857" height="40.67308750684625" as="geometry" />
        </mxCell>
        <mxCell id="iHz7dQI3Pa_baAJKdj8r-34" value="" style="triangle;whiteSpace=wrap;html=1;rotation=-90;fillColor=#FFFF00;direction=west;strokeColor=none;" parent="iHz7dQI3Pa_baAJKdj8r-26" vertex="1">
          <mxGeometry x="79.66403810355335" y="-4.204756847075679" width="26.153484692822857" height="40.67308750684625" as="geometry" />
        </mxCell>
        <mxCell id="iHz7dQI3Pa_baAJKdj8r-35" value="" style="triangle;whiteSpace=wrap;html=1;rotation=90;fillColor=#FFFF00;direction=west;strokeColor=none;" parent="iHz7dQI3Pa_baAJKdj8r-26" vertex="1">
          <mxGeometry x="61.79249023012446" y="-4.204756847075679" width="26.153484692822857" height="40.67308750684625" as="geometry" />
        </mxCell>
        <mxCell id="ZWi5pZssSYx5xVi0Pu_A-1" value="" style="group" parent="1" vertex="1" connectable="0">
          <mxGeometry x="589" y="822" width="150" height="137.29" as="geometry" />
        </mxCell>
        <mxCell id="ZWi5pZssSYx5xVi0Pu_A-2" value="" style="group" parent="ZWi5pZssSYx5xVi0Pu_A-1" vertex="1" connectable="0">
          <mxGeometry width="150" height="130" as="geometry" />
        </mxCell>
        <mxCell id="ZWi5pZssSYx5xVi0Pu_A-3" value="" style="triangle;whiteSpace=wrap;html=1;rotation=90;fillColor=#99FF99;" parent="ZWi5pZssSYx5xVi0Pu_A-2" vertex="1">
          <mxGeometry x="44.17033175079369" y="-7.7910077946212" width="61.51079136690647" height="78.73771873978352" as="geometry" />
        </mxCell>
        <mxCell id="ZWi5pZssSYx5xVi0Pu_A-4" value="" style="triangle;whiteSpace=wrap;html=1;rotation=90;fillColor=#66FF66;" parent="ZWi5pZssSYx5xVi0Pu_A-2" vertex="1">
          <mxGeometry x="52.33157603471877" y="9.432868179706452" width="44.751405353450025" height="61.290156064490596" as="geometry" />
        </mxCell>
        <mxCell id="ZWi5pZssSYx5xVi0Pu_A-5" value="" style="triangle;whiteSpace=wrap;html=1;rotation=-90;fillColor=#000000;" parent="ZWi5pZssSYx5xVi0Pu_A-2" vertex="1">
          <mxGeometry x="82.79206594238777" y="-5.106767383037669" width="61.51079136690647" height="73.36923791661648" as="geometry" />
        </mxCell>
        <mxCell id="ZWi5pZssSYx5xVi0Pu_A-6" value="" style="triangle;whiteSpace=wrap;html=1;rotation=-90;fillColor=#FF9999;" parent="ZWi5pZssSYx5xVi0Pu_A-2" vertex="1">
          <mxGeometry x="5.815105001019428" y="-5.191768329404479" width="61.51079136690647" height="73.36923791661648" as="geometry" />
        </mxCell>
        <mxCell id="ZWi5pZssSYx5xVi0Pu_A-7" value="" style="triangle;whiteSpace=wrap;html=1;rotation=-90;fillColor=#FF6666;" parent="ZWi5pZssSYx5xVi0Pu_A-2" vertex="1">
          <mxGeometry x="23.810910785541605" y="12.340795292255276" width="44.751405353450025" height="55.47430183939296" as="geometry" />
        </mxCell>
        <mxCell id="ZWi5pZssSYx5xVi0Pu_A-8" value="" style="triangle;whiteSpace=wrap;html=1;rotation=-90;fillColor=#3399FF;" parent="ZWi5pZssSYx5xVi0Pu_A-2" vertex="1">
          <mxGeometry x="81.48137360556899" y="12.340795292255276" width="44.751405353450025" height="55.47430183939296" as="geometry" />
        </mxCell>
        <mxCell id="ZWi5pZssSYx5xVi0Pu_A-9" value="" style="triangle;whiteSpace=wrap;html=1;rotation=-90;fillColor=#FF0000;" parent="ZWi5pZssSYx5xVi0Pu_A-2" vertex="1">
          <mxGeometry x="43.72032738181923" y="31.57785157527057" width="26.21384673637608" height="35.789872154447075" as="geometry" />
        </mxCell>
        <mxCell id="ZWi5pZssSYx5xVi0Pu_A-10" value="" style="triangle;whiteSpace=wrap;html=1;rotation=-90;fillColor=#0066CC;" parent="ZWi5pZssSYx5xVi0Pu_A-2" vertex="1">
          <mxGeometry x="79.73378382314391" y="31.57785157527057" width="26.21384673637608" height="35.789872154447075" as="geometry" />
        </mxCell>
        <mxCell id="ZWi5pZssSYx5xVi0Pu_A-11" value="" style="triangle;whiteSpace=wrap;html=1;rotation=90;fillColor=#00CC00;" parent="ZWi5pZssSYx5xVi0Pu_A-2" vertex="1">
          <mxGeometry x="61.820988553286924" y="31.57785157527057" width="26.21384673637608" height="35.789872154447075" as="geometry" />
        </mxCell>
        <mxCell id="ZWi5pZssSYx5xVi0Pu_A-12" value="" style="group" parent="ZWi5pZssSYx5xVi0Pu_A-1" vertex="1" connectable="0">
          <mxGeometry y="60" width="150" height="77.28999999999999" as="geometry" />
        </mxCell>
        <mxCell id="ZWi5pZssSYx5xVi0Pu_A-13" value="" style="triangle;whiteSpace=wrap;html=1;rotation=90;fillColor=#FFFFCC;direction=west;strokeColor=none;" parent="ZWi5pZssSYx5xVi0Pu_A-12" vertex="1">
          <mxGeometry x="46.23" y="-3.96" width="59.73" height="78.27" as="geometry" />
        </mxCell>
        <mxCell id="ZWi5pZssSYx5xVi0Pu_A-14" value="" style="triangle;whiteSpace=wrap;html=1;rotation=90;fillColor=#FFFF99;direction=west;strokeColor=none;" parent="ZWi5pZssSYx5xVi0Pu_A-12" vertex="1">
          <mxGeometry x="52.22515903910487" y="-9.005827391273627" width="44.64835728476408" height="69.65266235547418" as="geometry" />
        </mxCell>
        <mxCell id="ZWi5pZssSYx5xVi0Pu_A-15" value="" style="triangle;whiteSpace=wrap;html=1;rotation=-90;fillColor=#FFFFCC;direction=west;strokeColor=none;" parent="ZWi5pZssSYx5xVi0Pu_A-12" vertex="1">
          <mxGeometry x="82.71527798438272" y="-6.641615403102972" width="61.36915183170883" height="83.3798293890348" as="geometry" />
        </mxCell>
        <mxCell id="ZWi5pZssSYx5xVi0Pu_A-16" value="" style="triangle;whiteSpace=wrap;html=1;rotation=-90;fillColor=#FFFFCC;direction=west;strokeColor=none;" parent="ZWi5pZssSYx5xVi0Pu_A-12" vertex="1">
          <mxGeometry x="5.9155701839084145" y="-6.738213985931838" width="61.36915183170883" height="83.3798293890348" as="geometry" />
        </mxCell>
        <mxCell id="ZWi5pZssSYx5xVi0Pu_A-17" value="" style="triangle;whiteSpace=wrap;html=1;rotation=-90;fillColor=#FFFF99;direction=west;strokeColor=none;" parent="ZWi5pZssSYx5xVi0Pu_A-12" vertex="1">
          <mxGeometry x="25.750365713115638" y="-5.70113903134239" width="44.64835728476408" height="63.04328563561168" as="geometry" />
        </mxCell>
        <mxCell id="ZWi5pZssSYx5xVi0Pu_A-18" value="" style="triangle;whiteSpace=wrap;html=1;rotation=-90;fillColor=#FFFF99;direction=west;strokeColor=none;" parent="ZWi5pZssSYx5xVi0Pu_A-12" vertex="1">
          <mxGeometry x="78.17" y="-7.85" width="44.65" height="67.34" as="geometry" />
        </mxCell>
        <mxCell id="ZWi5pZssSYx5xVi0Pu_A-19" value="" style="triangle;whiteSpace=wrap;html=1;rotation=-90;fillColor=#FFFF00;direction=west;strokeColor=none;" parent="ZWi5pZssSYx5xVi0Pu_A-12" vertex="1">
          <mxGeometry x="43.733509049730294" y="-4.204756847075679" width="26.153484692822857" height="40.67308750684625" as="geometry" />
        </mxCell>
        <mxCell id="ZWi5pZssSYx5xVi0Pu_A-20" value="" style="triangle;whiteSpace=wrap;html=1;rotation=-90;fillColor=#FFFF00;direction=west;strokeColor=none;" parent="ZWi5pZssSYx5xVi0Pu_A-12" vertex="1">
          <mxGeometry x="79.66403810355335" y="-4.204756847075679" width="26.153484692822857" height="40.67308750684625" as="geometry" />
        </mxCell>
        <mxCell id="ZWi5pZssSYx5xVi0Pu_A-21" value="" style="triangle;whiteSpace=wrap;html=1;rotation=90;fillColor=#FFFF00;direction=west;strokeColor=none;" parent="ZWi5pZssSYx5xVi0Pu_A-12" vertex="1">
          <mxGeometry x="61.79249023012446" y="-4.204756847075679" width="26.153484692822857" height="40.67308750684625" as="geometry" />
        </mxCell>
        <mxCell id="ZWi5pZssSYx5xVi0Pu_A-106" value="" style="rounded=0;whiteSpace=wrap;html=1;align=left;" parent="1" vertex="1">
          <mxGeometry x="584" y="1478" width="160" height="140" as="geometry" />
        </mxCell>
        <mxCell id="ZWi5pZssSYx5xVi0Pu_A-107" value="&lt;font style=&quot;&quot;&gt;&lt;b style=&quot;font-size: 15px;&quot;&gt;&amp;nbsp;&lt;/b&gt;&lt;span style=&quot;font-size: 15px;&quot;&gt;&lt;b&gt;Portuguese Digital Identity Wallet&lt;/b&gt;&lt;/span&gt;&lt;b style=&quot;font-size: 15px;&quot;&gt;&amp;nbsp;Viewpoint&lt;/b&gt;&lt;/font&gt;" style="rounded=0;whiteSpace=wrap;html=1;align=left;" parent="1" vertex="1">
          <mxGeometry x="84" y="1358" width="660" height="30" as="geometry" />
        </mxCell>
        <mxCell id="ZWi5pZssSYx5xVi0Pu_A-108" value="&amp;nbsp;Stakeholders" style="rounded=0;whiteSpace=wrap;html=1;align=left;" parent="1" vertex="1">
          <mxGeometry x="84" y="1388" width="130" height="30" as="geometry" />
        </mxCell>
        <mxCell id="ZWi5pZssSYx5xVi0Pu_A-109" value="&amp;nbsp;Concerns" style="rounded=0;whiteSpace=wrap;html=1;align=left;" parent="1" vertex="1">
          <mxGeometry x="84" y="1418" width="130" height="60" as="geometry" />
        </mxCell>
        <mxCell id="ZWi5pZssSYx5xVi0Pu_A-110" value="&amp;nbsp;Purpose" style="rounded=0;whiteSpace=wrap;html=1;align=left;" parent="1" vertex="1">
          <mxGeometry x="84" y="1478" width="130" height="60" as="geometry" />
        </mxCell>
        <mxCell id="ZWi5pZssSYx5xVi0Pu_A-111" value="&amp;nbsp;Abstraction Level" style="rounded=0;whiteSpace=wrap;html=1;align=left;" parent="1" vertex="1">
          <mxGeometry x="84" y="1538" width="130" height="80" as="geometry" />
        </mxCell>
        <mxCell id="ZWi5pZssSYx5xVi0Pu_A-112" value="&lt;ol&gt;&lt;li&gt;AMA&lt;/li&gt;&lt;/ol&gt;" style="rounded=0;whiteSpace=wrap;html=1;align=left;" parent="1" vertex="1">
          <mxGeometry x="214" y="1388" width="530" height="30" as="geometry" />
        </mxCell>
        <mxCell id="ZWi5pZssSYx5xVi0Pu_A-113" value="&lt;ol&gt;&lt;li&gt;Portuguese implementation of eIDAS2 Digital Identity Wallet primary elements&lt;/li&gt;&lt;li&gt;Current status&lt;/li&gt;&lt;li&gt;Major services/user cases&lt;/li&gt;&lt;/ol&gt;" style="rounded=0;whiteSpace=wrap;html=1;align=left;" parent="1" vertex="1">
          <mxGeometry x="214" y="1418" width="530" height="60" as="geometry" />
        </mxCell>
        <mxCell id="ZWi5pZssSYx5xVi0Pu_A-114" value="&amp;nbsp;Informing" style="rounded=0;whiteSpace=wrap;html=1;align=left;" parent="1" vertex="1">
          <mxGeometry x="214" y="1478" width="370" height="60" as="geometry" />
        </mxCell>
        <mxCell id="ZWi5pZssSYx5xVi0Pu_A-115" value="&amp;nbsp;Layer&lt;span style=&quot;color: rgba(0, 0, 0, 0); font-family: monospace; font-size: 0px; text-wrap-mode: nowrap;&quot;&gt;%3CmxGraphModel%3E%3Croot%3E%3CmxCell%20id%3D%220%22%2F%3E%3CmxCell%20id%3D%221%22%20parent%3D%220%22%2F%3E%3CmxCell%20id%3D%222%22%20value%3D%22Abstraction%20Level%22%20style%3D%22rounded%3D0%3BwhiteSpace%3Dwrap%3Bhtml%3D1%3Balign%3Dleft%3B%22%20vertex%3D%221%22%20parent%3D%221%22%3E%3CmxGeometry%20x%3D%22180%22%20y%3D%22350%22%20width%3D%22130%22%20height%3D%2230%22%20as%3D%22geometry%22%2F%3E%3C%2FmxCell%3E%3C%2Froot%3E%3C%2FmxGraphModel%3E&lt;/span&gt;" style="rounded=0;whiteSpace=wrap;html=1;align=left;" parent="1" vertex="1">
          <mxGeometry x="84" y="1618" width="130" height="30" as="geometry" />
        </mxCell>
        <mxCell id="ZWi5pZssSYx5xVi0Pu_A-116" value="&amp;nbsp;Aspects" style="rounded=0;whiteSpace=wrap;html=1;align=left;" parent="1" vertex="1">
          <mxGeometry x="84" y="1648" width="130" height="30" as="geometry" />
        </mxCell>
        <mxCell id="ZWi5pZssSYx5xVi0Pu_A-117" value="&amp;nbsp;Business, Application" style="rounded=0;whiteSpace=wrap;html=1;align=left;" parent="1" vertex="1">
          <mxGeometry x="214" y="1618" width="530" height="30" as="geometry" />
        </mxCell>
        <mxCell id="ZWi5pZssSYx5xVi0Pu_A-118" value="&amp;nbsp;Active structure, Behavior, Passive structure, Motivation" style="rounded=0;whiteSpace=wrap;html=1;align=left;" parent="1" vertex="1">
          <mxGeometry x="214" y="1648" width="530" height="30" as="geometry" />
        </mxCell>
        <mxCell id="ZWi5pZssSYx5xVi0Pu_A-119" value="&lt;div&gt;&lt;span style=&quot;white-space: pre; white-space: normal;&quot;&gt;&#x9;&lt;/span&gt;&lt;/div&gt;&lt;div&gt;&amp;nbsp;Overview&lt;/div&gt;" style="rounded=0;whiteSpace=wrap;html=1;align=left;" parent="1" vertex="1">
          <mxGeometry x="214" y="1538" width="370" height="80" as="geometry" />
        </mxCell>
        <mxCell id="ZWi5pZssSYx5xVi0Pu_A-176" value="" style="group" parent="1" vertex="1" connectable="0">
          <mxGeometry x="589" y="1484" width="150" height="137.29" as="geometry" />
        </mxCell>
        <mxCell id="ZWi5pZssSYx5xVi0Pu_A-177" value="" style="group" parent="ZWi5pZssSYx5xVi0Pu_A-176" vertex="1" connectable="0">
          <mxGeometry width="150" height="130" as="geometry" />
        </mxCell>
        <mxCell id="ZWi5pZssSYx5xVi0Pu_A-178" value="" style="triangle;whiteSpace=wrap;html=1;rotation=90;fillColor=#99FF99;" parent="ZWi5pZssSYx5xVi0Pu_A-177" vertex="1">
          <mxGeometry x="44.17033175079369" y="-7.7910077946212" width="61.51079136690647" height="78.73771873978352" as="geometry" />
        </mxCell>
        <mxCell id="ZWi5pZssSYx5xVi0Pu_A-179" value="" style="triangle;whiteSpace=wrap;html=1;rotation=90;fillColor=#66FF66;" parent="ZWi5pZssSYx5xVi0Pu_A-177" vertex="1">
          <mxGeometry x="52.33157603471877" y="9.432868179706452" width="44.751405353450025" height="61.290156064490596" as="geometry" />
        </mxCell>
        <mxCell id="ZWi5pZssSYx5xVi0Pu_A-180" value="" style="triangle;whiteSpace=wrap;html=1;rotation=-90;fillColor=#000000;" parent="ZWi5pZssSYx5xVi0Pu_A-177" vertex="1">
          <mxGeometry x="82.79206594238777" y="-5.106767383037669" width="61.51079136690647" height="73.36923791661648" as="geometry" />
        </mxCell>
        <mxCell id="ZWi5pZssSYx5xVi0Pu_A-181" value="" style="triangle;whiteSpace=wrap;html=1;rotation=-90;fillColor=#FF9999;" parent="ZWi5pZssSYx5xVi0Pu_A-177" vertex="1">
          <mxGeometry x="5.815105001019428" y="-5.191768329404479" width="61.51079136690647" height="73.36923791661648" as="geometry" />
        </mxCell>
        <mxCell id="ZWi5pZssSYx5xVi0Pu_A-182" value="" style="triangle;whiteSpace=wrap;html=1;rotation=-90;fillColor=#FF6666;" parent="ZWi5pZssSYx5xVi0Pu_A-177" vertex="1">
          <mxGeometry x="23.810910785541605" y="12.340795292255276" width="44.751405353450025" height="55.47430183939296" as="geometry" />
        </mxCell>
        <mxCell id="ZWi5pZssSYx5xVi0Pu_A-183" value="" style="triangle;whiteSpace=wrap;html=1;rotation=-90;fillColor=#3399FF;" parent="ZWi5pZssSYx5xVi0Pu_A-177" vertex="1">
          <mxGeometry x="81.48137360556899" y="12.340795292255276" width="44.751405353450025" height="55.47430183939296" as="geometry" />
        </mxCell>
        <mxCell id="ZWi5pZssSYx5xVi0Pu_A-184" value="" style="triangle;whiteSpace=wrap;html=1;rotation=-90;fillColor=#FF0000;" parent="ZWi5pZssSYx5xVi0Pu_A-177" vertex="1">
          <mxGeometry x="43.72032738181923" y="31.57785157527057" width="26.21384673637608" height="35.789872154447075" as="geometry" />
        </mxCell>
        <mxCell id="ZWi5pZssSYx5xVi0Pu_A-185" value="" style="triangle;whiteSpace=wrap;html=1;rotation=-90;fillColor=#0066CC;" parent="ZWi5pZssSYx5xVi0Pu_A-177" vertex="1">
          <mxGeometry x="79.73378382314391" y="31.57785157527057" width="26.21384673637608" height="35.789872154447075" as="geometry" />
        </mxCell>
        <mxCell id="ZWi5pZssSYx5xVi0Pu_A-186" value="" style="triangle;whiteSpace=wrap;html=1;rotation=90;fillColor=#00CC00;" parent="ZWi5pZssSYx5xVi0Pu_A-177" vertex="1">
          <mxGeometry x="61.820988553286924" y="31.57785157527057" width="26.21384673637608" height="35.789872154447075" as="geometry" />
        </mxCell>
        <mxCell id="ZWi5pZssSYx5xVi0Pu_A-187" value="" style="group" parent="ZWi5pZssSYx5xVi0Pu_A-176" vertex="1" connectable="0">
          <mxGeometry y="60" width="150" height="77.28999999999999" as="geometry" />
        </mxCell>
        <mxCell id="ZWi5pZssSYx5xVi0Pu_A-188" value="" style="triangle;whiteSpace=wrap;html=1;rotation=90;fillColor=#FFFFCC;direction=west;strokeColor=none;" parent="ZWi5pZssSYx5xVi0Pu_A-187" vertex="1">
          <mxGeometry x="46.23" y="-3.96" width="59.73" height="78.27" as="geometry" />
        </mxCell>
        <mxCell id="ZWi5pZssSYx5xVi0Pu_A-189" value="" style="triangle;whiteSpace=wrap;html=1;rotation=90;fillColor=#FFFF99;direction=west;strokeColor=none;" parent="ZWi5pZssSYx5xVi0Pu_A-187" vertex="1">
          <mxGeometry x="52.22515903910487" y="-9.005827391273627" width="44.64835728476408" height="69.65266235547418" as="geometry" />
        </mxCell>
        <mxCell id="ZWi5pZssSYx5xVi0Pu_A-190" value="" style="triangle;whiteSpace=wrap;html=1;rotation=-90;fillColor=#FFFFCC;direction=west;strokeColor=none;" parent="ZWi5pZssSYx5xVi0Pu_A-187" vertex="1">
          <mxGeometry x="82.71527798438272" y="-6.641615403102972" width="61.36915183170883" height="83.3798293890348" as="geometry" />
        </mxCell>
        <mxCell id="ZWi5pZssSYx5xVi0Pu_A-191" value="" style="triangle;whiteSpace=wrap;html=1;rotation=-90;fillColor=#FFFFCC;direction=west;strokeColor=none;" parent="ZWi5pZssSYx5xVi0Pu_A-187" vertex="1">
          <mxGeometry x="5.9155701839084145" y="-6.738213985931838" width="61.36915183170883" height="83.3798293890348" as="geometry" />
        </mxCell>
        <mxCell id="ZWi5pZssSYx5xVi0Pu_A-192" value="" style="triangle;whiteSpace=wrap;html=1;rotation=-90;fillColor=#FFFF99;direction=west;strokeColor=none;" parent="ZWi5pZssSYx5xVi0Pu_A-187" vertex="1">
          <mxGeometry x="25.750365713115638" y="-5.70113903134239" width="44.64835728476408" height="63.04328563561168" as="geometry" />
        </mxCell>
        <mxCell id="ZWi5pZssSYx5xVi0Pu_A-193" value="" style="triangle;whiteSpace=wrap;html=1;rotation=-90;fillColor=#FFFF99;direction=west;strokeColor=none;" parent="ZWi5pZssSYx5xVi0Pu_A-187" vertex="1">
          <mxGeometry x="78.17" y="-7.85" width="44.65" height="67.34" as="geometry" />
        </mxCell>
        <mxCell id="ZWi5pZssSYx5xVi0Pu_A-194" value="" style="triangle;whiteSpace=wrap;html=1;rotation=-90;fillColor=#FFFF00;direction=west;strokeColor=none;" parent="ZWi5pZssSYx5xVi0Pu_A-187" vertex="1">
          <mxGeometry x="43.733509049730294" y="-4.204756847075679" width="26.153484692822857" height="40.67308750684625" as="geometry" />
        </mxCell>
        <mxCell id="ZWi5pZssSYx5xVi0Pu_A-195" value="" style="triangle;whiteSpace=wrap;html=1;rotation=-90;fillColor=#FFFF00;direction=west;strokeColor=none;" parent="ZWi5pZssSYx5xVi0Pu_A-187" vertex="1">
          <mxGeometry x="79.66403810355335" y="-4.204756847075679" width="26.153484692822857" height="40.67308750684625" as="geometry" />
        </mxCell>
        <mxCell id="ZWi5pZssSYx5xVi0Pu_A-196" value="" style="triangle;whiteSpace=wrap;html=1;rotation=90;fillColor=#FFFF00;direction=west;strokeColor=none;" parent="ZWi5pZssSYx5xVi0Pu_A-187" vertex="1">
          <mxGeometry x="61.79249023012446" y="-4.204756847075679" width="26.153484692822857" height="40.67308750684625" as="geometry" />
        </mxCell>
        <mxCell id="ZWi5pZssSYx5xVi0Pu_A-197" value="" style="rounded=0;whiteSpace=wrap;html=1;align=left;" parent="1" vertex="1">
          <mxGeometry x="584" y="1808" width="160" height="140" as="geometry" />
        </mxCell>
        <mxCell id="ZWi5pZssSYx5xVi0Pu_A-198" value="&lt;font style=&quot;&quot;&gt;&lt;b style=&quot;font-size: 15px;&quot;&gt;&amp;nbsp;&lt;/b&gt;&lt;span style=&quot;font-size: 15px;&quot;&gt;&lt;b&gt;Maturity&lt;/b&gt;&lt;/span&gt;&lt;b style=&quot;font-size: 15px;&quot;&gt;&amp;nbsp;Viewpoint&lt;/b&gt;&lt;/font&gt;" style="rounded=0;whiteSpace=wrap;html=1;align=left;" parent="1" vertex="1">
          <mxGeometry x="84" y="1688" width="660" height="30" as="geometry" />
        </mxCell>
        <mxCell id="ZWi5pZssSYx5xVi0Pu_A-199" value="&amp;nbsp;Stakeholders" style="rounded=0;whiteSpace=wrap;html=1;align=left;" parent="1" vertex="1">
          <mxGeometry x="84" y="1718" width="130" height="30" as="geometry" />
        </mxCell>
        <mxCell id="ZWi5pZssSYx5xVi0Pu_A-200" value="&amp;nbsp;Concerns" style="rounded=0;whiteSpace=wrap;html=1;align=left;" parent="1" vertex="1">
          <mxGeometry x="84" y="1748" width="130" height="60" as="geometry" />
        </mxCell>
        <mxCell id="ZWi5pZssSYx5xVi0Pu_A-201" value="&amp;nbsp;Purpose" style="rounded=0;whiteSpace=wrap;html=1;align=left;" parent="1" vertex="1">
          <mxGeometry x="84" y="1808" width="130" height="60" as="geometry" />
        </mxCell>
        <mxCell id="ZWi5pZssSYx5xVi0Pu_A-202" value="&amp;nbsp;Abstraction Level" style="rounded=0;whiteSpace=wrap;html=1;align=left;" parent="1" vertex="1">
          <mxGeometry x="84" y="1868" width="130" height="80" as="geometry" />
        </mxCell>
        <mxCell id="ZWi5pZssSYx5xVi0Pu_A-203" value="&lt;ol&gt;&lt;li&gt;MSc Student from Tecnico&lt;/li&gt;&lt;/ol&gt;" style="rounded=0;whiteSpace=wrap;html=1;align=left;" parent="1" vertex="1">
          <mxGeometry x="214" y="1718" width="530" height="30" as="geometry" />
        </mxCell>
        <mxCell id="ZWi5pZssSYx5xVi0Pu_A-204" value="&lt;ol&gt;&lt;li&gt;NIS2 possible integration with maturity levels&lt;/li&gt;&lt;li&gt;Understanding of cybersecurity maturity self-assessment behavior&lt;/li&gt;&lt;li&gt;EA diagram for MSc Thesis&lt;/li&gt;&lt;/ol&gt;" style="rounded=0;whiteSpace=wrap;html=1;align=left;" parent="1" vertex="1">
          <mxGeometry x="214" y="1748" width="530" height="60" as="geometry" />
        </mxCell>
        <mxCell id="ZWi5pZssSYx5xVi0Pu_A-205" value="&amp;nbsp;Deciding" style="rounded=0;whiteSpace=wrap;html=1;align=left;" parent="1" vertex="1">
          <mxGeometry x="214" y="1808" width="370" height="60" as="geometry" />
        </mxCell>
        <mxCell id="ZWi5pZssSYx5xVi0Pu_A-206" value="&amp;nbsp;Layer&lt;span style=&quot;color: rgba(0, 0, 0, 0); font-family: monospace; font-size: 0px; text-wrap-mode: nowrap;&quot;&gt;%3CmxGraphModel%3E%3Croot%3E%3CmxCell%20id%3D%220%22%2F%3E%3CmxCell%20id%3D%221%22%20parent%3D%220%22%2F%3E%3CmxCell%20id%3D%222%22%20value%3D%22Abstraction%20Level%22%20style%3D%22rounded%3D0%3BwhiteSpace%3Dwrap%3Bhtml%3D1%3Balign%3Dleft%3B%22%20vertex%3D%221%22%20parent%3D%221%22%3E%3CmxGeometry%20x%3D%22180%22%20y%3D%22350%22%20width%3D%22130%22%20height%3D%2230%22%20as%3D%22geometry%22%2F%3E%3C%2FmxCell%3E%3C%2Froot%3E%3C%2FmxGraphModel%3E&lt;/span&gt;" style="rounded=0;whiteSpace=wrap;html=1;align=left;" parent="1" vertex="1">
          <mxGeometry x="84" y="1948" width="130" height="30" as="geometry" />
        </mxCell>
        <mxCell id="ZWi5pZssSYx5xVi0Pu_A-207" value="&amp;nbsp;Aspects" style="rounded=0;whiteSpace=wrap;html=1;align=left;" parent="1" vertex="1">
          <mxGeometry x="84" y="1978" width="130" height="30" as="geometry" />
        </mxCell>
        <mxCell id="ZWi5pZssSYx5xVi0Pu_A-208" value="&amp;nbsp;Business" style="rounded=0;whiteSpace=wrap;html=1;align=left;" parent="1" vertex="1">
          <mxGeometry x="214" y="1948" width="530" height="30" as="geometry" />
        </mxCell>
        <mxCell id="ZWi5pZssSYx5xVi0Pu_A-209" value="&amp;nbsp;Active structure, Behavior, Passive structure, Motivation" style="rounded=0;whiteSpace=wrap;html=1;align=left;" parent="1" vertex="1">
          <mxGeometry x="214" y="1978" width="530" height="30" as="geometry" />
        </mxCell>
        <mxCell id="ZWi5pZssSYx5xVi0Pu_A-210" value="&lt;div&gt;&lt;span style=&quot;white-space: pre; white-space: normal;&quot;&gt;&#x9;&lt;/span&gt;&lt;/div&gt;&lt;div&gt;&amp;nbsp;Coherence&lt;/div&gt;" style="rounded=0;whiteSpace=wrap;html=1;align=left;" parent="1" vertex="1">
          <mxGeometry x="214" y="1868" width="370" height="80" as="geometry" />
        </mxCell>
        <mxCell id="ZWi5pZssSYx5xVi0Pu_A-302" value="" style="group" parent="1" vertex="1" connectable="0">
          <mxGeometry x="590" y="1814" width="150" height="137.29" as="geometry" />
        </mxCell>
        <mxCell id="ZWi5pZssSYx5xVi0Pu_A-303" value="" style="group" parent="ZWi5pZssSYx5xVi0Pu_A-302" vertex="1" connectable="0">
          <mxGeometry width="150" height="130" as="geometry" />
        </mxCell>
        <mxCell id="ZWi5pZssSYx5xVi0Pu_A-304" value="" style="triangle;whiteSpace=wrap;html=1;rotation=90;fillColor=#99FF99;" parent="ZWi5pZssSYx5xVi0Pu_A-303" vertex="1">
          <mxGeometry x="44.17033175079369" y="-7.7910077946212" width="61.51079136690647" height="78.73771873978352" as="geometry" />
        </mxCell>
        <mxCell id="ZWi5pZssSYx5xVi0Pu_A-305" value="" style="triangle;whiteSpace=wrap;html=1;rotation=90;fillColor=#000000;" parent="ZWi5pZssSYx5xVi0Pu_A-303" vertex="1">
          <mxGeometry x="52.33157603471877" y="9.432868179706452" width="44.751405353450025" height="61.290156064490596" as="geometry" />
        </mxCell>
        <mxCell id="ZWi5pZssSYx5xVi0Pu_A-306" value="" style="triangle;whiteSpace=wrap;html=1;rotation=-90;fillColor=#66B2FF;" parent="ZWi5pZssSYx5xVi0Pu_A-303" vertex="1">
          <mxGeometry x="82.79206594238777" y="-5.106767383037669" width="61.51079136690647" height="73.36923791661648" as="geometry" />
        </mxCell>
        <mxCell id="ZWi5pZssSYx5xVi0Pu_A-307" value="" style="triangle;whiteSpace=wrap;html=1;rotation=-90;fillColor=#FF9999;" parent="ZWi5pZssSYx5xVi0Pu_A-303" vertex="1">
          <mxGeometry x="5.815105001019428" y="-5.191768329404479" width="61.51079136690647" height="73.36923791661648" as="geometry" />
        </mxCell>
        <mxCell id="ZWi5pZssSYx5xVi0Pu_A-308" value="" style="triangle;whiteSpace=wrap;html=1;rotation=-90;fillColor=#FF6666;" parent="ZWi5pZssSYx5xVi0Pu_A-303" vertex="1">
          <mxGeometry x="23.810910785541605" y="12.340795292255276" width="44.751405353450025" height="55.47430183939296" as="geometry" />
        </mxCell>
        <mxCell id="ZWi5pZssSYx5xVi0Pu_A-309" value="" style="triangle;whiteSpace=wrap;html=1;rotation=-90;fillColor=#3399FF;" parent="ZWi5pZssSYx5xVi0Pu_A-303" vertex="1">
          <mxGeometry x="81.48137360556899" y="12.340795292255276" width="44.751405353450025" height="55.47430183939296" as="geometry" />
        </mxCell>
        <mxCell id="ZWi5pZssSYx5xVi0Pu_A-310" value="" style="triangle;whiteSpace=wrap;html=1;rotation=-90;fillColor=#FF0000;" parent="ZWi5pZssSYx5xVi0Pu_A-303" vertex="1">
          <mxGeometry x="43.72032738181923" y="31.57785157527057" width="26.21384673637608" height="35.789872154447075" as="geometry" />
        </mxCell>
        <mxCell id="ZWi5pZssSYx5xVi0Pu_A-311" value="" style="triangle;whiteSpace=wrap;html=1;rotation=-90;fillColor=#0066CC;" parent="ZWi5pZssSYx5xVi0Pu_A-303" vertex="1">
          <mxGeometry x="79.73378382314391" y="31.57785157527057" width="26.21384673637608" height="35.789872154447075" as="geometry" />
        </mxCell>
        <mxCell id="ZWi5pZssSYx5xVi0Pu_A-312" value="" style="triangle;whiteSpace=wrap;html=1;rotation=90;fillColor=#00CC00;" parent="ZWi5pZssSYx5xVi0Pu_A-303" vertex="1">
          <mxGeometry x="61.820988553286924" y="31.57785157527057" width="26.21384673637608" height="35.789872154447075" as="geometry" />
        </mxCell>
        <mxCell id="ZWi5pZssSYx5xVi0Pu_A-313" value="" style="group" parent="ZWi5pZssSYx5xVi0Pu_A-302" vertex="1" connectable="0">
          <mxGeometry y="60" width="150" height="77.28999999999999" as="geometry" />
        </mxCell>
        <mxCell id="ZWi5pZssSYx5xVi0Pu_A-314" value="" style="triangle;whiteSpace=wrap;html=1;rotation=90;fillColor=#FFFFCC;direction=west;strokeColor=none;" parent="ZWi5pZssSYx5xVi0Pu_A-313" vertex="1">
          <mxGeometry x="46.23" y="-3.96" width="59.73" height="78.27" as="geometry" />
        </mxCell>
        <mxCell id="ZWi5pZssSYx5xVi0Pu_A-315" value="" style="triangle;whiteSpace=wrap;html=1;rotation=90;fillColor=#FFFF99;direction=west;strokeColor=none;" parent="ZWi5pZssSYx5xVi0Pu_A-313" vertex="1">
          <mxGeometry x="52.22515903910487" y="-9.005827391273627" width="44.64835728476408" height="69.65266235547418" as="geometry" />
        </mxCell>
        <mxCell id="ZWi5pZssSYx5xVi0Pu_A-316" value="" style="triangle;whiteSpace=wrap;html=1;rotation=-90;fillColor=#FFFFCC;direction=west;strokeColor=none;" parent="ZWi5pZssSYx5xVi0Pu_A-313" vertex="1">
          <mxGeometry x="82.71527798438272" y="-6.641615403102972" width="61.36915183170883" height="83.3798293890348" as="geometry" />
        </mxCell>
        <mxCell id="ZWi5pZssSYx5xVi0Pu_A-317" value="" style="triangle;whiteSpace=wrap;html=1;rotation=-90;fillColor=#FFFFCC;direction=west;strokeColor=none;" parent="ZWi5pZssSYx5xVi0Pu_A-313" vertex="1">
          <mxGeometry x="5.9155701839084145" y="-6.738213985931838" width="61.36915183170883" height="83.3798293890348" as="geometry" />
        </mxCell>
        <mxCell id="ZWi5pZssSYx5xVi0Pu_A-318" value="" style="triangle;whiteSpace=wrap;html=1;rotation=-90;fillColor=#FFFF99;direction=west;strokeColor=none;" parent="ZWi5pZssSYx5xVi0Pu_A-313" vertex="1">
          <mxGeometry x="25.750365713115638" y="-5.70113903134239" width="44.64835728476408" height="63.04328563561168" as="geometry" />
        </mxCell>
        <mxCell id="ZWi5pZssSYx5xVi0Pu_A-319" value="" style="triangle;whiteSpace=wrap;html=1;rotation=-90;fillColor=#FFFF99;direction=west;strokeColor=none;" parent="ZWi5pZssSYx5xVi0Pu_A-313" vertex="1">
          <mxGeometry x="78.17" y="-7.85" width="44.65" height="67.34" as="geometry" />
        </mxCell>
        <mxCell id="ZWi5pZssSYx5xVi0Pu_A-320" value="" style="triangle;whiteSpace=wrap;html=1;rotation=-90;fillColor=#FFFF00;direction=west;strokeColor=none;" parent="ZWi5pZssSYx5xVi0Pu_A-313" vertex="1">
          <mxGeometry x="43.733509049730294" y="-4.204756847075679" width="26.153484692822857" height="40.67308750684625" as="geometry" />
        </mxCell>
        <mxCell id="ZWi5pZssSYx5xVi0Pu_A-321" value="" style="triangle;whiteSpace=wrap;html=1;rotation=-90;fillColor=#FFFF00;direction=west;strokeColor=none;" parent="ZWi5pZssSYx5xVi0Pu_A-313" vertex="1">
          <mxGeometry x="79.66403810355335" y="-4.204756847075679" width="26.153484692822857" height="40.67308750684625" as="geometry" />
        </mxCell>
        <mxCell id="ZWi5pZssSYx5xVi0Pu_A-322" value="" style="triangle;whiteSpace=wrap;html=1;rotation=90;fillColor=#FFFF00;direction=west;strokeColor=none;" parent="ZWi5pZssSYx5xVi0Pu_A-313" vertex="1">
          <mxGeometry x="61.79249023012446" y="-4.204756847075679" width="26.153484692822857" height="40.67308750684625" as="geometry" />
        </mxCell>
        <mxCell id="ZWi5pZssSYx5xVi0Pu_A-323" value="" style="rounded=0;whiteSpace=wrap;html=1;align=left;" parent="1" vertex="1">
          <mxGeometry x="584" y="130" width="160" height="140" as="geometry" />
        </mxCell>
        <mxCell id="ZWi5pZssSYx5xVi0Pu_A-324" value="&lt;font style=&quot;&quot;&gt;&lt;b style=&quot;font-size: 15px;&quot;&gt;&amp;nbsp;&lt;/b&gt;&lt;span style=&quot;font-size: 15px;&quot;&gt;&lt;b&gt;NIS2 Framework&lt;/b&gt;&lt;/span&gt;&lt;b style=&quot;font-size: 15px;&quot;&gt;&amp;nbsp;Viewpoint&lt;/b&gt;&lt;/font&gt;" style="rounded=0;whiteSpace=wrap;html=1;align=left;" parent="1" vertex="1">
          <mxGeometry x="84" y="10" width="660" height="30" as="geometry" />
        </mxCell>
        <mxCell id="ZWi5pZssSYx5xVi0Pu_A-325" value="&amp;nbsp;Stakeholders" style="rounded=0;whiteSpace=wrap;html=1;align=left;" parent="1" vertex="1">
          <mxGeometry x="84" y="40" width="130" height="30" as="geometry" />
        </mxCell>
        <mxCell id="ZWi5pZssSYx5xVi0Pu_A-326" value="&amp;nbsp;Concerns" style="rounded=0;whiteSpace=wrap;html=1;align=left;" parent="1" vertex="1">
          <mxGeometry x="84" y="70" width="130" height="60" as="geometry" />
        </mxCell>
        <mxCell id="ZWi5pZssSYx5xVi0Pu_A-327" value="&amp;nbsp;Purpose" style="rounded=0;whiteSpace=wrap;html=1;align=left;" parent="1" vertex="1">
          <mxGeometry x="84" y="130" width="130" height="60" as="geometry" />
        </mxCell>
        <mxCell id="ZWi5pZssSYx5xVi0Pu_A-328" value="&amp;nbsp;Abstraction Level" style="rounded=0;whiteSpace=wrap;html=1;align=left;" parent="1" vertex="1">
          <mxGeometry x="84" y="190" width="130" height="80" as="geometry" />
        </mxCell>
        <mxCell id="ZWi5pZssSYx5xVi0Pu_A-329" value="&lt;ol&gt;&lt;li&gt;CNCS&lt;/li&gt;&lt;/ol&gt;" style="rounded=0;whiteSpace=wrap;html=1;align=left;" parent="1" vertex="1">
          <mxGeometry x="214" y="40" width="530" height="30" as="geometry" />
        </mxCell>
        <mxCell id="ZWi5pZssSYx5xVi0Pu_A-330" value="&lt;ol&gt;&lt;li&gt;Compliance with the NIS2 directive at the national level&lt;/li&gt;&lt;li&gt;NIS2 Portugal environmental context&lt;/li&gt;&lt;li&gt;Major Portuguese actors and roles for NIS2&lt;/li&gt;&lt;/ol&gt;" style="rounded=0;whiteSpace=wrap;html=1;align=left;" parent="1" vertex="1">
          <mxGeometry x="214" y="70" width="530" height="60" as="geometry" />
        </mxCell>
        <mxCell id="ZWi5pZssSYx5xVi0Pu_A-331" value="&amp;nbsp;Informing" style="rounded=0;whiteSpace=wrap;html=1;align=left;" parent="1" vertex="1">
          <mxGeometry x="214" y="130" width="370" height="60" as="geometry" />
        </mxCell>
        <mxCell id="ZWi5pZssSYx5xVi0Pu_A-332" value="&amp;nbsp;Layer&lt;span style=&quot;color: rgba(0, 0, 0, 0); font-family: monospace; font-size: 0px; text-wrap-mode: nowrap;&quot;&gt;%3CmxGraphModel%3E%3Croot%3E%3CmxCell%20id%3D%220%22%2F%3E%3CmxCell%20id%3D%221%22%20parent%3D%220%22%2F%3E%3CmxCell%20id%3D%222%22%20value%3D%22Abstraction%20Level%22%20style%3D%22rounded%3D0%3BwhiteSpace%3Dwrap%3Bhtml%3D1%3Balign%3Dleft%3B%22%20vertex%3D%221%22%20parent%3D%221%22%3E%3CmxGeometry%20x%3D%22180%22%20y%3D%22350%22%20width%3D%22130%22%20height%3D%2230%22%20as%3D%22geometry%22%2F%3E%3C%2FmxCell%3E%3C%2Froot%3E%3C%2FmxGraphModel%3E&lt;/span&gt;" style="rounded=0;whiteSpace=wrap;html=1;align=left;" parent="1" vertex="1">
          <mxGeometry x="84" y="270" width="130" height="30" as="geometry" />
        </mxCell>
        <mxCell id="ZWi5pZssSYx5xVi0Pu_A-333" value="&amp;nbsp;Aspects" style="rounded=0;whiteSpace=wrap;html=1;align=left;" parent="1" vertex="1">
          <mxGeometry x="84" y="300" width="130" height="30" as="geometry" />
        </mxCell>
        <mxCell id="ZWi5pZssSYx5xVi0Pu_A-334" value="&amp;nbsp;Business" style="rounded=0;whiteSpace=wrap;html=1;align=left;" parent="1" vertex="1">
          <mxGeometry x="214" y="270" width="530" height="30" as="geometry" />
        </mxCell>
        <mxCell id="ZWi5pZssSYx5xVi0Pu_A-335" value="&amp;nbsp;Active structure, Motivation" style="rounded=0;whiteSpace=wrap;html=1;align=left;" parent="1" vertex="1">
          <mxGeometry x="214" y="300" width="530" height="30" as="geometry" />
        </mxCell>
        <mxCell id="ZWi5pZssSYx5xVi0Pu_A-336" value="&lt;div&gt;&lt;span style=&quot;white-space: pre; white-space: normal;&quot;&gt;&#x9;&lt;/span&gt;&lt;/div&gt;&lt;div&gt;&amp;nbsp;Coherence&lt;/div&gt;" style="rounded=0;whiteSpace=wrap;html=1;align=left;" parent="1" vertex="1">
          <mxGeometry x="214" y="190" width="370" height="80" as="geometry" />
        </mxCell>
        <mxCell id="ZWi5pZssSYx5xVi0Pu_A-337" value="" style="group" parent="1" vertex="1" connectable="0">
          <mxGeometry x="589" y="136" width="150" height="137.29" as="geometry" />
        </mxCell>
        <mxCell id="ZWi5pZssSYx5xVi0Pu_A-338" value="" style="group" parent="ZWi5pZssSYx5xVi0Pu_A-337" vertex="1" connectable="0">
          <mxGeometry width="150" height="130" as="geometry" />
        </mxCell>
        <mxCell id="ZWi5pZssSYx5xVi0Pu_A-339" value="" style="triangle;whiteSpace=wrap;html=1;rotation=90;fillColor=#99FF99;" parent="ZWi5pZssSYx5xVi0Pu_A-338" vertex="1">
          <mxGeometry x="44.17033175079369" y="-7.7910077946212" width="61.51079136690647" height="78.73771873978352" as="geometry" />
        </mxCell>
        <mxCell id="ZWi5pZssSYx5xVi0Pu_A-340" value="" style="triangle;whiteSpace=wrap;html=1;rotation=90;fillColor=#66FF66;" parent="ZWi5pZssSYx5xVi0Pu_A-338" vertex="1">
          <mxGeometry x="52.33157603471877" y="9.432868179706452" width="44.751405353450025" height="61.290156064490596" as="geometry" />
        </mxCell>
        <mxCell id="ZWi5pZssSYx5xVi0Pu_A-341" value="" style="triangle;whiteSpace=wrap;html=1;rotation=-90;fillColor=#66B2FF;" parent="ZWi5pZssSYx5xVi0Pu_A-338" vertex="1">
          <mxGeometry x="82.79206594238777" y="-5.106767383037669" width="61.51079136690647" height="73.36923791661648" as="geometry" />
        </mxCell>
        <mxCell id="ZWi5pZssSYx5xVi0Pu_A-342" value="" style="triangle;whiteSpace=wrap;html=1;rotation=-90;fillColor=#FF9999;" parent="ZWi5pZssSYx5xVi0Pu_A-338" vertex="1">
          <mxGeometry x="5.815105001019428" y="-5.191768329404479" width="61.51079136690647" height="73.36923791661648" as="geometry" />
        </mxCell>
        <mxCell id="ZWi5pZssSYx5xVi0Pu_A-343" value="" style="triangle;whiteSpace=wrap;html=1;rotation=-90;fillColor=#FF6666;" parent="ZWi5pZssSYx5xVi0Pu_A-338" vertex="1">
          <mxGeometry x="23.810910785541605" y="12.340795292255276" width="44.751405353450025" height="55.47430183939296" as="geometry" />
        </mxCell>
        <mxCell id="ZWi5pZssSYx5xVi0Pu_A-344" value="" style="triangle;whiteSpace=wrap;html=1;rotation=-90;fillColor=#000000;" parent="ZWi5pZssSYx5xVi0Pu_A-338" vertex="1">
          <mxGeometry x="81.48137360556899" y="12.340795292255276" width="44.751405353450025" height="55.47430183939296" as="geometry" />
        </mxCell>
        <mxCell id="ZWi5pZssSYx5xVi0Pu_A-345" value="" style="triangle;whiteSpace=wrap;html=1;rotation=-90;fillColor=#FF0000;" parent="ZWi5pZssSYx5xVi0Pu_A-338" vertex="1">
          <mxGeometry x="43.72032738181923" y="31.57785157527057" width="26.21384673637608" height="35.789872154447075" as="geometry" />
        </mxCell>
        <mxCell id="ZWi5pZssSYx5xVi0Pu_A-346" value="" style="triangle;whiteSpace=wrap;html=1;rotation=-90;fillColor=#0066CC;" parent="ZWi5pZssSYx5xVi0Pu_A-338" vertex="1">
          <mxGeometry x="79.73378382314391" y="31.57785157527057" width="26.21384673637608" height="35.789872154447075" as="geometry" />
        </mxCell>
        <mxCell id="ZWi5pZssSYx5xVi0Pu_A-347" value="" style="triangle;whiteSpace=wrap;html=1;rotation=90;fillColor=#00CC00;" parent="ZWi5pZssSYx5xVi0Pu_A-338" vertex="1">
          <mxGeometry x="61.820988553286924" y="31.57785157527057" width="26.21384673637608" height="35.789872154447075" as="geometry" />
        </mxCell>
        <mxCell id="ZWi5pZssSYx5xVi0Pu_A-348" value="" style="group" parent="ZWi5pZssSYx5xVi0Pu_A-337" vertex="1" connectable="0">
          <mxGeometry y="60" width="150" height="77.28999999999999" as="geometry" />
        </mxCell>
        <mxCell id="ZWi5pZssSYx5xVi0Pu_A-349" value="" style="triangle;whiteSpace=wrap;html=1;rotation=90;fillColor=#FFFFCC;direction=west;strokeColor=none;" parent="ZWi5pZssSYx5xVi0Pu_A-348" vertex="1">
          <mxGeometry x="46.23" y="-3.96" width="59.73" height="78.27" as="geometry" />
        </mxCell>
        <mxCell id="ZWi5pZssSYx5xVi0Pu_A-350" value="" style="triangle;whiteSpace=wrap;html=1;rotation=90;fillColor=#FFFF99;direction=west;strokeColor=none;" parent="ZWi5pZssSYx5xVi0Pu_A-348" vertex="1">
          <mxGeometry x="52.22515903910487" y="-9.005827391273627" width="44.64835728476408" height="69.65266235547418" as="geometry" />
        </mxCell>
        <mxCell id="ZWi5pZssSYx5xVi0Pu_A-351" value="" style="triangle;whiteSpace=wrap;html=1;rotation=-90;fillColor=#FFFFCC;direction=west;strokeColor=none;" parent="ZWi5pZssSYx5xVi0Pu_A-348" vertex="1">
          <mxGeometry x="82.71527798438272" y="-6.641615403102972" width="61.36915183170883" height="83.3798293890348" as="geometry" />
        </mxCell>
        <mxCell id="ZWi5pZssSYx5xVi0Pu_A-352" value="" style="triangle;whiteSpace=wrap;html=1;rotation=-90;fillColor=#FFFFCC;direction=west;strokeColor=none;" parent="ZWi5pZssSYx5xVi0Pu_A-348" vertex="1">
          <mxGeometry x="5.9155701839084145" y="-6.738213985931838" width="61.36915183170883" height="83.3798293890348" as="geometry" />
        </mxCell>
        <mxCell id="ZWi5pZssSYx5xVi0Pu_A-353" value="" style="triangle;whiteSpace=wrap;html=1;rotation=-90;fillColor=#FFFF99;direction=west;strokeColor=none;" parent="ZWi5pZssSYx5xVi0Pu_A-348" vertex="1">
          <mxGeometry x="25.750365713115638" y="-5.70113903134239" width="44.64835728476408" height="63.04328563561168" as="geometry" />
        </mxCell>
        <mxCell id="ZWi5pZssSYx5xVi0Pu_A-354" value="" style="triangle;whiteSpace=wrap;html=1;rotation=-90;fillColor=#FFFF99;direction=west;strokeColor=none;" parent="ZWi5pZssSYx5xVi0Pu_A-348" vertex="1">
          <mxGeometry x="78.17" y="-7.85" width="44.65" height="67.34" as="geometry" />
        </mxCell>
        <mxCell id="ZWi5pZssSYx5xVi0Pu_A-355" value="" style="triangle;whiteSpace=wrap;html=1;rotation=-90;fillColor=#FFFF00;direction=west;strokeColor=none;" parent="ZWi5pZssSYx5xVi0Pu_A-348" vertex="1">
          <mxGeometry x="43.733509049730294" y="-4.204756847075679" width="26.153484692822857" height="40.67308750684625" as="geometry" />
        </mxCell>
        <mxCell id="ZWi5pZssSYx5xVi0Pu_A-356" value="" style="triangle;whiteSpace=wrap;html=1;rotation=-90;fillColor=#FFFF00;direction=west;strokeColor=none;" parent="ZWi5pZssSYx5xVi0Pu_A-348" vertex="1">
          <mxGeometry x="79.66403810355335" y="-4.204756847075679" width="26.153484692822857" height="40.67308750684625" as="geometry" />
        </mxCell>
        <mxCell id="ZWi5pZssSYx5xVi0Pu_A-357" value="" style="triangle;whiteSpace=wrap;html=1;rotation=90;fillColor=#FFFF00;direction=west;strokeColor=none;" parent="ZWi5pZssSYx5xVi0Pu_A-348" vertex="1">
          <mxGeometry x="61.79249023012446" y="-4.204756847075679" width="26.153484692822857" height="40.67308750684625" as="geometry" />
        </mxCell>
        <mxCell id="ZWi5pZssSYx5xVi0Pu_A-358" value="" style="rounded=0;whiteSpace=wrap;html=1;align=left;" parent="1" vertex="1">
          <mxGeometry x="584" y="488" width="160" height="140" as="geometry" />
        </mxCell>
        <mxCell id="ZWi5pZssSYx5xVi0Pu_A-359" value="&lt;font style=&quot;&quot;&gt;&lt;b style=&quot;font-size: 15px;&quot;&gt;&amp;nbsp;&lt;/b&gt;&lt;span style=&quot;font-size: 15px;&quot;&gt;&lt;b&gt;Cybersecurity Perspective of 2025 Blackout&lt;/b&gt;&lt;/span&gt;&lt;b style=&quot;font-size: 15px;&quot;&gt;&amp;nbsp;Viewpoint&lt;/b&gt;&lt;/font&gt;" style="rounded=0;whiteSpace=wrap;html=1;align=left;" parent="1" vertex="1">
          <mxGeometry x="84" y="340" width="660" height="30" as="geometry" />
        </mxCell>
        <mxCell id="ZWi5pZssSYx5xVi0Pu_A-360" value="&amp;nbsp;Stakeholders" style="rounded=0;whiteSpace=wrap;html=1;align=left;" parent="1" vertex="1">
          <mxGeometry x="84" y="370" width="130" height="30" as="geometry" />
        </mxCell>
        <mxCell id="ZWi5pZssSYx5xVi0Pu_A-361" value="&amp;nbsp;Concerns" style="rounded=0;whiteSpace=wrap;html=1;align=left;" parent="1" vertex="1">
          <mxGeometry x="84" y="400" width="130" height="90" as="geometry" />
        </mxCell>
        <mxCell id="ZWi5pZssSYx5xVi0Pu_A-362" value="&amp;nbsp;Purpose" style="rounded=0;whiteSpace=wrap;html=1;align=left;" parent="1" vertex="1">
          <mxGeometry x="84" y="488" width="130" height="60" as="geometry" />
        </mxCell>
        <mxCell id="ZWi5pZssSYx5xVi0Pu_A-363" value="&amp;nbsp;Abstraction Level" style="rounded=0;whiteSpace=wrap;html=1;align=left;" parent="1" vertex="1">
          <mxGeometry x="84" y="548" width="130" height="80" as="geometry" />
        </mxCell>
        <mxCell id="ZWi5pZssSYx5xVi0Pu_A-364" value="&lt;ol&gt;&lt;li&gt;CNCS&lt;/li&gt;&lt;/ol&gt;" style="rounded=0;whiteSpace=wrap;html=1;align=left;" parent="1" vertex="1">
          <mxGeometry x="214" y="370" width="530" height="30" as="geometry" />
        </mxCell>
        <mxCell id="ZWi5pZssSYx5xVi0Pu_A-365" value="&lt;ol&gt;&lt;li&gt;Overall response of portuguese entities to the Blackout&lt;/li&gt;&lt;li&gt;Core behavior and timeline of events&lt;/li&gt;&lt;li&gt;Systemic risk of large-scale power outage and its cascading effects on critical sectors.&lt;/li&gt;&lt;li&gt;Incident response coordination and communication between national and EU authorities&lt;/li&gt;&lt;/ol&gt;" style="rounded=0;whiteSpace=wrap;html=1;align=left;" parent="1" vertex="1">
          <mxGeometry x="214" y="400" width="530" height="90" as="geometry" />
        </mxCell>
        <mxCell id="ZWi5pZssSYx5xVi0Pu_A-366" value="&amp;nbsp;Designing" style="rounded=0;whiteSpace=wrap;html=1;align=left;" parent="1" vertex="1">
          <mxGeometry x="214" y="488" width="370" height="60" as="geometry" />
        </mxCell>
        <mxCell id="ZWi5pZssSYx5xVi0Pu_A-367" value="&amp;nbsp;Layer&lt;span style=&quot;color: rgba(0, 0, 0, 0); font-family: monospace; font-size: 0px; text-wrap-mode: nowrap;&quot;&gt;%3CmxGraphModel%3E%3Croot%3E%3CmxCell%20id%3D%220%22%2F%3E%3CmxCell%20id%3D%221%22%20parent%3D%220%22%2F%3E%3CmxCell%20id%3D%222%22%20value%3D%22Abstraction%20Level%22%20style%3D%22rounded%3D0%3BwhiteSpace%3Dwrap%3Bhtml%3D1%3Balign%3Dleft%3B%22%20vertex%3D%221%22%20parent%3D%221%22%3E%3CmxGeometry%20x%3D%22180%22%20y%3D%22350%22%20width%3D%22130%22%20height%3D%2230%22%20as%3D%22geometry%22%2F%3E%3C%2FmxCell%3E%3C%2Froot%3E%3C%2FmxGraphModel%3E&lt;/span&gt;" style="rounded=0;whiteSpace=wrap;html=1;align=left;" parent="1" vertex="1">
          <mxGeometry x="84" y="628" width="130" height="30" as="geometry" />
        </mxCell>
        <mxCell id="ZWi5pZssSYx5xVi0Pu_A-368" value="&amp;nbsp;Aspects" style="rounded=0;whiteSpace=wrap;html=1;align=left;" parent="1" vertex="1">
          <mxGeometry x="84" y="658" width="130" height="30" as="geometry" />
        </mxCell>
        <mxCell id="ZWi5pZssSYx5xVi0Pu_A-369" value="&amp;nbsp;Business" style="rounded=0;whiteSpace=wrap;html=1;align=left;" parent="1" vertex="1">
          <mxGeometry x="214" y="628" width="530" height="30" as="geometry" />
        </mxCell>
        <mxCell id="ZWi5pZssSYx5xVi0Pu_A-370" value="&amp;nbsp;Active structure, Behavior, Passive structure" style="rounded=0;whiteSpace=wrap;html=1;align=left;" parent="1" vertex="1">
          <mxGeometry x="214" y="658" width="530" height="30" as="geometry" />
        </mxCell>
        <mxCell id="ZWi5pZssSYx5xVi0Pu_A-371" value="&lt;div&gt;&lt;span style=&quot;white-space: pre; white-space: normal;&quot;&gt;&#x9;&lt;/span&gt;&lt;/div&gt;&lt;div&gt;&amp;nbsp;Coherence&lt;/div&gt;" style="rounded=0;whiteSpace=wrap;html=1;align=left;" parent="1" vertex="1">
          <mxGeometry x="214" y="548" width="370" height="80" as="geometry" />
        </mxCell>
        <mxCell id="ZWi5pZssSYx5xVi0Pu_A-372" value="" style="group" parent="1" vertex="1" connectable="0">
          <mxGeometry x="589" y="494" width="150" height="137.29" as="geometry" />
        </mxCell>
        <mxCell id="ZWi5pZssSYx5xVi0Pu_A-373" value="" style="group" parent="ZWi5pZssSYx5xVi0Pu_A-372" vertex="1" connectable="0">
          <mxGeometry width="150" height="130" as="geometry" />
        </mxCell>
        <mxCell id="ZWi5pZssSYx5xVi0Pu_A-374" value="" style="triangle;whiteSpace=wrap;html=1;rotation=90;fillColor=#99FF99;" parent="ZWi5pZssSYx5xVi0Pu_A-373" vertex="1">
          <mxGeometry x="44.17033175079369" y="-7.7910077946212" width="61.51079136690647" height="78.73771873978352" as="geometry" />
        </mxCell>
        <mxCell id="ZWi5pZssSYx5xVi0Pu_A-375" value="" style="triangle;whiteSpace=wrap;html=1;rotation=90;fillColor=#66FF66;" parent="ZWi5pZssSYx5xVi0Pu_A-373" vertex="1">
          <mxGeometry x="52.33157603471877" y="9.432868179706452" width="44.751405353450025" height="61.290156064490596" as="geometry" />
        </mxCell>
        <mxCell id="ZWi5pZssSYx5xVi0Pu_A-376" value="" style="triangle;whiteSpace=wrap;html=1;rotation=-90;fillColor=#66B2FF;" parent="ZWi5pZssSYx5xVi0Pu_A-373" vertex="1">
          <mxGeometry x="82.79206594238777" y="-5.106767383037669" width="61.51079136690647" height="73.36923791661648" as="geometry" />
        </mxCell>
        <mxCell id="ZWi5pZssSYx5xVi0Pu_A-377" value="" style="triangle;whiteSpace=wrap;html=1;rotation=-90;fillColor=#FF9999;" parent="ZWi5pZssSYx5xVi0Pu_A-373" vertex="1">
          <mxGeometry x="5.815105001019428" y="-5.191768329404479" width="61.51079136690647" height="73.36923791661648" as="geometry" />
        </mxCell>
        <mxCell id="ZWi5pZssSYx5xVi0Pu_A-378" value="" style="triangle;whiteSpace=wrap;html=1;rotation=-90;fillColor=#000000;" parent="ZWi5pZssSYx5xVi0Pu_A-373" vertex="1">
          <mxGeometry x="23.810910785541605" y="12.340795292255276" width="44.751405353450025" height="55.47430183939296" as="geometry" />
        </mxCell>
        <mxCell id="ZWi5pZssSYx5xVi0Pu_A-379" value="" style="triangle;whiteSpace=wrap;html=1;rotation=-90;fillColor=#3399FF;" parent="ZWi5pZssSYx5xVi0Pu_A-373" vertex="1">
          <mxGeometry x="81.48137360556899" y="12.340795292255276" width="44.751405353450025" height="55.47430183939296" as="geometry" />
        </mxCell>
        <mxCell id="ZWi5pZssSYx5xVi0Pu_A-380" value="" style="triangle;whiteSpace=wrap;html=1;rotation=-90;fillColor=#FF0000;" parent="ZWi5pZssSYx5xVi0Pu_A-373" vertex="1">
          <mxGeometry x="43.72032738181923" y="31.57785157527057" width="26.21384673637608" height="35.789872154447075" as="geometry" />
        </mxCell>
        <mxCell id="ZWi5pZssSYx5xVi0Pu_A-381" value="" style="triangle;whiteSpace=wrap;html=1;rotation=-90;fillColor=#0066CC;" parent="ZWi5pZssSYx5xVi0Pu_A-373" vertex="1">
          <mxGeometry x="79.73378382314391" y="31.57785157527057" width="26.21384673637608" height="35.789872154447075" as="geometry" />
        </mxCell>
        <mxCell id="ZWi5pZssSYx5xVi0Pu_A-382" value="" style="triangle;whiteSpace=wrap;html=1;rotation=90;fillColor=#00CC00;" parent="ZWi5pZssSYx5xVi0Pu_A-373" vertex="1">
          <mxGeometry x="61.820988553286924" y="31.57785157527057" width="26.21384673637608" height="35.789872154447075" as="geometry" />
        </mxCell>
        <mxCell id="ZWi5pZssSYx5xVi0Pu_A-383" value="" style="group" parent="ZWi5pZssSYx5xVi0Pu_A-372" vertex="1" connectable="0">
          <mxGeometry y="60" width="150" height="77.28999999999999" as="geometry" />
        </mxCell>
        <mxCell id="ZWi5pZssSYx5xVi0Pu_A-384" value="" style="triangle;whiteSpace=wrap;html=1;rotation=90;fillColor=#FFFFCC;direction=west;strokeColor=none;" parent="ZWi5pZssSYx5xVi0Pu_A-383" vertex="1">
          <mxGeometry x="46.23" y="-3.96" width="59.73" height="78.27" as="geometry" />
        </mxCell>
        <mxCell id="ZWi5pZssSYx5xVi0Pu_A-385" value="" style="triangle;whiteSpace=wrap;html=1;rotation=90;fillColor=#FFFF99;direction=west;strokeColor=none;" parent="ZWi5pZssSYx5xVi0Pu_A-383" vertex="1">
          <mxGeometry x="52.22515903910487" y="-9.005827391273627" width="44.64835728476408" height="69.65266235547418" as="geometry" />
        </mxCell>
        <mxCell id="ZWi5pZssSYx5xVi0Pu_A-386" value="" style="triangle;whiteSpace=wrap;html=1;rotation=-90;fillColor=#FFFFCC;direction=west;strokeColor=none;" parent="ZWi5pZssSYx5xVi0Pu_A-383" vertex="1">
          <mxGeometry x="82.71527798438272" y="-6.641615403102972" width="61.36915183170883" height="83.3798293890348" as="geometry" />
        </mxCell>
        <mxCell id="ZWi5pZssSYx5xVi0Pu_A-387" value="" style="triangle;whiteSpace=wrap;html=1;rotation=-90;fillColor=#FFFFCC;direction=west;strokeColor=none;" parent="ZWi5pZssSYx5xVi0Pu_A-383" vertex="1">
          <mxGeometry x="5.9155701839084145" y="-6.738213985931838" width="61.36915183170883" height="83.3798293890348" as="geometry" />
        </mxCell>
        <mxCell id="ZWi5pZssSYx5xVi0Pu_A-388" value="" style="triangle;whiteSpace=wrap;html=1;rotation=-90;fillColor=#FFFF99;direction=west;strokeColor=none;" parent="ZWi5pZssSYx5xVi0Pu_A-383" vertex="1">
          <mxGeometry x="25.750365713115638" y="-5.70113903134239" width="44.64835728476408" height="63.04328563561168" as="geometry" />
        </mxCell>
        <mxCell id="ZWi5pZssSYx5xVi0Pu_A-389" value="" style="triangle;whiteSpace=wrap;html=1;rotation=-90;fillColor=#FFFF99;direction=west;strokeColor=none;" parent="ZWi5pZssSYx5xVi0Pu_A-383" vertex="1">
          <mxGeometry x="78.17" y="-7.85" width="44.65" height="67.34" as="geometry" />
        </mxCell>
        <mxCell id="ZWi5pZssSYx5xVi0Pu_A-390" value="" style="triangle;whiteSpace=wrap;html=1;rotation=-90;fillColor=#FFFF00;direction=west;strokeColor=none;" parent="ZWi5pZssSYx5xVi0Pu_A-383" vertex="1">
          <mxGeometry x="43.733509049730294" y="-4.204756847075679" width="26.153484692822857" height="40.67308750684625" as="geometry" />
        </mxCell>
        <mxCell id="ZWi5pZssSYx5xVi0Pu_A-391" value="" style="triangle;whiteSpace=wrap;html=1;rotation=-90;fillColor=#FFFF00;direction=west;strokeColor=none;" parent="ZWi5pZssSYx5xVi0Pu_A-383" vertex="1">
          <mxGeometry x="79.66403810355335" y="-4.204756847075679" width="26.153484692822857" height="40.67308750684625" as="geometry" />
        </mxCell>
        <mxCell id="ZWi5pZssSYx5xVi0Pu_A-392" value="" style="triangle;whiteSpace=wrap;html=1;rotation=90;fillColor=#FFFF00;direction=west;strokeColor=none;" parent="ZWi5pZssSYx5xVi0Pu_A-383" vertex="1">
          <mxGeometry x="61.79249023012446" y="-4.204756847075679" width="26.153484692822857" height="40.67308750684625" as="geometry" />
        </mxCell>
      </root>
    </mxGraphModel>
  </diagram>
  <diagram id="0ALAoTfChHX3MOI8OEUN" name="User Experience viewpoint">
    <mxGraphModel dx="1670" dy="940" grid="0" gridSize="10" guides="1" tooltips="1" connect="1" arrows="1" fold="1" page="1" pageScale="1" pageWidth="827" pageHeight="1169" math="0" shadow="0">
      <root>
        <mxCell id="0" />
        <mxCell id="1" parent="0" />
        <mxCell id="1Ucrd-T5S0RCXqBWOyA9-1" value="" style="rounded=0;whiteSpace=wrap;html=1;align=left;" parent="1" vertex="1">
          <mxGeometry x="583" y="360" width="160" height="150" as="geometry" />
        </mxCell>
        <mxCell id="1Ucrd-T5S0RCXqBWOyA9-3" value="&amp;nbsp;Stakeholders" style="rounded=0;whiteSpace=wrap;html=1;align=left;" parent="1" vertex="1">
          <mxGeometry x="83" y="240" width="130" height="60" as="geometry" />
        </mxCell>
        <mxCell id="1Ucrd-T5S0RCXqBWOyA9-4" value="&amp;nbsp;Concerns" style="rounded=0;whiteSpace=wrap;html=1;align=left;" parent="1" vertex="1">
          <mxGeometry x="83" y="300" width="130" height="70" as="geometry" />
        </mxCell>
        <mxCell id="1Ucrd-T5S0RCXqBWOyA9-5" value="&amp;nbsp;Purpose" style="rounded=0;whiteSpace=wrap;html=1;align=left;" parent="1" vertex="1">
          <mxGeometry x="83" y="370" width="130" height="60" as="geometry" />
        </mxCell>
        <mxCell id="1Ucrd-T5S0RCXqBWOyA9-6" value="&amp;nbsp;Abstraction Level" style="rounded=0;whiteSpace=wrap;html=1;align=left;" parent="1" vertex="1">
          <mxGeometry x="83" y="430" width="130" height="80" as="geometry" />
        </mxCell>
        <mxCell id="1Ucrd-T5S0RCXqBWOyA9-7" value="&lt;ol&gt;&lt;li&gt;Citizen (User)&lt;/li&gt;&lt;li&gt;EUDI Wallet Provider&lt;/li&gt;&lt;/ol&gt;" style="rounded=0;whiteSpace=wrap;html=1;align=left;" parent="1" vertex="1">
          <mxGeometry x="213" y="240" width="530" height="60" as="geometry" />
        </mxCell>
        <mxCell id="1Ucrd-T5S0RCXqBWOyA9-8" value="&lt;ol&gt;&lt;li&gt;ease of use&lt;/li&gt;&lt;li&gt;&lt;span style=&quot;font-size: 12px; white-space: normal;&quot;&gt;security&lt;/span&gt;&lt;/li&gt;&lt;li&gt;accessibility&lt;/li&gt;&lt;/ol&gt;" style="rounded=0;whiteSpace=wrap;html=1;align=left;" parent="1" vertex="1">
          <mxGeometry x="213" y="300" width="530" height="70" as="geometry" />
        </mxCell>
        <mxCell id="1Ucrd-T5S0RCXqBWOyA9-9" value="&amp;nbsp;Designing, Informing" style="rounded=0;whiteSpace=wrap;html=1;align=left;" parent="1" vertex="1">
          <mxGeometry x="213" y="370" width="370" height="60" as="geometry" />
        </mxCell>
        <mxCell id="1Ucrd-T5S0RCXqBWOyA9-10" value="&amp;nbsp;Layer&lt;span style=&quot;color: rgba(0, 0, 0, 0); font-family: monospace; font-size: 0px; text-wrap-mode: nowrap;&quot;&gt;%3CmxGraphModel%3E%3Croot%3E%3CmxCell%20id%3D%220%22%2F%3E%3CmxCell%20id%3D%221%22%20parent%3D%220%22%2F%3E%3CmxCell%20id%3D%222%22%20value%3D%22Abstraction%20Level%22%20style%3D%22rounded%3D0%3BwhiteSpace%3Dwrap%3Bhtml%3D1%3Balign%3Dleft%3B%22%20vertex%3D%221%22%20parent%3D%221%22%3E%3CmxGeometry%20x%3D%22180%22%20y%3D%22350%22%20width%3D%22130%22%20height%3D%2230%22%20as%3D%22geometry%22%2F%3E%3C%2FmxCell%3E%3C%2Froot%3E%3C%2FmxGraphModel%3E&lt;/span&gt;" style="rounded=0;whiteSpace=wrap;html=1;align=left;" parent="1" vertex="1">
          <mxGeometry x="83" y="510" width="130" height="30" as="geometry" />
        </mxCell>
        <mxCell id="1Ucrd-T5S0RCXqBWOyA9-11" value="&amp;nbsp;Aspects" style="rounded=0;whiteSpace=wrap;html=1;align=left;" parent="1" vertex="1">
          <mxGeometry x="83" y="540" width="130" height="30" as="geometry" />
        </mxCell>
        <mxCell id="1Ucrd-T5S0RCXqBWOyA9-12" value="&amp;nbsp;Business, Application" style="rounded=0;whiteSpace=wrap;html=1;align=left;" parent="1" vertex="1">
          <mxGeometry x="213" y="510" width="530" height="30" as="geometry" />
        </mxCell>
        <mxCell id="1Ucrd-T5S0RCXqBWOyA9-13" value="&amp;nbsp;Active structure, Behavior, Motivation" style="rounded=0;whiteSpace=wrap;html=1;align=left;" parent="1" vertex="1">
          <mxGeometry x="213" y="540" width="530" height="30" as="geometry" />
        </mxCell>
        <mxCell id="1Ucrd-T5S0RCXqBWOyA9-14" value="&lt;div&gt;&lt;span style=&quot;white-space: pre; white-space: normal;&quot;&gt;&#x9;&lt;/span&gt;&lt;/div&gt;&lt;div&gt;&amp;nbsp;&lt;span style=&quot;background-color: transparent; color: light-dark(rgb(0, 0, 0), rgb(255, 255, 255));&quot;&gt;Coherence&lt;/span&gt;&lt;/div&gt;" style="rounded=0;whiteSpace=wrap;html=1;align=left;" parent="1" vertex="1">
          <mxGeometry x="213" y="430" width="370" height="80" as="geometry" />
        </mxCell>
        <mxCell id="0fJMejzUF73ZNO-xuZ4S-1" value="" style="group" parent="1" vertex="1" connectable="0">
          <mxGeometry x="588" y="374" width="150" height="130" as="geometry" />
        </mxCell>
        <mxCell id="0fJMejzUF73ZNO-xuZ4S-2" value="" style="triangle;whiteSpace=wrap;html=1;rotation=90;fillColor=#99FF99;" parent="0fJMejzUF73ZNO-xuZ4S-1" vertex="1">
          <mxGeometry x="44.17033175079369" y="-7.7910077946212" width="61.51079136690647" height="78.73771873978352" as="geometry" />
        </mxCell>
        <mxCell id="0fJMejzUF73ZNO-xuZ4S-3" value="" style="triangle;whiteSpace=wrap;html=1;rotation=90;fillColor=#000000;" parent="0fJMejzUF73ZNO-xuZ4S-1" vertex="1">
          <mxGeometry x="52.33157603471877" y="9.432868179706452" width="44.751405353450025" height="61.290156064490596" as="geometry" />
        </mxCell>
        <mxCell id="0fJMejzUF73ZNO-xuZ4S-4" value="" style="triangle;whiteSpace=wrap;html=1;rotation=-90;fillColor=#66B2FF;" parent="0fJMejzUF73ZNO-xuZ4S-1" vertex="1">
          <mxGeometry x="82.79206594238777" y="-5.106767383037669" width="61.51079136690647" height="73.36923791661648" as="geometry" />
        </mxCell>
        <mxCell id="0fJMejzUF73ZNO-xuZ4S-5" value="" style="triangle;whiteSpace=wrap;html=1;rotation=-90;fillColor=#FF9999;" parent="0fJMejzUF73ZNO-xuZ4S-1" vertex="1">
          <mxGeometry x="5.815105001019428" y="-5.191768329404479" width="61.51079136690647" height="73.36923791661648" as="geometry" />
        </mxCell>
        <mxCell id="0fJMejzUF73ZNO-xuZ4S-6" value="" style="triangle;whiteSpace=wrap;html=1;rotation=-90;fillColor=#FF6666;" parent="0fJMejzUF73ZNO-xuZ4S-1" vertex="1">
          <mxGeometry x="23.810910785541605" y="12.340795292255276" width="44.751405353450025" height="55.47430183939296" as="geometry" />
        </mxCell>
        <mxCell id="0fJMejzUF73ZNO-xuZ4S-7" value="" style="triangle;whiteSpace=wrap;html=1;rotation=-90;fillColor=#000000;" parent="0fJMejzUF73ZNO-xuZ4S-1" vertex="1">
          <mxGeometry x="81.48137360556899" y="12.340795292255276" width="44.751405353450025" height="55.47430183939296" as="geometry" />
        </mxCell>
        <mxCell id="0fJMejzUF73ZNO-xuZ4S-8" value="" style="shape=image;verticalLabelPosition=bottom;labelBackgroundColor=default;verticalAlign=top;aspect=fixed;imageAspect=0;image=https://pubs.opengroup.org/architecture/archimate2-doc/ts_archimate_2.1_files/image142.png;clipPath=inset(50% 2.14% 0% 0.43%);" parent="0fJMejzUF73ZNO-xuZ4S-1" vertex="1">
          <mxGeometry y="62.63" width="150" height="65.79" as="geometry" />
        </mxCell>
        <mxCell id="0fJMejzUF73ZNO-xuZ4S-9" value="" style="triangle;whiteSpace=wrap;html=1;rotation=-90;fillColor=#FF0000;" parent="0fJMejzUF73ZNO-xuZ4S-1" vertex="1">
          <mxGeometry x="43.72032738181923" y="31.57785157527057" width="26.21384673637608" height="35.789872154447075" as="geometry" />
        </mxCell>
        <mxCell id="0fJMejzUF73ZNO-xuZ4S-10" value="" style="triangle;whiteSpace=wrap;html=1;rotation=-90;fillColor=#0066CC;" parent="0fJMejzUF73ZNO-xuZ4S-1" vertex="1">
          <mxGeometry x="79.73378382314391" y="31.57785157527057" width="26.21384673637608" height="35.789872154447075" as="geometry" />
        </mxCell>
        <mxCell id="0fJMejzUF73ZNO-xuZ4S-11" value="" style="triangle;whiteSpace=wrap;html=1;rotation=90;fillColor=#00CC00;" parent="0fJMejzUF73ZNO-xuZ4S-1" vertex="1">
          <mxGeometry x="61.820988553286924" y="31.57785157527057" width="26.21384673637608" height="35.789872154447075" as="geometry" />
        </mxCell>
      </root>
    </mxGraphModel>
  </diagram>
  <diagram id="mSOW6evaur5-dMby9YdS" name="Página-4">
    <mxGraphModel dx="1234" dy="711" grid="1" gridSize="10" guides="1" tooltips="1" connect="1" arrows="1" fold="1" page="1" pageScale="1" pageWidth="1169" pageHeight="827" math="0" shadow="0">
      <root>
        <mxCell id="0" />
        <mxCell id="1" parent="0" />
        <mxCell id="jy3bdVDiGjENPx_lPw6I-1" value="" style="rounded=0;whiteSpace=wrap;html=1;align=left;" vertex="1" parent="1">
          <mxGeometry x="830" y="290" width="160" height="140" as="geometry" />
        </mxCell>
        <mxCell id="jy3bdVDiGjENPx_lPw6I-2" value="&lt;font style=&quot;&quot;&gt;&lt;b style=&quot;font-size: 15px;&quot;&gt;&amp;nbsp;&lt;/b&gt;&lt;span style=&quot;font-size: 15px;&quot;&gt;&lt;b&gt;Maturity&lt;/b&gt;&lt;/span&gt;&lt;b style=&quot;font-size: 15px;&quot;&gt;&amp;nbsp;Viewpoint&lt;/b&gt;&lt;/font&gt;" style="rounded=0;whiteSpace=wrap;html=1;align=left;" vertex="1" parent="1">
          <mxGeometry x="330" y="170" width="660" height="30" as="geometry" />
        </mxCell>
        <mxCell id="jy3bdVDiGjENPx_lPw6I-3" value="&amp;nbsp;Stakeholders" style="rounded=0;whiteSpace=wrap;html=1;align=left;" vertex="1" parent="1">
          <mxGeometry x="330" y="200" width="130" height="30" as="geometry" />
        </mxCell>
        <mxCell id="jy3bdVDiGjENPx_lPw6I-4" value="&amp;nbsp;Concerns" style="rounded=0;whiteSpace=wrap;html=1;align=left;" vertex="1" parent="1">
          <mxGeometry x="330" y="230" width="130" height="60" as="geometry" />
        </mxCell>
        <mxCell id="jy3bdVDiGjENPx_lPw6I-5" value="&amp;nbsp;Purpose" style="rounded=0;whiteSpace=wrap;html=1;align=left;" vertex="1" parent="1">
          <mxGeometry x="330" y="290" width="130" height="60" as="geometry" />
        </mxCell>
        <mxCell id="jy3bdVDiGjENPx_lPw6I-6" value="&amp;nbsp;Abstraction Level" style="rounded=0;whiteSpace=wrap;html=1;align=left;" vertex="1" parent="1">
          <mxGeometry x="330" y="350" width="130" height="80" as="geometry" />
        </mxCell>
        <mxCell id="jy3bdVDiGjENPx_lPw6I-7" value="&lt;ol&gt;&lt;li&gt;MSc Student from Tecnico&lt;/li&gt;&lt;/ol&gt;" style="rounded=0;whiteSpace=wrap;html=1;align=left;" vertex="1" parent="1">
          <mxGeometry x="460" y="200" width="530" height="30" as="geometry" />
        </mxCell>
        <mxCell id="jy3bdVDiGjENPx_lPw6I-8" value="&lt;ol&gt;&lt;li&gt;NIS2 possible integration with maturity levels&lt;/li&gt;&lt;li&gt;Understanding of cybersecurity maturity self-assessment behavior&lt;/li&gt;&lt;li&gt;EA diagram for MSc Thesis&lt;/li&gt;&lt;/ol&gt;" style="rounded=0;whiteSpace=wrap;html=1;align=left;" vertex="1" parent="1">
          <mxGeometry x="460" y="230" width="530" height="60" as="geometry" />
        </mxCell>
        <mxCell id="jy3bdVDiGjENPx_lPw6I-9" value="&amp;nbsp;Deciding" style="rounded=0;whiteSpace=wrap;html=1;align=left;" vertex="1" parent="1">
          <mxGeometry x="460" y="290" width="370" height="60" as="geometry" />
        </mxCell>
        <mxCell id="jy3bdVDiGjENPx_lPw6I-10" value="&amp;nbsp;Layer&lt;span style=&quot;color: rgba(0, 0, 0, 0); font-family: monospace; font-size: 0px; text-wrap-mode: nowrap;&quot;&gt;%3CmxGraphModel%3E%3Croot%3E%3CmxCell%20id%3D%220%22%2F%3E%3CmxCell%20id%3D%221%22%20parent%3D%220%22%2F%3E%3CmxCell%20id%3D%222%22%20value%3D%22Abstraction%20Level%22%20style%3D%22rounded%3D0%3BwhiteSpace%3Dwrap%3Bhtml%3D1%3Balign%3Dleft%3B%22%20vertex%3D%221%22%20parent%3D%221%22%3E%3CmxGeometry%20x%3D%22180%22%20y%3D%22350%22%20width%3D%22130%22%20height%3D%2230%22%20as%3D%22geometry%22%2F%3E%3C%2FmxCell%3E%3C%2Froot%3E%3C%2FmxGraphModel%3E&lt;/span&gt;" style="rounded=0;whiteSpace=wrap;html=1;align=left;" vertex="1" parent="1">
          <mxGeometry x="330" y="430" width="130" height="30" as="geometry" />
        </mxCell>
        <mxCell id="jy3bdVDiGjENPx_lPw6I-11" value="&amp;nbsp;Aspects" style="rounded=0;whiteSpace=wrap;html=1;align=left;" vertex="1" parent="1">
          <mxGeometry x="330" y="460" width="130" height="30" as="geometry" />
        </mxCell>
        <mxCell id="jy3bdVDiGjENPx_lPw6I-12" value="&amp;nbsp;Business" style="rounded=0;whiteSpace=wrap;html=1;align=left;" vertex="1" parent="1">
          <mxGeometry x="460" y="430" width="530" height="30" as="geometry" />
        </mxCell>
        <mxCell id="jy3bdVDiGjENPx_lPw6I-13" value="&amp;nbsp;Active structure, Behavior, Passive structure, Motivation" style="rounded=0;whiteSpace=wrap;html=1;align=left;" vertex="1" parent="1">
          <mxGeometry x="460" y="460" width="530" height="30" as="geometry" />
        </mxCell>
        <mxCell id="jy3bdVDiGjENPx_lPw6I-14" value="&lt;div&gt;&lt;span style=&quot;white-space: pre; white-space: normal;&quot;&gt;&#x9;&lt;/span&gt;&lt;/div&gt;&lt;div&gt;&amp;nbsp;Coherence&lt;/div&gt;" style="rounded=0;whiteSpace=wrap;html=1;align=left;" vertex="1" parent="1">
          <mxGeometry x="460" y="350" width="370" height="80" as="geometry" />
        </mxCell>
        <mxCell id="jy3bdVDiGjENPx_lPw6I-15" value="" style="group" vertex="1" connectable="0" parent="1">
          <mxGeometry x="836" y="296" width="150" height="137.29" as="geometry" />
        </mxCell>
        <mxCell id="jy3bdVDiGjENPx_lPw6I-16" value="" style="group" vertex="1" connectable="0" parent="jy3bdVDiGjENPx_lPw6I-15">
          <mxGeometry width="150" height="130" as="geometry" />
        </mxCell>
        <mxCell id="jy3bdVDiGjENPx_lPw6I-17" value="" style="triangle;whiteSpace=wrap;html=1;rotation=90;fillColor=#99FF99;" vertex="1" parent="jy3bdVDiGjENPx_lPw6I-16">
          <mxGeometry x="44.17033175079369" y="-7.7910077946212" width="61.51079136690647" height="78.73771873978352" as="geometry" />
        </mxCell>
        <mxCell id="jy3bdVDiGjENPx_lPw6I-18" value="" style="triangle;whiteSpace=wrap;html=1;rotation=90;fillColor=#000000;" vertex="1" parent="jy3bdVDiGjENPx_lPw6I-16">
          <mxGeometry x="52.33157603471877" y="9.432868179706452" width="44.751405353450025" height="61.290156064490596" as="geometry" />
        </mxCell>
        <mxCell id="jy3bdVDiGjENPx_lPw6I-19" value="" style="triangle;whiteSpace=wrap;html=1;rotation=-90;fillColor=#66B2FF;" vertex="1" parent="jy3bdVDiGjENPx_lPw6I-16">
          <mxGeometry x="82.79206594238777" y="-5.106767383037669" width="61.51079136690647" height="73.36923791661648" as="geometry" />
        </mxCell>
        <mxCell id="jy3bdVDiGjENPx_lPw6I-20" value="" style="triangle;whiteSpace=wrap;html=1;rotation=-90;fillColor=#FF9999;" vertex="1" parent="jy3bdVDiGjENPx_lPw6I-16">
          <mxGeometry x="5.815105001019428" y="-5.191768329404479" width="61.51079136690647" height="73.36923791661648" as="geometry" />
        </mxCell>
        <mxCell id="jy3bdVDiGjENPx_lPw6I-21" value="" style="triangle;whiteSpace=wrap;html=1;rotation=-90;fillColor=#FF6666;" vertex="1" parent="jy3bdVDiGjENPx_lPw6I-16">
          <mxGeometry x="23.810910785541605" y="12.340795292255276" width="44.751405353450025" height="55.47430183939296" as="geometry" />
        </mxCell>
        <mxCell id="jy3bdVDiGjENPx_lPw6I-22" value="" style="triangle;whiteSpace=wrap;html=1;rotation=-90;fillColor=#3399FF;" vertex="1" parent="jy3bdVDiGjENPx_lPw6I-16">
          <mxGeometry x="81.48137360556899" y="12.340795292255276" width="44.751405353450025" height="55.47430183939296" as="geometry" />
        </mxCell>
        <mxCell id="jy3bdVDiGjENPx_lPw6I-23" value="" style="triangle;whiteSpace=wrap;html=1;rotation=-90;fillColor=#FF0000;" vertex="1" parent="jy3bdVDiGjENPx_lPw6I-16">
          <mxGeometry x="43.72032738181923" y="31.57785157527057" width="26.21384673637608" height="35.789872154447075" as="geometry" />
        </mxCell>
        <mxCell id="jy3bdVDiGjENPx_lPw6I-24" value="" style="triangle;whiteSpace=wrap;html=1;rotation=-90;fillColor=#0066CC;" vertex="1" parent="jy3bdVDiGjENPx_lPw6I-16">
          <mxGeometry x="79.73378382314391" y="31.57785157527057" width="26.21384673637608" height="35.789872154447075" as="geometry" />
        </mxCell>
        <mxCell id="jy3bdVDiGjENPx_lPw6I-25" value="" style="triangle;whiteSpace=wrap;html=1;rotation=90;fillColor=#00CC00;" vertex="1" parent="jy3bdVDiGjENPx_lPw6I-16">
          <mxGeometry x="61.820988553286924" y="31.57785157527057" width="26.21384673637608" height="35.789872154447075" as="geometry" />
        </mxCell>
        <mxCell id="jy3bdVDiGjENPx_lPw6I-26" value="" style="group" vertex="1" connectable="0" parent="jy3bdVDiGjENPx_lPw6I-15">
          <mxGeometry y="60" width="150" height="77.28999999999999" as="geometry" />
        </mxCell>
        <mxCell id="jy3bdVDiGjENPx_lPw6I-27" value="" style="triangle;whiteSpace=wrap;html=1;rotation=90;fillColor=#FFFFCC;direction=west;strokeColor=none;" vertex="1" parent="jy3bdVDiGjENPx_lPw6I-26">
          <mxGeometry x="46.23" y="-3.96" width="59.73" height="78.27" as="geometry" />
        </mxCell>
        <mxCell id="jy3bdVDiGjENPx_lPw6I-28" value="" style="triangle;whiteSpace=wrap;html=1;rotation=90;fillColor=#FFFF99;direction=west;strokeColor=none;" vertex="1" parent="jy3bdVDiGjENPx_lPw6I-26">
          <mxGeometry x="52.22515903910487" y="-9.005827391273627" width="44.64835728476408" height="69.65266235547418" as="geometry" />
        </mxCell>
        <mxCell id="jy3bdVDiGjENPx_lPw6I-29" value="" style="triangle;whiteSpace=wrap;html=1;rotation=-90;fillColor=#FFFFCC;direction=west;strokeColor=none;" vertex="1" parent="jy3bdVDiGjENPx_lPw6I-26">
          <mxGeometry x="82.71527798438272" y="-6.641615403102972" width="61.36915183170883" height="83.3798293890348" as="geometry" />
        </mxCell>
        <mxCell id="jy3bdVDiGjENPx_lPw6I-30" value="" style="triangle;whiteSpace=wrap;html=1;rotation=-90;fillColor=#FFFFCC;direction=west;strokeColor=none;" vertex="1" parent="jy3bdVDiGjENPx_lPw6I-26">
          <mxGeometry x="5.9155701839084145" y="-6.738213985931838" width="61.36915183170883" height="83.3798293890348" as="geometry" />
        </mxCell>
        <mxCell id="jy3bdVDiGjENPx_lPw6I-31" value="" style="triangle;whiteSpace=wrap;html=1;rotation=-90;fillColor=#FFFF99;direction=west;strokeColor=none;" vertex="1" parent="jy3bdVDiGjENPx_lPw6I-26">
          <mxGeometry x="25.750365713115638" y="-5.70113903134239" width="44.64835728476408" height="63.04328563561168" as="geometry" />
        </mxCell>
        <mxCell id="jy3bdVDiGjENPx_lPw6I-32" value="" style="triangle;whiteSpace=wrap;html=1;rotation=-90;fillColor=#FFFF99;direction=west;strokeColor=none;" vertex="1" parent="jy3bdVDiGjENPx_lPw6I-26">
          <mxGeometry x="78.17" y="-7.85" width="44.65" height="67.34" as="geometry" />
        </mxCell>
        <mxCell id="jy3bdVDiGjENPx_lPw6I-33" value="" style="triangle;whiteSpace=wrap;html=1;rotation=-90;fillColor=#FFFF00;direction=west;strokeColor=none;" vertex="1" parent="jy3bdVDiGjENPx_lPw6I-26">
          <mxGeometry x="43.733509049730294" y="-4.204756847075679" width="26.153484692822857" height="40.67308750684625" as="geometry" />
        </mxCell>
        <mxCell id="jy3bdVDiGjENPx_lPw6I-34" value="" style="triangle;whiteSpace=wrap;html=1;rotation=-90;fillColor=#FFFF00;direction=west;strokeColor=none;" vertex="1" parent="jy3bdVDiGjENPx_lPw6I-26">
          <mxGeometry x="79.66403810355335" y="-4.204756847075679" width="26.153484692822857" height="40.67308750684625" as="geometry" />
        </mxCell>
        <mxCell id="jy3bdVDiGjENPx_lPw6I-35" value="" style="triangle;whiteSpace=wrap;html=1;rotation=90;fillColor=#FFFF00;direction=west;strokeColor=none;" vertex="1" parent="jy3bdVDiGjENPx_lPw6I-26">
          <mxGeometry x="61.79249023012446" y="-4.204756847075679" width="26.153484692822857" height="40.67308750684625" as="geometry" />
        </mxCell>
      </root>
    </mxGraphModel>
  </diagram>
</mxfile>
